<?xml version="1.0" encoding="iso-8859-1"?>
<!-- Generator: Adobe Illustrator 16.0.0, SVG Export Plug-In . SVG Version: 6.00 Build 0)  -->
<!DOCTYPE svg PUBLIC "-//W3C//DTD SVG 1.1//EN" "http://www.w3.org/Graphics/SVG/1.1/DTD/svg11.dtd">
<svg version="1.1" id="Capa_1" xmlns="http://www.w3.org/2000/svg" xmlns:xlink="http://www.w3.org/1999/xlink" x="0px" y="0px"
	 width="37.664px" height="37.664px" viewBox="0 0 37.664 37.664" style="enable-background:new 0 0 37.664 37.664;"
	 xml:space="preserve">
<g>
	<path d="M24.253,23.967c0.14,0.238,0.058,0.545-0.183,0.684c-1.577,0.916-3.382,1.398-5.217,1.402l0,0c-0.276,0-0.5-0.225-0.5-0.5
		s0.223-0.5,0.5-0.5c1.66-0.004,3.291-0.439,4.717-1.268C23.809,23.645,24.114,23.727,24.253,23.967z M14.132,23.795
		c-1.432-0.824-2.629-2.021-3.46-3.449c-0.139-0.24-0.446-0.32-0.683-0.182c-0.239,0.139-0.32,0.443-0.181,0.684
		c0.919,1.582,2.242,2.9,3.825,3.814c0.079,0.045,0.165,0.064,0.25,0.064c0.173,0,0.341-0.09,0.434-0.25
		C14.455,24.238,14.372,23.934,14.132,23.795z M10.47,10.226c-0.239-0.139-0.544-0.057-0.683,0.185
		c-0.906,1.573-1.385,3.373-1.385,5.2v0.02c0,0.276,0.224,0.49,0.5,0.49c0.276,0,0.5-0.231,0.5-0.51
		c0-1.652,0.433-3.278,1.252-4.702C10.792,10.667,10.708,10.362,10.47,10.226z M23.536,7.414c1.437,0.823,2.633,2.016,3.469,3.442
		c0.093,0.158,0.261,0.248,0.433,0.248c0.084,0,0.172-0.021,0.25-0.068c0.24-0.139,0.319-0.445,0.181-0.684
		c-0.922-1.58-2.248-2.896-3.832-3.808c-0.242-0.138-0.547-0.056-0.685,0.187C23.214,6.972,23.296,7.276,23.536,7.414z
		 M13.849,7.511c0.085,0,0.172-0.021,0.251-0.068c1.425-0.828,3.055-1.271,4.714-1.274c0.276-0.001,0.5-0.226,0.499-0.502
		c-0.001-0.273-0.225-0.498-0.5-0.498h-0.001c-1.835,0.006-3.638,0.494-5.214,1.412c-0.239,0.141-0.319,0.444-0.181,0.686
		C13.508,7.421,13.677,7.511,13.849,7.511z M29.284,15.567c0-0.275-0.225-0.479-0.5-0.479c-0.274,0-0.5,0.244-0.5,0.521
		c0,1.658-0.438,3.291-1.262,4.719c-0.139,0.238-0.057,0.545,0.184,0.684c0.078,0.045,0.164,0.066,0.25,0.066
		c0.172,0,0.34-0.09,0.435-0.25c0.912-1.581,1.396-3.385,1.396-5.237l-0.5-0.021h0.5v-0.002H29.284z M19.881,16.11
		c-0.208-0.076-0.521-0.115-0.942-0.115h-0.961v1.607c0.004,0.229,0.012,0.36,0.026,0.397c0.017,0.049,0.047,0.084,0.088,0.104
		c0.041,0.021,0.151,0.028,0.331,0.028h0.543c0.314,0,0.576-0.028,0.784-0.087c0.208-0.058,0.383-0.182,0.527-0.363
		c0.146-0.185,0.219-0.408,0.219-0.666c0-0.221-0.051-0.404-0.154-0.561C20.239,16.308,20.086,16.188,19.881,16.11z M19.739,14.796
		c0.204-0.07,0.356-0.179,0.459-0.322c0.103-0.143,0.154-0.31,0.154-0.496c0-0.195-0.049-0.361-0.146-0.5
		c-0.098-0.141-0.237-0.236-0.423-0.295c-0.184-0.062-0.515-0.091-0.989-0.091h-0.815v1.812h0.815
		C19.22,14.901,19.534,14.868,19.739,14.796z M27.307,15.608c0,4.675-3.791,8.46-8.463,8.46c-4.673,0-8.461-3.785-8.461-8.46
		c0-4.674,3.788-8.463,8.461-8.463C23.516,7.146,27.307,10.935,27.307,15.608z M22.425,17.213c0-0.33-0.079-0.63-0.233-0.896
		c-0.155-0.27-0.368-0.478-0.633-0.625c-0.187-0.107-0.453-0.204-0.799-0.293c0.323-0.11,0.586-0.248,0.782-0.418
		c0.199-0.17,0.349-0.363,0.453-0.582c0.105-0.221,0.158-0.453,0.158-0.698c0-0.337-0.1-0.646-0.297-0.931
		c-0.199-0.281-0.482-0.498-0.854-0.648c-0.143-0.059-0.312-0.102-0.498-0.139v-1.311h-1.257v1.223h-0.808v-1.223h-1.258v1.223
		h-1.919v1.025h0.294c0.195,0,0.327,0.02,0.396,0.055c0.071,0.035,0.119,0.084,0.146,0.146c0.029,0.061,0.043,0.2,0.043,0.42v4.145
		c0,0.217-0.014,0.354-0.043,0.418c-0.028,0.062-0.076,0.107-0.146,0.144c-0.068,0.033-0.2,0.052-0.396,0.052h-0.294v1.025h1.919
		v1.223h1.259v-1.226h0.714c0.032,0,0.063-0.001,0.094-0.001v1.225h1.258v-1.329c0.212-0.04,0.396-0.092,0.556-0.155
		c0.435-0.173,0.771-0.425,1.006-0.76C22.307,17.972,22.425,17.608,22.425,17.213z M11.665,26.992h-0.026l-3.561,7.826l3.831-0.139
		l2.414,2.98l3.605-7.926l-4.023,2.881L11.665,26.992z M25.997,26.992l-2.242,5.627l-3.964-2.84l3.585,7.885l2.412-2.982
		l3.834,0.139l-3.563-7.826L25.997,26.992z M29.755,20.832l1.052,5.389l-5.481-0.275l-2.031,5.1l-4.46-3.191l-4.467,3.191
		l-2.027-5.1l-5.481,0.275l1.051-5.389l-4.76-2.733l3.792-3.966L4.418,9.261l5.336-1.281l0.512-5.465l5.182,1.805L18.833,0
		l3.385,4.319l5.178-1.805l0.513,5.465l5.334,1.281l-2.523,4.872l3.795,3.966L29.755,20.832z M30.116,15.521
		c0-6.229-5.053-11.283-11.284-11.283c-6.235,0-11.288,5.055-11.288,11.283c0,6.233,5.053,11.286,11.288,11.286
		C25.062,26.809,30.116,21.754,30.116,15.521z"/>
</g>
<g>
</g>
<g>
</g>
<g>
</g>
<g>
</g>
<g>
</g>
<g>
</g>
<g>
</g>
<g>
</g>
<g>
</g>
<g>
</g>
<g>
</g>
<g>
</g>
<g>
</g>
<g>
</g>
<g>
</g>
</svg>
