<?xml version="1.0" encoding="iso-8859-1"?>
<!-- Generator: Adobe Illustrator 16.0.0, SVG Export Plug-In . SVG Version: 6.00 Build 0)  -->
<!DOCTYPE svg PUBLIC "-//W3C//DTD SVG 1.1//EN" "http://www.w3.org/Graphics/SVG/1.1/DTD/svg11.dtd">
<svg version="1.1" id="Capa_1" xmlns="http://www.w3.org/2000/svg" xmlns:xlink="http://www.w3.org/1999/xlink" x="0px" y="0px"
	 width="41.121px" height="41.121px" viewBox="0 0 41.121 41.121" style="enable-background:new 0 0 41.121 41.121;"
	 xml:space="preserve">
<g>
	<path d="M29.124,10.414c0.076-0.699,1.75-1.633,1.594-2.318c-0.157-0.685-2.137-0.762-2.442-1.396
		c-0.305-0.634,0.869-2.23,0.433-2.78C28.27,3.37,26.452,4.161,25.9,3.723c-0.55-0.438-0.185-2.387-0.816-2.692
		C24.45,0.726,23.155,2.226,22.47,2.07C21.784,1.914,21.268,0,20.564,0c-0.704,0-1.219,1.914-1.904,2.07
		c-0.687,0.156-1.98-1.344-2.614-1.039c-0.634,0.306-0.818,2.692-0.818,2.692s-2.369-0.352-2.807,0.197
		c-0.438,0.55,0.736,2.146,0.431,2.78c-0.305,0.634-2.226,0.727-2.44,1.396c-0.218,0.67,1.594,1.615,1.594,2.318
		s-1.751,1.632-1.594,2.317c0.155,0.686,2.136,0.763,2.44,1.396c0.306,0.634-0.869,2.23-0.431,2.78
		c0.438,0.55,2.256-0.24,2.806,0.198s0.185,2.387,0.818,2.691c0.633,0.305,1.928-1.195,2.614-1.039
		c0.389,0.088,0.723,0.738,1.066,1.288v9h-8.928v4.289h1.882l3.485,7.787h8.788l3.483-7.787h1.882v-4.289h-8.595v-2.152
		c0.873-0.002,2.708-0.156,3.866-1.313c1.562-1.562,1.297-4.358,1.297-4.358s-2.798-0.267-4.361,1.297
		c-0.354,0.354-0.609,0.772-0.802,1.207v-4.202c0.236-0.375,0.478-0.702,0.742-0.762c0.686-0.156,1.979,1.344,2.614,1.039
		c0.633-0.305,0.317-2.196,0.816-2.691c0.499-0.496,2.368,0.352,2.808-0.198c0.438-0.55-0.433-2.78-0.433-2.78
		s2.285-0.71,2.442-1.396C30.874,12.046,29.047,11.114,29.124,10.414z M20.603,17.372c-3.884,0-7.03-3.147-7.03-7.031
		c0-3.884,3.146-7.031,7.03-7.031c3.883,0,7.031,3.147,7.031,7.031C27.634,14.225,24.486,17.372,20.603,17.372z M20.582,16.753
		c-0.275,0-0.499-0.223-0.5-0.499s0.223-0.5,0.499-0.501c0.937-0.002,1.856-0.251,2.663-0.719c0.234-0.139,0.544-0.059,0.683,0.181
		c0.139,0.239,0.058,0.544-0.181,0.683c-0.957,0.556-2.052,0.852-3.162,0.854C20.582,16.753,20.582,16.753,20.582,16.753z
		 M17.665,15.983c-0.084,0-0.17-0.021-0.248-0.066c-0.962-0.551-1.768-1.349-2.326-2.306c-0.139-0.238-0.059-0.545,0.179-0.684
		c0.238-0.139,0.544-0.06,0.685,0.179c0.472,0.807,1.148,1.479,1.96,1.943c0.239,0.137,0.322,0.443,0.185,0.682
		C18.005,15.893,17.837,15.983,17.665,15.983z M25.625,13.829c-0.085,0-0.171-0.021-0.25-0.067
		c-0.239-0.138-0.321-0.444-0.185-0.683c0.468-0.806,0.712-1.727,0.712-2.665c0-0.274,0.223-0.531,0.495-0.534
		c0.271-0.027,0.5,0.181,0.505,0.455c0,0.007,0,0.083,0,0.09c0,1.102-0.292,2.197-0.846,3.154
		C25.966,13.74,25.798,13.829,25.625,13.829z M14.726,10.931c-0.275,0-0.5-0.207-0.5-0.483v-0.034c0-1.1,0.286-2.183,0.827-3.134
		c0.136-0.24,0.441-0.324,0.682-0.187c0.24,0.137,0.324,0.442,0.188,0.682c-0.456,0.8-0.696,1.712-0.696,2.639
		C15.226,10.691,15.001,10.931,14.726,10.931z M25.591,7.94c-0.171,0-0.337-0.087-0.431-0.245c-0.479-0.804-1.158-1.472-1.974-1.932
		c-0.238-0.136-0.325-0.441-0.188-0.681c0.136-0.241,0.44-0.325,0.681-0.189c0.965,0.546,1.774,1.338,2.34,2.292
		c0.143,0.237,0.063,0.544-0.175,0.685C25.766,7.917,25.678,7.94,25.591,7.94z M17.605,5.879c-0.171,0-0.338-0.088-0.431-0.246
		c-0.14-0.238-0.061-0.544,0.177-0.685c0.954-0.562,2.045-0.864,3.157-0.874c0.001,0,0.003,0,0.004,0c0.274,0,0.498,0.221,0.5,0.496
		c0.002,0.276-0.22,0.502-0.496,0.504c-0.937,0.008-1.855,0.262-2.658,0.735C17.778,5.857,17.691,5.879,17.605,5.879z
		 M23.149,10.962c-0.121-0.208-0.282-0.369-0.487-0.484c-0.145-0.082-0.351-0.158-0.617-0.226c0.25-0.086,0.452-0.193,0.604-0.323
		c0.152-0.131,0.271-0.28,0.353-0.45c0.081-0.17,0.122-0.351,0.122-0.539c0-0.261-0.077-0.5-0.229-0.718
		c-0.152-0.218-0.373-0.386-0.658-0.501c-0.108-0.046-0.24-0.08-0.385-0.107V6.601H20.88v0.944h-0.625V6.601h-0.972v0.944h-1.482
		v0.794h0.227c0.15,0,0.253,0.014,0.307,0.041c0.054,0.027,0.091,0.064,0.113,0.111c0.021,0.047,0.032,0.155,0.032,0.324v3.2
		c0,0.168-0.01,0.275-0.032,0.324c-0.022,0.047-0.061,0.084-0.113,0.11c-0.053,0.026-0.155,0.039-0.307,0.039h-0.227v0.794h1.482
		v0.943h0.972v-0.943h0.553c0.024,0,0.047-0.001,0.072-0.001v0.944h0.971V13.2c0.163-0.031,0.308-0.071,0.43-0.12
		c0.337-0.134,0.596-0.329,0.777-0.586c0.186-0.256,0.276-0.536,0.276-0.841C23.332,11.4,23.27,11.168,23.149,10.962z M21.29,8.539
		c0.143,0.045,0.252,0.12,0.328,0.228c0.073,0.107,0.11,0.235,0.11,0.387c0,0.146-0.039,0.274-0.118,0.385
		c-0.078,0.11-0.196,0.193-0.354,0.248c-0.158,0.056-0.401,0.082-0.73,0.082h-0.629V8.472h0.629
		C20.894,8.471,21.147,8.494,21.29,8.539z M20.661,12.366h-0.418c-0.141,0-0.226-0.008-0.258-0.021
		c-0.031-0.016-0.054-0.043-0.067-0.081c-0.011-0.03-0.018-0.133-0.021-0.308v-1.243h0.742c0.326,0,0.568,0.03,0.728,0.091
		c0.157,0.061,0.275,0.15,0.355,0.267c0.079,0.119,0.119,0.263,0.119,0.433c0,0.2-0.056,0.371-0.168,0.514
		c-0.112,0.144-0.249,0.237-0.409,0.282C21.104,12.344,20.902,12.366,20.661,12.366z"/>
</g>
<g>
</g>
<g>
</g>
<g>
</g>
<g>
</g>
<g>
</g>
<g>
</g>
<g>
</g>
<g>
</g>
<g>
</g>
<g>
</g>
<g>
</g>
<g>
</g>
<g>
</g>
<g>
</g>
<g>
</g>
</svg>
