<?xml version="1.0" encoding="iso-8859-1"?>
<!-- Generator: Adobe Illustrator 16.0.0, SVG Export Plug-In . SVG Version: 6.00 Build 0)  -->
<!DOCTYPE svg PUBLIC "-//W3C//DTD SVG 1.1//EN" "http://www.w3.org/Graphics/SVG/1.1/DTD/svg11.dtd">
<svg version="1.1" id="Capa_1" xmlns="http://www.w3.org/2000/svg" xmlns:xlink="http://www.w3.org/1999/xlink" x="0px" y="0px"
	 width="38.082px" height="38.082px" viewBox="0 0 38.082 38.082" style="enable-background:new 0 0 38.082 38.082;"
	 xml:space="preserve">
<g>
	<path d="M18.998,8.288h-0.696V6.734h0.696c0.407,0,0.69,0.025,0.849,0.076c0.156,0.05,0.279,0.136,0.361,0.253
		c0.084,0.118,0.127,0.262,0.127,0.43c0,0.16-0.045,0.304-0.133,0.427c-0.089,0.123-0.219,0.215-0.395,0.276
		C19.634,8.256,19.363,8.288,18.998,8.288z M20.27,10.668c0.123-0.158,0.188-0.35,0.188-0.571c0-0.188-0.043-0.347-0.132-0.479
		c-0.09-0.13-0.221-0.229-0.396-0.295c-0.179-0.068-0.445-0.103-0.807-0.103h-0.822v1.378c0,0.196,0.008,0.311,0.021,0.343
		c0.015,0.042,0.041,0.073,0.075,0.089c0.035,0.018,0.129,0.026,0.283,0.026h0.465c0.27,0,0.494-0.026,0.672-0.076
		C19.996,10.932,20.145,10.828,20.27,10.668z M19.042,15.684c-3.752,0-6.793-3.04-6.793-6.792c0-3.75,3.041-6.792,6.793-6.792
		c3.749,0,6.79,3.042,6.79,6.792C25.832,12.644,22.791,15.684,19.042,15.684z M18.694,12.075h0.613c0.026,0,0.053-0.001,0.078-0.001
		v1.048h1.078v-1.138c0.182-0.034,0.342-0.078,0.477-0.133c0.373-0.148,0.66-0.366,0.863-0.65c0.202-0.284,0.307-0.596,0.307-0.934
		c0-0.282-0.066-0.539-0.2-0.768c-0.138-0.23-0.313-0.408-0.543-0.537c-0.157-0.091-0.388-0.176-0.687-0.251
		c0.278-0.094,0.504-0.213,0.672-0.358c0.17-0.145,0.301-0.311,0.39-0.5c0.09-0.188,0.135-0.389,0.135-0.598
		c0-0.289-0.085-0.555-0.253-0.797c-0.17-0.241-0.414-0.427-0.729-0.557c-0.123-0.051-0.271-0.087-0.43-0.118V4.66h-1.077v1.047
		h-0.691V4.66h-1.079v1.047h-1.646v0.881h0.252c0.168,0,0.279,0.015,0.34,0.045c0.059,0.03,0.101,0.072,0.125,0.123
		c0.024,0.052,0.035,0.173,0.035,0.361v3.55c0,0.186-0.011,0.305-0.035,0.357c-0.024,0.055-0.066,0.095-0.125,0.123
		c-0.061,0.029-0.172,0.043-0.34,0.043h-0.252v0.881h1.646v1.047h1.079v-1.044L18.694,12.075L18.694,12.075z M19.524,32.964
		c0.111-0.039,0.193-0.097,0.248-0.174c0.058-0.078,0.084-0.169,0.084-0.271c0-0.104-0.026-0.194-0.08-0.271
		c-0.051-0.075-0.129-0.128-0.229-0.16s-0.277-0.047-0.535-0.047h-0.44v0.979h0.44C19.244,33.021,19.414,33.002,19.524,32.964z
		 M19.603,33.677c-0.111-0.043-0.281-0.062-0.508-0.062h-0.521v0.869c0.002,0.125,0.006,0.197,0.014,0.219
		c0.01,0.025,0.025,0.046,0.047,0.055c0.023,0.012,0.082,0.018,0.18,0.018h0.295c0.171,0,0.312-0.018,0.425-0.049
		c0.112-0.031,0.207-0.098,0.284-0.197c0.08-0.1,0.119-0.221,0.119-0.36c0-0.119-0.026-0.219-0.084-0.303
		C19.797,33.782,19.715,33.719,19.603,33.677z M4.774,32.964c0.111-0.039,0.193-0.097,0.248-0.174
		c0.058-0.078,0.084-0.169,0.084-0.271c0-0.104-0.026-0.194-0.08-0.271c-0.051-0.075-0.129-0.128-0.229-0.16
		s-0.277-0.047-0.535-0.047h-0.44v0.979h0.44C4.494,33.021,4.664,33.002,4.774,32.964z M4.853,33.677
		c-0.111-0.043-0.281-0.062-0.508-0.062H3.823v0.869c0.002,0.125,0.006,0.197,0.014,0.219c0.01,0.025,0.025,0.046,0.047,0.055
		c0.023,0.012,0.082,0.018,0.18,0.018h0.295c0.171,0,0.312-0.018,0.425-0.049c0.112-0.031,0.207-0.098,0.284-0.197
		c0.08-0.1,0.119-0.221,0.119-0.36c0-0.119-0.026-0.219-0.084-0.303C5.047,33.782,4.965,33.719,4.853,33.677z M34.273,32.964
		c0.111-0.039,0.193-0.097,0.248-0.174c0.059-0.078,0.084-0.169,0.084-0.271c0-0.104-0.025-0.194-0.08-0.271
		c-0.051-0.075-0.129-0.128-0.229-0.16s-0.277-0.047-0.535-0.047h-0.439v0.979h0.439C33.994,33.021,34.164,33.002,34.273,32.964z
		 M34.354,33.677c-0.111-0.043-0.281-0.062-0.508-0.062h-0.521v0.869c0.002,0.125,0.006,0.197,0.014,0.219
		c0.01,0.025,0.025,0.046,0.047,0.055c0.023,0.012,0.082,0.018,0.18,0.018h0.295c0.172,0,0.312-0.018,0.426-0.049
		c0.111-0.031,0.207-0.098,0.283-0.197c0.08-0.1,0.119-0.221,0.119-0.36c0-0.119-0.025-0.219-0.084-0.303
		C34.547,33.782,34.465,33.719,34.354,33.677z M38.082,33.404c0,2.371-1.922,4.293-4.291,4.293c-2.371,0-4.293-1.922-4.293-4.293
		c0-2.146,1.582-3.91,3.645-4.228v-6.208H19.69v6.208c2.06,0.315,3.643,2.079,3.643,4.228c0,2.371-1.922,4.293-4.291,4.293
		c-2.371,0-4.293-1.922-4.293-4.293c0-2.146,1.582-3.91,3.643-4.227v-6.208H4.94v6.208c2.061,0.315,3.644,2.079,3.644,4.229
		c0,2.371-1.922,4.292-4.291,4.292C1.922,37.698,0,35.777,0,33.406c0-2.147,1.581-3.91,3.642-4.227v-6.857
		c0-0.359,0.291-0.65,0.649-0.65h14.101v-4.305c-4.387-0.335-7.854-4.003-7.854-8.475c0-4.689,3.815-8.507,8.508-8.507
		c4.688,0,8.504,3.816,8.504,8.507c0,4.473-3.469,8.142-7.854,8.475v4.304h14.101c0.359,0,0.648,0.291,0.648,0.649v6.857
		C36.5,29.494,38.082,31.257,38.082,33.404z M19.042,16.479c4.188,0,7.587-3.396,7.587-7.589c0-4.19-3.396-7.589-7.587-7.589
		c-4.191,0-7.59,3.398-7.59,7.589C11.452,13.083,14.851,16.479,19.042,16.479z M5.188,31.439V30.73h-0.68v0.662H4.071V30.73H3.39
		v0.662H2.351v0.559h0.157c0.107,0,0.179,0.009,0.216,0.027c0.036,0.02,0.062,0.045,0.077,0.078
		c0.017,0.032,0.023,0.108,0.023,0.229v2.242c0,0.117-0.009,0.191-0.023,0.228c-0.016,0.034-0.04,0.06-0.077,0.078
		s-0.107,0.026-0.216,0.026H2.351v0.558H3.39v0.662h0.682v-0.662h0.387c0.018,0,0.033-0.001,0.051-0.001v0.663h0.68v-0.72
		c0.115-0.021,0.218-0.051,0.304-0.084c0.233-0.094,0.416-0.23,0.543-0.411c0.129-0.181,0.194-0.376,0.194-0.591
		c0-0.178-0.043-0.34-0.127-0.483c-0.086-0.146-0.199-0.258-0.344-0.339c-0.1-0.059-0.244-0.112-0.434-0.159
		c0.178-0.062,0.318-0.135,0.426-0.228c0.108-0.092,0.189-0.194,0.244-0.313c0.057-0.119,0.086-0.246,0.086-0.378
		c0-0.184-0.055-0.352-0.16-0.504c-0.107-0.152-0.262-0.271-0.461-0.352C5.383,31.482,5.291,31.46,5.188,31.439z M19.938,31.439
		V30.73h-0.68v0.662h-0.437V30.73h-0.682v0.662h-1.038v0.559h0.157c0.107,0,0.179,0.009,0.216,0.027
		c0.036,0.02,0.062,0.045,0.077,0.078c0.017,0.032,0.023,0.108,0.023,0.229v2.242c0,0.117-0.009,0.191-0.023,0.228
		c-0.016,0.034-0.04,0.06-0.077,0.078s-0.107,0.026-0.216,0.026h-0.157v0.558h1.039v0.662h0.682v-0.662h0.387
		c0.018,0,0.033-0.001,0.051-0.001v0.663h0.68v-0.72c0.115-0.021,0.218-0.051,0.304-0.084c0.232-0.094,0.416-0.23,0.543-0.411
		c0.129-0.181,0.193-0.376,0.193-0.591c0-0.178-0.043-0.34-0.127-0.483c-0.086-0.146-0.199-0.258-0.344-0.339
		c-0.1-0.059-0.244-0.112-0.434-0.159c0.178-0.062,0.318-0.135,0.426-0.228c0.107-0.092,0.189-0.194,0.244-0.313
		c0.057-0.119,0.086-0.246,0.086-0.378c0-0.184-0.055-0.352-0.16-0.504c-0.107-0.152-0.262-0.271-0.461-0.352
		C20.133,31.482,20.041,31.46,19.938,31.439z M35.729,34.273c0-0.179-0.043-0.34-0.127-0.484c-0.086-0.146-0.199-0.258-0.344-0.339
		c-0.1-0.06-0.244-0.112-0.434-0.159c0.178-0.061,0.318-0.135,0.426-0.227s0.189-0.195,0.244-0.314
		c0.057-0.119,0.086-0.246,0.086-0.378c0-0.185-0.055-0.353-0.16-0.504c-0.107-0.152-0.262-0.271-0.461-0.353
		c-0.078-0.031-0.17-0.055-0.271-0.074v-0.709h-0.68v0.662H33.57v-0.662h-0.682v0.662h-1.037v0.558h0.156
		c0.107,0,0.18,0.009,0.217,0.026c0.035,0.021,0.062,0.047,0.076,0.078c0.018,0.033,0.023,0.109,0.023,0.229v2.243
		c0,0.115-0.01,0.19-0.023,0.227c-0.016,0.034-0.039,0.061-0.076,0.078s-0.107,0.027-0.217,0.027h-0.156v0.557h1.039v0.662h0.682
		v-0.662h0.387c0.018,0,0.033-0.001,0.051-0.001v0.663h0.68v-0.719c0.115-0.021,0.219-0.051,0.305-0.084
		c0.232-0.094,0.416-0.23,0.543-0.411C35.664,34.683,35.729,34.486,35.729,34.273z"/>
</g>
<g>
</g>
<g>
</g>
<g>
</g>
<g>
</g>
<g>
</g>
<g>
</g>
<g>
</g>
<g>
</g>
<g>
</g>
<g>
</g>
<g>
</g>
<g>
</g>
<g>
</g>
<g>
</g>
<g>
</g>
</svg>
