<?xml version="1.0" encoding="iso-8859-1"?>
<!-- Generator: Adobe Illustrator 16.0.0, SVG Export Plug-In . SVG Version: 6.00 Build 0)  -->
<!DOCTYPE svg PUBLIC "-//W3C//DTD SVG 1.1//EN" "http://www.w3.org/Graphics/SVG/1.1/DTD/svg11.dtd">
<svg version="1.1" id="Capa_1" xmlns="http://www.w3.org/2000/svg" xmlns:xlink="http://www.w3.org/1999/xlink" x="0px" y="0px"
	 width="35.086px" height="35.085px" viewBox="0 0 35.086 35.085" style="enable-background:new 0 0 35.086 35.085;"
	 xml:space="preserve">
<g>
	<path d="M23.768,16.313h0.525v-0.511h0.299c0.016,0,0.027,0,0.04,0v0.511h0.526v-0.556c0.087-0.019,0.166-0.036,0.23-0.063
		c0.18-0.071,0.321-0.181,0.422-0.318c0.099-0.135,0.147-0.286,0.147-0.453c0-0.137-0.031-0.264-0.099-0.376
		c-0.064-0.112-0.154-0.196-0.266-0.259c-0.074-0.045-0.188-0.086-0.334-0.123c0.137-0.046,0.246-0.104,0.329-0.176
		c0.084-0.069,0.146-0.151,0.188-0.244c0.043-0.092,0.065-0.188,0.065-0.289c0-0.143-0.043-0.271-0.125-0.391
		c-0.082-0.115-0.198-0.209-0.354-0.271c-0.061-0.024-0.133-0.042-0.207-0.058v-0.549h-0.523V12.7h-0.339v-0.512H23.77V12.7h-0.802
		v0.429h0.124c0.079,0,0.137,0.01,0.163,0.022c0.031,0.014,0.05,0.035,0.063,0.06c0.013,0.026,0.017,0.085,0.017,0.177v1.73
		c0,0.091-0.004,0.148-0.017,0.175c-0.014,0.026-0.032,0.046-0.063,0.062c-0.026,0.014-0.084,0.021-0.163,0.021h-0.124v0.429h0.802
		v0.509H23.768z M24.102,13.199h0.342c0.195,0,0.334,0.012,0.412,0.037s0.137,0.066,0.179,0.123c0.04,0.059,0.06,0.129,0.06,0.209
		s-0.021,0.148-0.064,0.207c-0.041,0.062-0.106,0.106-0.19,0.138c-0.086,0.028-0.216,0.044-0.396,0.044h-0.342V13.199L24.102,13.199
		z M24.102,14.414h0.401c0.177,0,0.308,0.017,0.394,0.049c0.086,0.033,0.15,0.08,0.193,0.145c0.044,0.064,0.062,0.143,0.062,0.233
		c0,0.106-0.03,0.199-0.09,0.277c-0.062,0.077-0.136,0.129-0.222,0.155c-0.086,0.021-0.194,0.032-0.327,0.032h-0.229
		c-0.074,0-0.12-0.001-0.139-0.013c-0.018-0.006-0.028-0.021-0.037-0.041c-0.008-0.016-0.01-0.071-0.012-0.166v-0.671H24.102z
		 M18.572,15.334c0.32,0.012,0.656,0.323,0.844,0.627c0.477,0.771,1.123,1.401,1.748,2.011l0.083,0.084
		c0.008,0.096-0.015,0.325-0.056,0.504l-0.008,0.077c0,0.494,0.397,0.9,0.892,0.9h1.53c0.318,0,0.604-0.172,0.758-0.435
		c0.193,0.008,0.379,0.008,0.568,0c0.158,0.263,0.441,0.435,0.76,0.435h1.535c0.488,0,0.885-0.406,0.885-0.9
		c-0.006-0.198,0.013-0.42,0.039-0.51c1.106-0.821,2.211-2.535,2.211-4.271c0-1.252-0.481-2.404-1.276-3.31
		c0.077-0.034,0.151-0.063,0.229-0.092c0.071-0.021,0.146-0.042,0.221-0.054c0.074-0.018,0.128-0.021,0.225-0.023
		c0.121-0.004,0.252,0.018,0.387,0.047c-0.024,0.09-0.041,0.178-0.043,0.273c-0.006,0.147,0.02,0.312,0.119,0.466
		c0.049,0.071,0.118,0.147,0.199,0.19c0.04,0.028,0.084,0.051,0.126,0.064l0.07,0.023l0.015,0.006l0.037,0.004l0.025,0.005
		c0.02,0.003,0.029,0.005,0.058,0.007h0.083c0.055-0.004,0.107-0.012,0.168-0.034c0.059-0.02,0.117-0.062,0.164-0.114
		c0.043-0.049,0.074-0.11,0.092-0.166c0.03-0.115,0.02-0.215,0.002-0.31c-0.021-0.092-0.051-0.181-0.092-0.261l-0.005-0.008
		l-0.006-0.01c-0.097-0.132-0.22-0.244-0.354-0.314c-0.078-0.049-0.16-0.086-0.244-0.119c0.01-0.012,0.017-0.029,0.027-0.042
		c0.01-0.022,0.027-0.038,0.042-0.056c0.015-0.019,0.031-0.038,0.043-0.049c0.013-0.008,0.028-0.018,0.04-0.033l0.073-0.036
		c0.071-0.028,0.161-0.043,0.248-0.043c0.176,0,0.341,0.043,0.481,0.096c0.141,0.048,0.258,0.104,0.348,0.151
		c0.095,0.048,0.162,0.094,0.205,0.121c0.045,0.031,0.07,0.049,0.07,0.049s-0.021-0.021-0.062-0.062
		c-0.04-0.033-0.104-0.091-0.188-0.152c-0.09-0.066-0.199-0.141-0.341-0.211s-0.312-0.141-0.521-0.164
		c-0.105-0.01-0.221-0.008-0.344,0.035c-0.023,0.008-0.045,0.012-0.076,0.031c-0.028,0.016-0.062,0.032-0.088,0.055
		c-0.052,0.041-0.102,0.082-0.143,0.135c-0.023,0.029-0.044,0.061-0.064,0.096c-0.172-0.045-0.34-0.078-0.539-0.074l-0.131,0.008
		l-0.148,0.021c-0.098,0.021-0.189,0.042-0.274,0.071c-0.147,0.054-0.28,0.116-0.405,0.188c-1.045-1.021-2.524-1.665-4.166-1.665
		c-0.644,0-1.273,0.098-1.879,0.291c-0.44-0.191-1.209-0.453-2.062-0.453c-0.162,0-0.325,0.01-0.479,0.029L20.197,8.47
		c-0.08,0.017-0.475,0.119-0.592,0.479c-0.055,0.16-0.059,0.423,0.211,0.734c0.05,0.073,0.289,0.422,0.463,0.789
		c-0.227,0.26-0.401,0.541-0.575,0.814c-0.082,0.134-0.164,0.264-0.254,0.398c-0.413,0.598-0.946,0.661-1.159,0.661
		c-0.043,0-0.068-0.002-0.076-0.005l-0.382-0.046l-0.021,0.381c-0.024,0.523-0.06,0.861-0.094,1.153
		c-0.02,0.156-0.037,0.295-0.046,0.438c-0.024,0.33,0.046,0.598,0.211,0.78C18.117,15.312,18.447,15.326,18.572,15.334z
		 M30.425,10.515c0.188,0.079,0.339,0.182,0.388,0.252c0.057,0.106,0.082,0.233,0.067,0.291c-0.009,0.027-0.007,0.022-0.026,0.033
		c-0.006,0.007-0.027,0.01-0.045,0.012c-0.011,0-0.018,0-0.024,0.004l-0.058-0.006l-0.018-0.003l-0.007-0.002l-0.037-0.011
		c-0.015-0.003-0.022-0.005-0.035-0.012l-0.03-0.014c-0.019-0.014-0.039-0.021-0.053-0.041c-0.018-0.015-0.033-0.029-0.044-0.051
		c-0.053-0.07-0.086-0.178-0.088-0.285C30.414,10.625,30.415,10.569,30.425,10.515z M22.814,10.254
		c0.582-0.259,1.185-0.393,1.795-0.393c1.843,0,3.162,1.211,3.172,1.226c0.029,0.024,0.044,0.06,0.044,0.097
		c0.003,0.036-0.013,0.072-0.038,0.101c-0.027,0.026-0.062,0.042-0.098,0.042l-0.013-0.002c-0.032,0-0.063-0.014-0.089-0.038
		c-0.012-0.011-1.257-1.149-2.979-1.149c-0.569,0-1.135,0.124-1.676,0.368c-0.021,0.008-0.039,0.011-0.061,0.011
		c-0.053,0-0.104-0.029-0.126-0.076c-0.017-0.033-0.021-0.069-0.006-0.104C22.754,10.299,22.781,10.271,22.814,10.254z
		 M24.375,11.353c1.594,0,2.889,1.269,2.889,2.834s-1.293,2.836-2.889,2.836c-1.598,0-2.889-1.271-2.889-2.836
		C21.486,12.621,22.777,11.353,24.375,11.353z M10.958,6.899c-0.028,0-0.054,0.008-0.081,0.008
		c-0.082-0.002-0.162-0.008-0.245-0.008H10.958z M10.759,19.417c0.01,0,0.021-0.002,0.031-0.002c0.015,0,0.028,0.002,0.042,0.002
		H10.759z M15.363,14.804c-0.709,2.605-2.838,4.532-4.573,4.61c-1.903-0.041-3.777-2.001-4.501-4.621
		c-0.012,0.004-0.021,0.016-0.032,0.018c-0.339,0.058-0.689-0.35-0.783-0.906c-0.095-0.559,0.103-1.057,0.44-1.114
		c0.024-0.004,0.048,0.012,0.074,0.013c-0.15-4.035,2.23-5.885,4.889-5.896c2.579,0.066,4.626,1.586,4.724,5.896
		c0.021,0,0.042-0.014,0.064-0.011c0.338,0.059,0.535,0.557,0.44,1.115C16.016,14.44,15.689,14.826,15.363,14.804z M35.086,24.441
		V3.567h-32.5v18.125C0.975,22.761,0,24.415,0,26.898h13.301l-3.458,6.069l1.737,0.99l4.023-7.06h5.978
		c0-0.008-0.001-0.014-0.001-0.021h0.479l4.034,7.08l1.737-0.99l-3.471-6.09h4.478v-2H21.32c-0.043-0.149-0.09-0.295-0.141-0.438
		h13.905L35.086,24.441L35.086,24.441z M11.957,24.879l-0.381-3.065l0.597-0.488h-1.445H9.407l0.597,0.488l-0.381,3.065H9.616
		l-2.407-4.717c-0.943,0.127-1.821,0.319-2.624,0.588V5.565h28.5v16.875H19.913c-1.288-1.279-3.233-1.967-5.541-2.277l-2.409,4.717
		L11.957,24.879L11.957,24.879z M22.336,3.128h-7v-2h7V3.128z"/>
</g>
<g>
</g>
<g>
</g>
<g>
</g>
<g>
</g>
<g>
</g>
<g>
</g>
<g>
</g>
<g>
</g>
<g>
</g>
<g>
</g>
<g>
</g>
<g>
</g>
<g>
</g>
<g>
</g>
<g>
</g>
</svg>
