<?xml version="1.0" encoding="iso-8859-1"?>
<!-- Generator: Adobe Illustrator 16.0.0, SVG Export Plug-In . SVG Version: 6.00 Build 0)  -->
<!DOCTYPE svg PUBLIC "-//W3C//DTD SVG 1.1//EN" "http://www.w3.org/Graphics/SVG/1.1/DTD/svg11.dtd">
<svg version="1.1" id="Capa_1" xmlns="http://www.w3.org/2000/svg" xmlns:xlink="http://www.w3.org/1999/xlink" x="0px" y="0px"
	 width="38.251px" height="38.251px" viewBox="0 0 38.251 38.251" style="enable-background:new 0 0 38.251 38.251;"
	 xml:space="preserve">
<g>
	<path d="M21.384,19.342h1.688v-1.645h0.962c0.045,0,0.086,0,0.127,0v1.645h1.688V17.56c0.284-0.055,0.534-0.125,0.746-0.211
		c0.584-0.232,1.036-0.572,1.354-1.018c0.319-0.449,0.479-0.938,0.479-1.467c0-0.442-0.105-0.844-0.316-1.205
		c-0.207-0.358-0.49-0.641-0.85-0.84c-0.248-0.143-0.607-0.273-1.074-0.395c0.436-0.146,0.787-0.334,1.053-0.561
		c0.268-0.229,0.471-0.491,0.607-0.785c0.145-0.297,0.217-0.608,0.217-0.938c0-0.453-0.133-0.871-0.4-1.25
		c-0.27-0.381-0.648-0.671-1.146-0.873c-0.188-0.076-0.418-0.138-0.67-0.187V6.068h-1.688v1.645h-1.088V6.068h-1.689v1.645h-2.579
		v1.378h0.391c0.263,0,0.443,0.024,0.533,0.073c0.092,0.047,0.16,0.113,0.199,0.195c0.039,0.078,0.057,0.269,0.057,0.564v5.567
		c0,0.291-0.018,0.477-0.057,0.561c-0.039,0.083-0.107,0.147-0.199,0.195c-0.09,0.044-0.27,0.065-0.533,0.065h-0.391v1.379h2.578
		V19.342z M22.456,9.322h1.094c0.64,0,1.084,0.041,1.332,0.121c0.246,0.078,0.438,0.211,0.565,0.396
		c0.134,0.188,0.195,0.414,0.195,0.677c0,0.25-0.067,0.473-0.207,0.666c-0.139,0.194-0.344,0.34-0.617,0.432
		c-0.272,0.099-0.696,0.146-1.271,0.146h-1.094V9.322H22.456z M22.456,13.228h1.289c0.569,0,0.987,0.053,1.266,0.156
		c0.275,0.105,0.486,0.26,0.621,0.467c0.14,0.204,0.211,0.452,0.211,0.752c0,0.348-0.1,0.645-0.297,0.896
		c-0.194,0.247-0.433,0.411-0.711,0.489c-0.276,0.078-0.629,0.119-1.054,0.119h-0.729c-0.242,0-0.393-0.016-0.447-0.041
		c-0.057-0.024-0.094-0.071-0.119-0.139c-0.018-0.054-0.028-0.23-0.03-0.539V13.228L22.456,13.228z M38.251,14.488
		c0,1.796-1.457,3.252-3.252,3.252c-0.603,0-1.158-0.174-1.642-0.459l-7.768,7.769c0.051,0.229,0.084,0.47,0.084,0.716
		c0,1.795-1.457,3.252-3.254,3.252c-1.795,0-3.251-1.457-3.251-3.252c0-0.279,0.046-0.548,0.111-0.806l-3.62-3.194
		c-0.587,0.565-1.382,0.92-2.261,0.92c-0.592,0-1.139-0.17-1.615-0.447l-5.492,5.563c0.131,0.353,0.213,0.729,0.213,1.128
		c0,1.797-1.456,3.252-3.252,3.252S0,30.728,0,28.931c0-1.796,1.457-3.253,3.253-3.253c0.663,0,1.277,0.201,1.792,0.541l5.392-5.461
		c-0.182-0.405-0.287-0.854-0.287-1.325c0-1.796,1.455-3.252,3.252-3.252c1.795,0,3.252,1.456,3.252,3.252
		c0,0.17-0.023,0.334-0.049,0.497l3.769,3.328c0.562-0.459,1.269-0.746,2.049-0.746c0.804,0,1.527,0.304,2.095,0.783l7.506-7.504
		c-0.176-0.397-0.275-0.838-0.275-1.302c0-1.797,1.457-3.254,3.252-3.254C36.796,11.234,38.251,12.691,38.251,14.488z"/>
</g>
<g>
</g>
<g>
</g>
<g>
</g>
<g>
</g>
<g>
</g>
<g>
</g>
<g>
</g>
<g>
</g>
<g>
</g>
<g>
</g>
<g>
</g>
<g>
</g>
<g>
</g>
<g>
</g>
<g>
</g>
</svg>
