<?xml version="1.0" encoding="iso-8859-1"?>
<!-- Generator: Adobe Illustrator 16.0.0, SVG Export Plug-In . SVG Version: 6.00 Build 0)  -->
<!DOCTYPE svg PUBLIC "-//W3C//DTD SVG 1.1//EN" "http://www.w3.org/Graphics/SVG/1.1/DTD/svg11.dtd">
<svg version="1.1" id="Capa_1" xmlns="http://www.w3.org/2000/svg" xmlns:xlink="http://www.w3.org/1999/xlink" x="0px" y="0px"
	 width="34.678px" height="34.678px" viewBox="0 0 34.678 34.678" style="enable-background:new 0 0 34.678 34.678;"
	 xml:space="preserve">
<g>
	<path d="M17.316,30.579h-0.387V29.72h0.387c0.226,0,0.381,0.017,0.469,0.042c0.087,0.027,0.156,0.074,0.201,0.143
		c0.045,0.063,0.069,0.144,0.069,0.235c0,0.089-0.024,0.171-0.073,0.236c-0.047,0.066-0.121,0.119-0.22,0.152
		C17.667,30.564,17.519,30.579,17.316,30.579z M17.833,31.153c-0.099-0.037-0.248-0.058-0.447-0.058h-0.457v0.765
		c0.001,0.107,0.005,0.172,0.012,0.189c0.009,0.022,0.022,0.039,0.041,0.048c0.021,0.011,0.072,0.017,0.157,0.017h0.259
		c0.149,0,0.272-0.017,0.372-0.043c0.1-0.027,0.182-0.086,0.25-0.172c0.068-0.088,0.104-0.194,0.104-0.317
		c0-0.104-0.023-0.19-0.074-0.267C18.003,31.243,17.931,31.191,17.833,31.153z M4.833,30.528c0.098-0.033,0.17-0.086,0.217-0.152
		c0.05-0.065,0.074-0.147,0.074-0.236c0-0.094-0.023-0.172-0.07-0.235c-0.044-0.066-0.113-0.113-0.2-0.143
		c-0.087-0.027-0.244-0.042-0.469-0.042H3.998v0.859h0.387C4.586,30.579,4.735,30.564,4.833,30.528z M4.899,31.153
		c-0.098-0.037-0.247-0.058-0.445-0.058H3.998v0.765C4,31.968,4.002,32.032,4.009,32.05c0.009,0.022,0.022,0.039,0.042,0.048
		c0.02,0.011,0.072,0.017,0.157,0.017h0.258c0.149,0,0.273-0.017,0.372-0.043c0.1-0.027,0.182-0.086,0.25-0.172
		c0.07-0.088,0.104-0.194,0.104-0.317c0-0.104-0.024-0.19-0.074-0.267C5.07,31.243,4.999,31.191,4.899,31.153z M30.696,30.528
		c0.098-0.033,0.17-0.086,0.219-0.152c0.049-0.065,0.072-0.147,0.072-0.236c0-0.094-0.023-0.172-0.07-0.235
		c-0.043-0.066-0.113-0.113-0.199-0.143c-0.088-0.025-0.244-0.042-0.469-0.042H29.86v0.859h0.389
		C30.45,30.579,30.599,30.564,30.696,30.528z M30.765,31.153c-0.098-0.037-0.247-0.058-0.446-0.058h-0.457v0.765
		c0.002,0.107,0.006,0.172,0.013,0.189c0.01,0.022,0.022,0.039,0.041,0.048c0.021,0.011,0.071,0.017,0.157,0.017h0.259
		c0.149,0,0.272-0.017,0.372-0.043c0.101-0.027,0.183-0.086,0.25-0.172c0.07-0.088,0.104-0.194,0.104-0.317
		c0-0.104-0.023-0.19-0.074-0.267C30.936,31.243,30.862,31.191,30.765,31.153z M34.034,30.914c0,2.079-1.686,3.764-3.762,3.764
		c-2.078,0-3.764-1.685-3.764-3.764c0-1.854,1.346-3.39,3.113-3.697v-5.37H17.989v5.37c1.768,0.311,3.113,1.842,3.113,3.697
		c0,2.079-1.686,3.764-3.763,3.764c-2.079,0-3.764-1.685-3.764-3.764c0-1.854,1.346-3.388,3.113-3.697v-5.37H5.055v5.37
		c1.767,0.311,3.115,1.841,3.115,3.697c0,2.079-1.686,3.764-3.763,3.764c-2.079,0-3.764-1.685-3.764-3.764
		c0-1.854,1.345-3.388,3.112-3.697v-6.021c0-0.359,0.291-0.65,0.65-0.65h12.284v-1.678H7.16c0-4.127,2.842-5.823,6.801-6.355
		l2.276,4.459l0.361-2.9l-0.563-0.461h1.246h1.365l-0.563,0.461l0.36,2.9l2.276-4.459c3.959,0.532,6.802,2.229,6.802,6.355h-9.529
		v1.678h12.283c0.358,0,0.649,0.291,0.649,0.65v6.021C32.689,27.527,34.034,29.061,34.034,30.914z M5.195,29.193v-0.624H4.599v0.58
		H4.216v-0.58H3.618v0.58H2.708v0.486h0.139c0.094,0,0.156,0.012,0.188,0.026c0.033,0.018,0.055,0.039,0.068,0.068
		c0.014,0.027,0.021,0.096,0.021,0.197v1.969c0,0.103-0.008,0.17-0.021,0.197c-0.013,0.029-0.036,0.053-0.068,0.068
		c-0.033,0.016-0.094,0.022-0.188,0.022H2.708v0.487h0.911v0.58h0.598v-0.58h0.338c0.016,0,0.029-0.001,0.045-0.001v0.581h0.596
		v-0.629c0.101-0.021,0.189-0.045,0.265-0.075c0.205-0.083,0.365-0.203,0.476-0.359c0.113-0.156,0.172-0.33,0.172-0.518
		c0-0.155-0.038-0.299-0.111-0.426c-0.075-0.127-0.175-0.226-0.302-0.298c-0.087-0.051-0.214-0.099-0.38-0.142
		c0.156-0.052,0.279-0.116,0.373-0.196c0.094-0.08,0.167-0.172,0.214-0.276c0.049-0.104,0.075-0.215,0.075-0.33
		c0-0.161-0.048-0.308-0.14-0.441c-0.094-0.134-0.229-0.234-0.405-0.309C5.365,29.232,5.284,29.211,5.195,29.193z M18.128,29.193
		v-0.624h-0.596v0.58h-0.383v-0.58h-0.598v0.58H15.64v0.486h0.139c0.094,0,0.156,0.012,0.188,0.026
		c0.032,0.018,0.055,0.039,0.068,0.068c0.014,0.027,0.021,0.096,0.021,0.197v1.969c0,0.103-0.007,0.17-0.021,0.197
		c-0.014,0.029-0.036,0.053-0.068,0.068c-0.033,0.016-0.094,0.022-0.188,0.022H15.64v0.487h0.911v0.58h0.598v-0.58h0.338
		c0.016,0,0.029-0.001,0.045-0.001v0.581h0.596v-0.629c0.103-0.021,0.189-0.045,0.267-0.075c0.204-0.083,0.364-0.203,0.478-0.359
		c0.112-0.156,0.17-0.33,0.17-0.518c0-0.155-0.037-0.299-0.111-0.426s-0.176-0.226-0.301-0.298
		c-0.088-0.051-0.213-0.099-0.381-0.142c0.155-0.052,0.278-0.116,0.373-0.196c0.094-0.08,0.166-0.172,0.215-0.276
		c0.049-0.104,0.073-0.215,0.073-0.33c0-0.161-0.047-0.308-0.141-0.441c-0.095-0.134-0.229-0.234-0.404-0.309
		C18.298,29.232,18.218,29.211,18.128,29.193z M31.974,31.677c0-0.153-0.038-0.299-0.11-0.426c-0.075-0.127-0.176-0.227-0.303-0.297
		c-0.087-0.051-0.214-0.098-0.38-0.141c0.156-0.054,0.279-0.117,0.373-0.197c0.095-0.08,0.166-0.173,0.216-0.277
		c0.049-0.104,0.073-0.215,0.073-0.33c0-0.161-0.047-0.309-0.14-0.44c-0.095-0.133-0.229-0.235-0.403-0.31
		c-0.069-0.026-0.149-0.048-0.237-0.063v-0.623h-0.597v0.58h-0.385v-0.58h-0.598v0.58h-0.912v0.485h0.139
		c0.096,0,0.156,0.013,0.189,0.026c0.031,0.018,0.055,0.04,0.066,0.067c0.016,0.028,0.021,0.096,0.021,0.198v1.97
		c0,0.102-0.006,0.168-0.021,0.196c-0.014,0.029-0.035,0.054-0.066,0.068c-0.033,0.016-0.096,0.023-0.189,0.023h-0.139v0.486h0.912
		v0.58h0.598v-0.58h0.338c0.017,0,0.029-0.001,0.045-0.001v0.581h0.597v-0.629c0.103-0.021,0.19-0.045,0.266-0.075
		c0.205-0.083,0.365-0.203,0.478-0.358C31.915,32.036,31.974,31.862,31.974,31.677z M17.19,0c0.078-0.001,0.154,0.005,0.231,0.006
		C17.447,0.006,17.472,0,17.499,0H17.19z M17.379,11.81c-0.014,0-0.026-0.003-0.04-0.003c-0.01,0-0.02,0.003-0.03,0.003H17.379z
		 M13.063,7.464c0.01-0.002,0.018-0.014,0.029-0.018c0.683,2.472,2.451,4.32,4.247,4.359c1.636-0.072,3.645-1.891,4.314-4.349
		c0.307,0.021,0.615-0.345,0.701-0.849c0.088-0.527-0.098-0.996-0.416-1.053c-0.021-0.003-0.041,0.01-0.062,0.01
		c-0.093-4.064-2.021-5.498-4.457-5.562c-2.508,0.012-4.753,1.756-4.612,5.563c-0.024-0.002-0.047-0.018-0.069-0.013
		c-0.319,0.056-0.505,0.524-0.416,1.052C12.413,7.134,12.742,7.519,13.063,7.464z"/>
</g>
<g>
</g>
<g>
</g>
<g>
</g>
<g>
</g>
<g>
</g>
<g>
</g>
<g>
</g>
<g>
</g>
<g>
</g>
<g>
</g>
<g>
</g>
<g>
</g>
<g>
</g>
<g>
</g>
<g>
</g>
</svg>
