<?xml version="1.0" encoding="iso-8859-1"?>
<!-- Generator: Adobe Illustrator 16.0.0, SVG Export Plug-In . SVG Version: 6.00 Build 0)  -->
<!DOCTYPE svg PUBLIC "-//W3C//DTD SVG 1.1//EN" "http://www.w3.org/Graphics/SVG/1.1/DTD/svg11.dtd">
<svg version="1.1" id="Capa_1" xmlns="http://www.w3.org/2000/svg" xmlns:xlink="http://www.w3.org/1999/xlink" x="0px" y="0px"
	 width="37.355px" height="37.355px" viewBox="0 0 37.355 37.355" style="enable-background:new 0 0 37.355 37.355;"
	 xml:space="preserve">
<g>
	<path d="M8.952,24.31c0.14,0.239,0.059,0.546-0.182,0.685c-0.079,0.047-0.165,0.068-0.251,0.068c-0.172,0-0.34-0.09-0.433-0.25
		c-0.538-0.926-0.951-1.918-1.229-2.949c-0.071-0.267,0.087-0.541,0.353-0.611c0.266-0.071,0.541,0.087,0.613,0.354
		C8.079,22.55,8.458,23.46,8.952,24.31z M10.71,10.039c-0.194-0.194-0.512-0.194-0.706,0.002c-0.755,0.759-1.407,1.612-1.939,2.537
		c-0.138,0.239-0.055,0.545,0.185,0.683c0.078,0.045,0.164,0.066,0.25,0.066c0.173,0,0.341-0.09,0.434-0.251
		c0.488-0.849,1.088-1.633,1.781-2.33C10.907,10.55,10.907,10.234,10.71,10.039z M13.073,28.418c-0.85-0.49-1.634-1.09-2.33-1.784
		c-0.192-0.194-0.512-0.194-0.707,0.001c-0.193,0.196-0.193,0.512,0.002,0.707c0.758,0.755,1.61,1.409,2.535,1.941
		c0.08,0.045,0.166,0.066,0.25,0.066c0.174,0,0.342-0.09,0.435-0.25C13.394,28.861,13.312,28.555,13.073,28.418z M7.44,18.674
		c0-0.979,0.126-1.95,0.374-2.886c0.07-0.267-0.089-0.541-0.354-0.611c-0.271-0.07-0.54,0.089-0.611,0.355
		c-0.271,1.02-0.407,2.077-0.407,3.142v0.024c0,0.276,0.224,0.488,0.5,0.488C7.218,19.186,7.44,18.95,7.44,18.674z M18.681,29.914
		c-0.98,0-1.956-0.127-2.898-0.377c-0.271-0.069-0.541,0.09-0.61,0.354c-0.07,0.267,0.088,0.541,0.354,0.611
		c1.025,0.271,2.088,0.409,3.154,0.409h0.012c0.276,0,0.494-0.225,0.494-0.5C19.188,30.138,18.956,29.914,18.681,29.914z
		 M18.681,7.434c0.975,0,1.942,0.125,2.874,0.371c0.043,0.011,0.086,0.017,0.129,0.017c0.224,0,0.424-0.148,0.482-0.373
		c0.07-0.267-0.088-0.541-0.355-0.611c-1.016-0.268-2.067-0.404-3.128-0.404h-0.035c-0.275,0-0.482,0.224-0.482,0.5
		C18.163,7.21,18.405,7.434,18.681,7.434z M12.782,9.021c0.086,0,0.174-0.021,0.252-0.068c0.85-0.495,1.76-0.875,2.705-1.13
		c0.267-0.072,0.424-0.347,0.353-0.613c-0.071-0.266-0.347-0.424-0.612-0.353c-1.031,0.278-2.023,0.693-2.947,1.231
		c-0.238,0.139-0.319,0.445-0.181,0.684C12.444,8.932,12.61,9.021,12.782,9.021z M29.102,24.109
		c-0.236-0.138-0.543-0.058-0.683,0.184c-0.489,0.848-1.092,1.63-1.786,2.324c-0.195,0.195-0.195,0.514,0,0.707
		c0.098,0.1,0.225,0.146,0.354,0.146s0.256-0.049,0.354-0.146c0.758-0.756,1.412-1.607,1.945-2.531
		C29.424,24.553,29.342,24.246,29.102,24.109z M30.014,16.091c0.043,0,0.088-0.005,0.131-0.018c0.268-0.073,0.424-0.347,0.352-0.614
		c-0.279-1.03-0.695-2.021-1.234-2.945c-0.141-0.239-0.447-0.318-0.684-0.18c-0.238,0.139-0.32,0.445-0.182,0.684
		c0.496,0.849,0.877,1.759,1.135,2.704C29.592,15.945,29.792,16.091,30.014,16.091z M30.422,18.15c-0.277,0-0.5,0.248-0.5,0.524
		c0,0.986-0.13,1.965-0.382,2.908c-0.069,0.267,0.088,0.541,0.354,0.611c0.043,0.013,0.088,0.018,0.129,0.018
		c0.223,0,0.424-0.146,0.484-0.371c0.272-1.027,0.411-2.092,0.411-3.195l-0.5-0.019h0.5C30.919,18.35,30.697,18.15,30.422,18.15z
		 M26.954,10.843c0.129,0,0.256-0.049,0.354-0.148c0.194-0.196,0.192-0.513-0.002-0.707c-0.763-0.754-1.615-1.406-2.541-1.937
		c-0.24-0.137-0.545-0.056-0.683,0.185c-0.139,0.24-0.055,0.545,0.185,0.683c0.852,0.487,1.637,1.086,2.334,1.779
		C26.701,10.795,26.827,10.843,26.954,10.843z M24.309,28.406c-0.851,0.492-1.762,0.871-2.707,1.125
		c-0.269,0.069-0.426,0.346-0.354,0.61c0.062,0.224,0.263,0.371,0.481,0.371c0.043,0,0.086-0.005,0.129-0.017
		c1.031-0.276,2.025-0.688,2.951-1.227c0.238-0.139,0.32-0.443,0.183-0.684C24.852,28.348,24.544,28.268,24.309,28.406z
		 M21.262,26.34h-1.953v-1.9c-0.049,0-0.094,0.002-0.144,0.002h-1.112v1.897H16.1v-1.897h-2.979v-1.596h0.455
		c0.304,0,0.508-0.025,0.615-0.079c0.108-0.053,0.184-0.126,0.227-0.223c0.047-0.099,0.066-0.313,0.066-0.651v-6.434
		c0-0.34-0.021-0.559-0.066-0.652c-0.043-0.094-0.117-0.169-0.227-0.223c-0.107-0.055-0.312-0.083-0.615-0.083h-0.455v-1.595H16.1
		v-1.899h1.953v1.899h1.255v-1.899h1.953v2.036c0.287,0.055,0.551,0.123,0.772,0.215c0.573,0.233,1.015,0.569,1.323,1.007
		c0.308,0.439,0.462,0.919,0.462,1.443c0,0.38-0.082,0.742-0.244,1.084c-0.164,0.341-0.397,0.642-0.705,0.904
		c-0.31,0.263-0.713,0.479-1.215,0.65c0.539,0.137,0.952,0.289,1.237,0.455c0.412,0.23,0.742,0.555,0.984,0.973
		c0.242,0.416,0.363,0.881,0.363,1.395c0,0.609-0.188,1.176-0.555,1.688c-0.367,0.519-0.892,0.909-1.564,1.18
		c-0.246,0.1-0.533,0.179-0.861,0.242v2.062H21.262z M17.338,17.578h1.264c0.664,0,1.152-0.054,1.468-0.165
		c0.318-0.111,0.555-0.277,0.717-0.5c0.16-0.222,0.236-0.481,0.236-0.774c0-0.304-0.072-0.562-0.225-0.776
		c-0.15-0.216-0.371-0.369-0.658-0.459c-0.285-0.092-0.799-0.137-1.54-0.137h-1.264v2.811H17.338z M21.249,20.861
		c0-0.342-0.08-0.631-0.237-0.871c-0.162-0.232-0.398-0.414-0.722-0.537c-0.317-0.119-0.805-0.182-1.461-0.182h-1.491v2.5
		c0.006,0.354,0.019,0.56,0.041,0.619c0.026,0.076,0.071,0.131,0.137,0.162c0.063,0.028,0.233,0.045,0.515,0.045h0.842
		c0.491,0,0.896-0.045,1.217-0.137c0.322-0.09,0.598-0.279,0.822-0.566S21.249,21.264,21.249,20.861z M34.518,17.687
		c0.021,0.303-0.045,0.912,0.151,1.171c0.367,0.521,0.847,0.976,1.191,1.473c0.366,0.478,0.521,1.04,1.062,1.388
		c0.303,0.195-0.672,0.021-0.889-0.109c-0.455-0.26-0.891-0.584-1.172-1.062c-0.131-0.195-0.193-0.41-0.238-0.647
		c-0.021-0.109-0.021-0.197-0.043-0.307c-0.021-0.043,0-0.193-0.043-0.15c-0.088,0.064-0.021,0.803-0.043,0.955
		c-0.045,0.174,0.236,0.521,0.346,0.672c0.391,0.606,0.781,1.104,1.041,1.756c0.086,0.238,0.174,0.478,0.369,0.673
		c0.086,0.065,0.367,0.26,0.389,0.346c0.021,0.087-0.149-0.021-0.237-0.042c-0.759-0.152-1.365-0.605-1.732-1.302
		c-0.151-0.281-0.262-0.562-0.305-0.91c0-0.087,0-0.173,0-0.282c0-0.064,0.043-0.261,0.021-0.195
		c-0.043,0.218-0.26,0.826-0.195,1.041c0.066,0.261,0.261,0.543,0.392,0.781c0.326,0.606,0.586,1.148,0.804,1.821
		c0.106,0.323,0.26,0.606,0.521,0.866c0.131,0.131-0.563-0.129-0.761-0.238c-0.629-0.368-1.172-1.234-1.147-1.95
		c0-0.108,0.088-0.499,0.021-0.586c-0.062-0.108-0.043,0.218-0.086,0.326c-0.043,0.173-0.086,0.325-0.15,0.478
		c-0.107,0.368,0.236,0.934,0.391,1.256c0.348,0.848,0.434,1.757,0.953,2.537c0.021,0.021-0.564-0.193-0.736-0.324
		c-0.563-0.393-1.018-1.235-1.018-1.932c0-0.215,0.129-0.477,0.086-0.671c0-0.087-0.043,0.13-0.066,0.216
		c-0.043,0.109-0.106,0.239-0.149,0.349c-0.194,0.391-0.043,0.715,0.063,1.147c0.195,0.717,0.195,1.756,0.478,2.471
		c0.065,0.195,0.412,0.63,0.151,0.498c-1.041-0.52-1.539-1.732-1.235-2.883c0.194-0.648-0.435,0.543-0.39,0.868
		c0.086,0.63,0.238,1.192,0.281,1.82c0.021,0.606-0.043,1.149,0.195,1.67c0.172,0.368-0.174,0.021-0.283-0.088
		c-0.543-0.433-0.822-1.019-0.867-1.733c-0.02-0.346,0-0.629,0.109-0.91c0.043-0.15,0.26-0.5,0.131-0.369
		c-0.217,0.218-0.391,0.498-0.564,0.737c0,0,0,0,0.021,0c-0.086,0.087-0.021,0.435-0.021,0.562c0.043,0.847-0.043,1.758,0,2.579
		c0,0.197,0.021,0.412,0.088,0.607c0.021,0.066,0.13,0.219,0.064,0.195c-0.65-0.064-0.998-1.452-1.02-1.93
		c-0.021-0.498,0.434-1.432,0.281-1.279c-0.865,0.803-0.479,2.146-0.803,3.208c-0.107,0.304-0.154,0.585-0.107,0.932
		c0,0.13,0.107,0.499,0.021,0.392c-0.067-0.088-0.151-0.152-0.217-0.239c-0.651-0.692-0.651-1.974-0.22-2.772
		c0.044-0.089,0.089-0.175,0.152-0.238c0.066-0.065,0.215-0.239,0.152-0.195c-0.324,0.174-0.738,0.607-0.824,1.084
		c-0.131,0.605-0.195,1.234-0.369,1.799c-0.106,0.368-0.303,0.715-0.324,1.105c0,0.129,0.107,0.543,0.043,0.629
		c-0.043,0.087-0.106-0.152-0.174-0.217c-0.063-0.108-0.129-0.195-0.172-0.283c-0.305-0.541-0.305-1.234-0.152-1.885
		c0.087-0.369,0.261-0.606,0.498-0.89c0.086-0.087,0.324-0.26,0.218-0.237c-0.541,0.021-0.953,0.822-1.062,1.258
		c-0.154,0.521-0.283,1.041-0.479,1.562c-0.174,0.455-0.412,0.8-0.436,1.365c0,0.499-0.412-0.521-0.455-0.824
		c-0.062-0.585,0.086-1.147,0.324-1.625c0.108-0.218,0.803-0.823,0.5-0.673c-0.479,0.26-0.693,0.369-0.912,0.824
		c-0.367,0.845-0.865,1.669-1.213,2.515c-0.043,0.129-0.107,0.261-0.132,0.392c-0.021,0.107-0.021,0.412-0.062,0.369
		c-0.738-0.694-0.066-2.319,0.346-2.86c0.131-0.175,0.348-0.326,0.52-0.435c0.01-0.011,0.027-0.022,0.049-0.035
		c-0.477,0.197-0.828,0.291-1.108,0.75c-0.437,0.736-0.778,1.408-1.276,2.104c-0.152,0.217-0.283,0.456-0.369,0.715
		c-0.021,0.087,0,0.327-0.043,0.283c-0.22-0.195-0.24-0.848-0.22-1.15c0.066-0.585,0.369-1.3,0.824-1.666
		c0.174-0.132,0.521-0.238,0.647-0.412c0-0.022-0.062,0.021-0.104,0.043c-0.088,0-0.194,0.062-0.283,0.086
		c-0.477,0.174-0.604,0.194-0.909,0.629c-0.236,0.347-0.498,0.649-0.779,0.976c-0.305,0.37-0.607,0.735-0.889,1.104
		c-0.132,0.174-0.349,0.693-0.349,0.649c-0.26-1.127,0.192-2.21,1.19-2.797c0,0,0.021-0.021,0.043-0.021
		c0.107-0.065,0.193-0.109,0.306-0.151c0.03-0.013,0.092-0.027,0.137-0.038c-0.157,0.021-0.301,0.041-0.438,0.081
		c-0.781,0.217-1.021,0.759-1.713,1.431c-0.541,0.542-1.084,0.934-1.409,1.583c-0.022,0.021-0.045,0.064-0.066,0.087
		c-0.086-0.412-0.063-0.803,0.066-1.15c0.129-0.455,0.409-0.844,0.758-1.168c0.174-0.151,0.347-0.282,0.541-0.369
		c0.217-0.086,0.694-0.217,0.457-0.172c-0.349,0.021-0.738-0.023-0.998,0.15c-0.281,0.174-0.52,0.436-0.758,0.692
		c-0.131,0.131-0.262,0.262-0.412,0.369c-0.391,0.325-0.848,0.563-1.213,0.909c-0.045,0.021-0.066,0.043-0.109,0.089
		c-0.174,0.217-0.391,0.562-0.391,0.433c0-0.216,0-0.412,0.043-0.605c0.064-0.283,0.195-0.563,0.348-0.803
		c0.367-0.543,0.933-0.933,1.604-1.084c0.043-0.021,0.086-0.021,0.132-0.043c0.106-0.021,0.086-0.043,0-0.043
		c-0.24-0.021-0.935,0.043-1.084,0.151c-0.22,0.149-0.435,0.325-0.65,0.478c-0.283,0.217-0.543,0.434-0.846,0.607
		c-0.109,0.085-0.238,0.15-0.349,0.216c-0.369,0.193-0.735,0.392-1.019,0.759c-0.26,0.348-0.088-0.174-0.065-0.367
		c0.065-0.652,0.521-1.127,1.084-1.453c0.369-0.219,0.804-0.369,1.192-0.435c0.043,0,0.064-0.021,0.109-0.021
		c-0.045,0-0.066,0-0.109,0c-0.457-0.064-0.846,0.021-1.192,0.15c-0.649,0.239-1.17,0.674-1.908,0.955
		c-0.303,0.108-0.604,0.217-0.844,0.411c-0.088,0.063-0.349,0.349-0.369,0.325c-0.043-0.087,0.063-0.262,0.063-0.325
		c0.392-1.214,1.41-1.756,2.732-1.756c-0.412-0.108-0.846-0.304-1.236-0.149c-0.692,0.303-1.364,0.692-2.123,0.889
		c-0.305,0.063-0.606,0.129-0.868,0.324c-0.087,0.063-0.367,0.324-0.39,0.281c-0.021-0.064,0.064-0.238,0.086-0.324
		c0.435-1.15,1.648-1.584,2.861-1.477c-0.391-0.152-0.801-0.411-1.193-0.279c-0.735,0.237-1.407,0.541-2.188,0.672
		c-0.326,0.063-0.607,0.106-0.891,0.26c-0.107,0.043-0.435,0.26-0.435,0.236c0-0.086,0.089-0.236,0.132-0.304
		c0.563-1.126,1.776-1.43,2.971-1.213c-0.262-0.128-0.607-0.368-0.889-0.435c-0.521-0.086-1.304,0.283-1.82,0.369
		c-0.607,0.108-1.26,0.022-1.779,0.237c-0.389,0.175-0.389,0.13-0.129-0.194c0.715-0.953,2.102-1.258,3.188-0.717
		c-0.219-0.129-0.717-0.562-0.955-0.562c-0.867,0-1.69,0.304-2.602,0.149c-0.498-0.062-1.518,0.348-1.191-0.021
		c0.865-1.019,2.103-1.04,3.271-0.541c-0.238-0.175-0.477-0.347-0.715-0.541c-0.127-0.093-0.127-0.243-0.28-0.243
		c-0.672-0.088-1.43,0.043-2.104-0.066c-0.586-0.084-1.148-0.259-1.734-0.084c-0.281,0.063-0.129-0.021,0-0.175
		c0.91-1.041,2.516-0.694,3.492,0c-0.197-0.194-0.412-0.368-0.586-0.563c-0.088-0.086-0.217-0.323-0.217-0.194
		c0-0.173-0.349-0.151-0.5-0.173c-0.324-0.044-0.65-0.064-0.996-0.108c-0.693-0.063-1.301-0.39-2.019-0.39
		c-0.149-0.021-0.541,0.042-0.541,0.021c0.132-0.369,1.021-0.627,1.345-0.673c0.998-0.108,1.584,0.281,2.254,0.804
		c-0.217-0.26-0.435-0.693-0.693-0.867c-0.346-0.238-1.018-0.282-1.451-0.389c-0.674-0.152-1.258-0.543-1.951-0.651
		c-0.088-0.022-0.195-0.042-0.305-0.022c-0.064,0-0.26,0.065-0.215-0.021c0.15-0.325,1.039-0.498,1.408-0.479
		c1.062,0.021,1.627,0.521,2.299,1.257c-0.238-0.347-0.479-0.867-0.717-1.127c-0.41-0.39-1.322-0.455-1.863-0.672
		c-0.674-0.304-1.127-0.759-1.973-0.759c1.276-0.78,2.666-0.216,3.512,0.91c-0.152-0.302-0.283-0.759-0.5-1.019
		c-0.369-0.435-1.279-0.563-1.777-0.867c-0.65-0.368-1.039-0.779-1.842-0.889c1.279-0.562,2.752-0.087,3.381,1.172
		c-0.086-0.24-0.215-0.761-0.369-0.998c-0.195-0.283-0.779-0.543-1.084-0.715c-0.801-0.457-1.408-1.281-2.34-1.496
		c1.451-0.479,2.73,0.367,3.252,1.646c-0.088-0.325-0.131-0.804-0.303-1.128c-0.262-0.499-1.107-0.803-1.52-1.215
		c-0.541-0.521-0.91-0.996-1.582-1.258c1.104-0.279,2.104,0.24,2.711,1.129c0.149,0.216,0.172,0.498,0.303,0.736
		c-0.045-0.348-0.109-0.695-0.152-1.041c-0.064-0.412-1.018-0.996-1.279-1.301c-0.541-0.607-0.867-1.214-1.582-1.605
		c1.539-0.151,2.603,0.911,2.818,2.342c-0.021-0.368-0.043-0.716-0.043-1.105c-0.021-0.477-0.846-1.062-1.127-1.452
		c-0.455-0.629-0.715-1.279-1.41-1.735c1.15,0,2.039,0.673,2.428,1.692c0.109,0.239,0.066,0.542,0.152,0.801
		c0-0.346,0.15-0.932-0.021-1.213c-0.26-0.499-0.606-0.932-0.889-1.388c-0.391-0.671-0.541-1.366-1.193-1.908
		c1.498,0.174,2.254,1.366,2.254,2.906c0.045-0.369,0.263-0.998,0.134-1.322c-0.177-0.499-0.5-0.954-0.738-1.454
		c-0.346-0.693-0.392-1.43-1.021-1.994c1.041,0.239,1.91,1.063,2.037,2.168c0.023,0.281-0.041,0.563-0.041,0.801
		c0.086-0.324,0.172-0.65,0.281-0.953c0.021-0.542-0.391-1.215-0.586-1.733C2.78,11.1,2.78,10.384,2.303,9.713
		c1.344,0.499,1.973,1.864,1.537,3.317c0.176-0.435,0.521-0.934,0.414-1.388c-0.26-1.019-0.369-2.666-0.912-3.62
		c1.105,0.542,1.801,1.843,1.322,3.143c-0.15,0.455,0.131-0.196,0.217-0.346c0.262-0.435,0.219-0.738,0.131-1.28
		C4.838,8.564,4.948,7.307,4.557,6.44C5.75,7.198,5.989,8.477,5.512,9.8c0.193-0.261,0.389-0.521,0.562-0.758c0,0,0,0-0.021,0
		c0.151-0.087,0.043-0.781,0.043-0.976c-0.043-1.041,0.238-2.189-0.088-3.1c1.086,0.911,1.28,2.341,0.479,3.555
		C6.704,8.282,7.073,8,7.222,7.697C7.485,7.22,7.308,6.288,7.373,5.724C7.46,5.01,7.72,4.445,7.548,3.686
		C8.544,4.554,8.61,6.31,7.654,7.242c0.263-0.217,0.629-0.455,0.824-0.738c0.303-0.455,0.195-1.366,0.348-1.908
		C9.019,3.903,9.304,3.383,9.193,2.58c0.846,1.02,0.846,2.623-0.195,3.534c0.175-0.151,0.781-0.456,0.847-0.651
		c0.194-0.52,0.306-1.105,0.521-1.647c0.281-0.715,0.693-1.3,0.693-2.167c0.867,1.192,0.346,2.688-0.738,3.555
		c0.283-0.172,0.912-0.411,1.063-0.714c0.26-0.477,0.412-1.02,0.629-1.519c0.349-0.715,0.781-1.214,0.89-2.059
		c0.629,1.258,0.174,2.688-0.976,3.404c0.304-0.131,0.604-0.282,0.933-0.391c0,0,0,0-0.021,0c0.281,0,0.779-1.386,0.889-1.56
		c0.391-0.694,0.953-1.127,1.082-1.951c0.586,1.301-0.129,2.537-1.213,3.229c0.391-0.13,0.846-0.174,1.105-0.52
		c0.369-0.479,0.649-1.021,1.062-1.475c0.021-0.043,0.066-0.087,0.109-0.129c0.432-0.477,0.801-0.803,0.975-1.41
		c0.064,0.152,0.086,0.326,0.109,0.476c0.021,0.174,0.021,0.348,0,0.499c-0.088,0.739-0.586,1.366-1.193,1.801
		c-0.174,0.108-0.369,0.216-0.562,0.302c0.174-0.043,0.367-0.108,0.562-0.129c0.152-0.022,0.305-0.044,0.434-0.044
		c0.174,0,0.607-0.65,0.761-0.867c0.021-0.021,0.043-0.044,0.043-0.065c0.52-0.651,1.301-1.084,1.69-1.799
		C18.735,0.197,18.778,0.109,18.821,0c0.109,0.521,0.043,0.998-0.129,1.41c-0.326,0.693-0.977,1.193-1.69,1.475
		c0.889,0,1.233-0.282,1.69-0.737c0.15-0.152,0.324-0.325,0.518-0.52c0.587-0.521,1.261-0.759,1.673-1.475
		c0,1.475-0.847,2.32-2.188,2.645c0.172,0,0.366,0,0.563,0.021c0.063,0,0.131,0,0.174,0c0.112,0.009,0.176,0.014,0.207,0.017
		c0.217-0.032,0.537-0.369,0.682-0.493c0.477-0.346,0.998-0.649,1.496-0.975c0.391-0.239,0.736-0.521,1.018-0.889
		c-0.107,0.823-0.455,1.474-1.018,1.886c-0.369,0.281-0.846,0.454-1.41,0.542c0.283,0.044,0.672,0.173,0.934,0.13
		c0.15-0.022,0.324-0.086,0.479-0.174c0.434-0.217,0.864-0.607,1.233-0.802c0.648-0.325,1.234-0.433,1.754-0.998
		c-0.149,1.388-1.362,2.061-2.752,2.104c0.324,0.086,0.65,0.173,0.953,0.238c0.369,0.087,1.258-0.563,1.605-0.715
		c0.717-0.347,1.432-0.347,2.061-0.911c-0.326,0.933-0.91,1.583-1.93,1.844c-0.281,0.086-0.564-0.022-0.867,0.021
		c-0.324,0.021,0.281,0.129,0.412,0.195c0.434,0.151,0.605,0.065,1.041-0.087c0.953-0.282,2.318-0.391,3.164-0.954
		c-0.436,0.867-1.064,1.474-2.125,1.582c-0.346,0.022-0.605-0.108-0.934-0.108c-0.365-0.021,0.283,0.173,0.412,0.239
		c0.412,0.195,0.586,0.151,1.041,0.065c0.955-0.196,2.36-0.196,3.229-0.651c-0.351,0.694-0.953,1.127-1.713,1.279
		c-0.392,0.087-0.804,0.087-1.173-0.021c-0.106-0.044-0.172-0.087-0.278-0.087c-0.045-0.021-0.153-0.107-0.133-0.043
		c0.022,0.13,0.196,0.109,0.305,0.173c0.761,0.477,1.322,0.261,2.275,0.196c0.823-0.066,1.518,0.107,2.213-0.218
		c-0.412,0.673-1.062,1.042-1.847,1.127c-0.52,0.064-1.688-0.455-1.299-0.151c0.217,0.151,0.435,0.412,0.695,0.455
		c0.52,0.066,1.104,0,1.645,0.044c0.806,0.065,1.478,0.304,2.232,0.087c-0.801,0.931-2.232,1.148-3.295,0.477
		c-0.043-0.022-0.129-0.13-0.195-0.152c-0.106-0.022,0.109,0.108,0.131,0.13c0.152,0.152,0.306,0.304,0.455,0.455
		c0.281,0.303,0.935,0.261,1.346,0.303c0.951,0.108,1.8,0.564,2.753,0.347c-0.736,0.758-2.08,1.019-3.015,0.39
		c-0.217-0.151-0.586-0.455-0.391-0.26c0.086,0.087,0.564,0.78,0.564,0.673c0,0.086,0.69,0.194,0.801,0.216
		c1.02,0.216,1.951,0.781,3.057,0.694c-0.584,0.498-1.301,0.65-2.104,0.477c-0.389-0.087-0.715-0.217-1.018-0.477
		c-0.068-0.068-0.201-0.186-0.269-0.243c0.353,0.381,0.34,0.701,0.854,0.915c0.584,0.239,1.256,0.368,1.799,0.694
		c0.498,0.281,0.932,0.542,1.584,0.542c-0.826,0.499-1.801,0.455-2.646-0.022c-0.26-0.151-0.412-0.412-0.65-0.606
		c-0.279-0.217,0.086,0.282,0.15,0.411c0.195,0.391,0.391,0.478,0.781,0.673c0.934,0.434,1.908,1.256,2.969,1.409
		c-0.865,0.434-1.842,0.282-2.6-0.282c-0.26-0.174-0.369-0.456-0.586-0.651c-0.238-0.195,0.063,0.304,0.108,0.435
		c0.15,0.433,0.367,0.541,0.736,0.758c0.846,0.542,1.774,1.517,2.772,1.799c-0.998,0.216-1.82,0.086-2.559-0.607
		c-0.26-0.26-0.348-0.541-0.543-0.802c-0.236-0.282,0.045,0.326,0.088,0.478c0.107,0.454,0.26,0.563,0.629,0.823
		c0.803,0.629,1.625,1.67,2.58,2.038c-0.998,0.216-1.865-0.087-2.494-0.823c-0.217-0.261-0.26-0.543-0.434-0.803
		c-0.195-0.281,0,0.303,0.021,0.455c0.088,0.455,0.239,0.629,0.541,0.933c0.76,0.737,1.432,1.821,2.344,2.319
		c-1.107,0.106-2.146-0.478-2.58-1.453c-0.064-0.13-0.109-0.281-0.131-0.412C34.561,17.883,34.518,17.557,34.518,17.687z
		 M34.387,17.969c0-0.086,0-0.173,0-0.238c-0.043-0.369-0.043-0.195-0.086-0.022c-0.283,1.128-1.193,1.865-2.406,1.713
		c0.758-0.348,1.17-1.128,1.82-1.669c0.194-0.152,0.498-0.369,0.629-0.586c0.106-0.217-0.086-0.65-0.131-0.911
		c0-0.086-0.021-0.174-0.044-0.26c-0.063-0.456-0.043-0.174-0.063,0.043c-0.174,1.171-0.975,1.972-2.211,1.972
		c0.801-0.434,1.387-1.539,1.973-2.254c0.303-0.369-0.088-2.104-0.131-1.257c-0.086,0.976-0.781,1.973-1.799,2.037
		c-0.174,0.022,0.369-0.585,0.541-0.932c0.369-0.758,1.301-1.431,1-2.276c-0.133-0.369-0.348-1.063-0.305-0.672
		c0.063,1.019-0.263,2.017-1.218,2.384c-0.149,0.065-0.627,0.282-0.389,0.044c0.409-0.434,0.495-0.975,0.735-1.496
		c0.238-0.477,0.801-1.063,0.627-1.561c-0.104-0.282-0.303-0.65-0.455-0.911c-0.104-0.195,0.066,0.585,0.021,0.867
		c-0.086,0.65-0.412,1.235-0.975,1.582c-0.086,0.044-0.693,0.369-0.498,0.152c0.389-0.433,0.434-0.955,0.604-1.495
		c0.152-0.391,0.369-0.759,0.521-1.171c0.021-0.065,0.132-0.259,0.105-0.303c-0.043-0.217-0.305-0.499-0.432-0.694
		c-0.023-0.064-0.066-0.108-0.109-0.173c-0.348-0.542-0.062,0.13-0.043,0.413c0.043,0.347-0.02,0.693-0.131,0.975
		c-0.131,0.368-0.369,0.737-0.715,0.954c-0.152,0.087-0.562,0.391-0.391,0.108c0.391-0.542,0.369-1.431,0.606-2.082
		c0.043-0.151,0.324-0.715,0.281-0.91c-0.086-0.281-0.604-0.911-0.892-1.105c-0.062-0.044,0.043,0.108,0.064,0.194
		c0.066,0.109,0.131,0.216,0.174,0.325c0.195,0.651,0.023,1.453-0.348,1.952c-0.129,0.173-0.736,0.651-0.648,0.499
		c0.084-0.131,0.152-0.282,0.174-0.456c0.15-0.65,0.129-1.409,0.263-2.038c0.062-0.347,0.215-0.606-0.046-0.867
		c-0.235-0.261-1.084-1.171-0.631-0.434c0.265,0.391,0.283,0.976,0.179,1.475c-0.066,0.303-0.179,0.563-0.371,0.802
		c-0.084,0.108-0.479,0.477-0.479,0.389c0.088-0.584,0.088-1.257,0.131-1.907c0.043-0.368,0.265-1.214-0.02-1.453
		c-0.303-0.26-0.607-0.52-0.932-0.737c-0.064-0.021,0.062,0.086,0.104,0.152c0.044,0.064,0.087,0.129,0.152,0.217
		c0.151,0.238,0.217,0.455,0.26,0.758c0.108,0.737-0.106,1.409-0.627,1.886c-0.131,0.109,0.021-0.368,0.021-0.629
		c-0.021-0.324-0.129-0.585-0.148-0.91c-0.045-0.499,0.041-1.063-0.045-1.562c-0.021-0.259-0.436-0.411-0.584-0.52
		c-0.195-0.13-0.412-0.282-0.629-0.368c-0.088-0.044,0.107,0.129,0.174,0.216c0.191,0.217,0.367,0.413,0.477,0.672
		c0.215,0.521,0.238,1.323-0.021,1.822c-0.043,0.064-0.412,0.649-0.369,0.368c0.149-0.888-0.28-1.756-0.41-2.645
		c-0.021-0.109-0.021-0.499-0.108-0.585c-0.064-0.065-0.605-0.282-0.76-0.369c-0.759-0.347,0.325,0.499,0.479,1.3
		c0.045,0.348,0.02,0.715-0.086,1.019c-0.043,0.109-0.307,0.564-0.324,0.499c-0.066-0.239,0-0.52-0.088-0.759
		c-0.238-0.716-0.455-1.431-0.672-2.19c-0.143-0.484-0.924-0.387-1.311-0.651c0.762,0.621,1.317,1.425,1.006,2.494
		c-0.021,0.087-0.238,0.65-0.238,0.39c0-0.759-0.521-1.278-0.736-1.929c-0.152-0.434-0.195-0.976-0.629-1.148
		c-0.15-0.066-0.803-0.283-1.02-0.303c-0.062,0-0.088,0.021,0,0.107c0.043,0.021,0.106,0.065,0.217,0.129
		C22.502,3.746,22.805,4.136,23,4.656c0.109,0.304,0.174,0.651,0.088,0.997c-0.021,0.13-0.131,0.542-0.195,0.456
		c-0.065-0.13-0.043-0.326-0.086-0.456c-0.174-0.433-0.563-0.801-0.76-1.192c-0.109-0.173-0.174-0.346-0.238-0.477
		c-0.217-0.476-0.391-0.779-1.062-0.889c-0.26-0.042-0.521-0.238-0.715-0.086c-0.045,0.044,0.086,0.044,0.147,0.065
		c0.131,0.065,0.265,0.131,0.394,0.195c0.325,0.195,0.586,0.455,0.76,0.78c0.193,0.325,0.304,0.715,0.281,1.148
		c0,0.152-0.088,0.585-0.131,0.521c-0.15-0.195-0.15-0.477-0.324-0.693c-0.479-0.628-0.892-1.215-1.321-1.844
		c-0.197-0.259-0.718-0.259-1.15-0.237c-0.152,0-0.305,0.021-0.412,0.021c0.129,0.044,0.26,0.088,0.412,0.153
		c0.695,0.281,1.236,0.715,1.453,1.539c0.021,0.108,0.151,0.825,0,0.91c-0.086,0.043-0.064-0.172-0.107-0.259
		c-0.109-0.196-0.26-0.391-0.434-0.564c-0.349-0.326-0.629-0.65-0.912-0.976c-0.174-0.194-0.348-0.412-0.543-0.606
		c-0.217-0.26-0.76-0.196-1.191-0.108c-0.106,0.021-0.237,0.042-0.323,0.042c0.106,0.022,0.217,0.065,0.325,0.086
		c0.521,0.152,0.933,0.348,1.322,0.825c0.193,0.281,0.367,0.584,0.389,0.954c0,0.044,0,0.129,0.023,0.217v0.173
		c-0.023,0.087-0.045,0.131-0.109,0c-0.194-0.476-0.692-0.693-1.062-1.018c-0.174-0.153-0.346-0.391-0.562-0.607
		c-0.283-0.303-0.607-0.585-0.955-0.542c-0.086,0.023-0.152,0.043-0.238,0.043c-0.281,0.044-0.562,0.108-0.846,0.196
		c0.305,0.021,0.586,0.065,0.846,0.129c0.348,0.109,0.672,0.283,0.953,0.587c0.088,0.108,0.174,0.216,0.24,0.324
		c0.108,0.173,0.195,0.369,0.238,0.564c0.043,0.151,0.149,0.671-0.021,0.39c-0.066-0.087-0.131-0.152-0.217-0.239
		c-0.326-0.303-0.76-0.477-1.127-0.759c-0.023,0-0.045-0.021-0.066-0.043c-0.389-0.325-0.91-0.954-1.365-0.825
		c-0.369,0.109-0.715,0.24-1.062,0.369c0.91-0.129,1.734,0.283,2.188,1.019c0.044,0.044,0.152,0.282,0.238,0.499
		c0.065,0.151,0.108,0.325,0.065,0.369c-0.022,0.021-0.045,0.021-0.065-0.022c-0.021-0.021-0.063-0.13-0.086-0.151
		c-0.088-0.087-0.195-0.174-0.283-0.238c-0.346-0.239-0.758-0.369-1.127-0.585c-0.349-0.196-0.953-0.802-1.344-0.759
		c-0.412,0.043-0.822,0.368-1.191,0.542c0.91-0.173,1.8,0.022,2.363,0.737c0.086,0.109,0.476,0.694,0.367,0.846
		c-0.044,0.065-0.107-0.109-0.152-0.152c-0.106-0.086-0.192-0.151-0.303-0.216c-0.347-0.196-0.802-0.283-1.17-0.434
		c-0.392-0.174-0.998-0.65-1.433-0.628c-0.367,0.043-0.822,0.455-1.127,0.651c0.867-0.196,1.756-0.152,2.385,0.52
		c0.086,0.108,0.521,0.671,0.455,0.801c-0.043,0.066-0.106-0.087-0.194-0.13c-0.086-0.065-0.193-0.13-0.304-0.195
		c-0.369-0.151-0.846-0.173-1.215-0.303c-0.455-0.13-0.975-0.478-1.432-0.499C9.693,5.57,9.083,6.243,8.847,6.416
		c1.041-0.369,2.361-0.369,2.926,0.758C11.837,7.282,10.949,7.065,10.408,7C9.562,6.914,8.869,6.371,8.195,6.979
		c-0.192,0.195-0.41,0.368-0.627,0.563C8.347,7.152,9.257,7,10.06,7.521c0.174,0.107,0.738,0.716,0.477,0.585
		c-0.455-0.217-0.953-0.109-1.475-0.152C8.304,7.911,7.568,7.542,7.048,8.106C6.851,8.322,6.634,8.562,6.462,8.777
		c0.736-0.412,1.582-0.694,2.428-0.26C9.083,8.625,9.714,9.189,9.41,9.08c-0.541-0.173-1.084,0-1.67,0.023
		c-1.322,0.021-1.604-0.109-2.297,1.104c0.65-0.521,1.519-0.997,2.428-0.606C7.98,9.644,8.63,9.97,8.63,10.122
		c0,0.064-0.15-0.045-0.216-0.045c-0.131-0.021-0.262-0.042-0.368-0.021c-0.455,0-0.824,0.174-1.236,0.239
		c-0.478,0.086-1.321-0.044-1.604,0.303c-0.26,0.304-0.412,0.715-0.584,1.063c0.605-0.607,1.365-1.106,2.318-0.824
		c0.152,0.043,0.779,0.26,0.801,0.455c0.021,0.066-0.129-0.043-0.215-0.043c-0.109-0.021-0.238,0-0.369,0.021
		c-0.434,0.065-0.781,0.26-1.213,0.368c-0.391,0.109-1.281,0.086-1.52,0.434c-0.217,0.303-0.324,0.738-0.455,1.106
		c0.607-0.608,1.148-1.171,2.168-0.998c0.152,0.022,0.824,0.173,0.846,0.347c0,0.065-0.15,0-0.217,0
		c-0.131,0-0.238,0.021-0.348,0.043c-0.432,0.109-0.779,0.37-1.17,0.521c-0.392,0.129-1.215,0.174-1.433,0.521
		c-0.217,0.347-0.26,0.845-0.366,1.236c0.672-1.062,1.69-1.604,2.948-1.062c-0.694,0.065-1.086,0.456-1.67,0.758
		c-0.348,0.195-1.192,0.347-1.389,0.694c-0.193,0.304-0.15,0.89-0.216,1.258c0.498-1.128,1.582-1.734,2.818-1.323
		c-0.674,0.13-1.041,0.563-1.584,0.91c-0.326,0.217-1.127,0.455-1.301,0.802c-0.174,0.326-0.066,0.998-0.086,1.366
		c0.432-1.192,1.279-1.995,2.666-1.713c-0.629,0.217-0.932,0.673-1.473,1.084c-0.351,0.282-0.998,0.562-1.217,0.954
		c-0.15,0.239,0.043,1.019,0.065,1.324c0.304-1.259,1.084-1.996,2.472-1.91c-0.607,0.282-0.865,0.759-1.365,1.236
		c-0.326,0.348-0.824,0.631-1.084,1.021c-0.064,0.085,0.021,0.216,0.043,0.324c0.045,0.348,0.108,0.693,0.151,1.062
		c0.132-1.277,0.89-2.23,2.232-2.23c-0.716,0.433-1.021,1.256-1.604,1.885c-0.305,0.304-0.563,0.498-0.498,0.91
		c0.041,0.348,0.172,0.716,0.26,1.062c0.15-1.345,0.65-2.212,2.037-2.404c-0.781,0.627-1.215,1.646-1.756,2.447
		c-0.305,0.479,0.088,1.104,0.324,1.604c-0.107-1.344,0.393-2.406,1.715-2.666c-0.717,0.627-1.02,1.8-1.453,2.623
		c-0.262,0.498,0.172,1.041,0.455,1.496c-0.174-1.301,0.217-2.318,1.473-2.754c-0.604,0.758-0.846,1.887-1.17,2.754
		c-0.192,0.521,0.306,1.02,0.629,1.453c-0.323-1.281-0.108-2.32,1.105-2.949c-0.369,0.541-0.348,1.127-0.498,1.777
		c-0.086,0.434-0.521,1.172-0.305,1.562c0.174,0.324,0.477,0.629,0.738,0.908c-0.412-1.213-0.326-2.254,0.822-2.969
		c-0.41,0.76-0.435,2.061-0.541,2.926c-0.064,0.543,0.52,0.892,0.889,1.237c-0.455-1.149-0.563-2.19,0.541-3.014
		c-0.281,0.78-0.172,1.972-0.238,2.86c-0.043,0.672,0.607,0.91,1.064,1.258c-0.717-0.997-0.867-2.211,0.106-3.121
		c-0.151,0.65,0.021,1.17,0.106,1.82c0.045,0.434-0.106,1.17,0.089,1.519c0.174,0.303,0.823,0.521,1.127,0.692
		c-0.804-0.953-1.063-2.06-0.218-3.1c-0.108,0.692,0.132,1.192,0.281,1.798c0.109,0.479,0.088,1.021,0.24,1.496
		c0.02,0.089,0.15,0.065,0.238,0.109c0.324,0.151,0.65,0.323,0.953,0.477c-0.867-0.889-1.258-1.95-0.479-3.077
		c-0.086,0.995,0.479,2.016,0.718,2.902c0.174,0.629,0.932,0.542,1.43,0.803c-1.039-0.736-1.562-1.8-0.932-3.033
		c0,0.734,0.454,1.17,0.692,1.799c0.131,0.324,0.237,0.672,0.392,0.996c0.217,0.521,0.909,0.543,1.452,0.649
		c-1.063-0.672-1.67-1.604-1.192-2.903c0.151,0.89,0.867,1.756,1.301,2.535c0.021,0.045,0.043,0.088,0.066,0.131
		c0.194,0.369,0.67,0.412,1.127,0.434c0.129,0,0.26,0.021,0.366,0.021c-0.129-0.045-0.237-0.109-0.366-0.175
		c-0.89-0.521-1.39-1.407-1.063-2.579c0.217,0.648,0.672,1.147,1.063,1.689c0.108,0.129,0.194,0.26,0.28,0.412
		c0.15,0.281,0.281,0.605,0.63,0.671c0.258,0.045,0.541,0.022,0.801,0.045h0.025c0.106,0,0.238,0,0.368-0.021
		c-0.13-0.043-0.262-0.088-0.368-0.152c-0.998-0.412-1.604-1.148-1.433-2.406c0.281,0.607,0.695,0.889,1.171,1.387
		c0.088,0.108,0.174,0.219,0.262,0.305c0.456,0.564,0.564,0.891,1.605,0.804c0.149,0,0.281-0.044,0.412-0.063
		c-1.216-0.195-2.04-1.062-1.952-2.363c0.238,0.541,0.691,0.759,1.127,1.147c0.412,0.392,0.91,1.216,1.496,1.13
		c0.148-0.022,0.303-0.046,0.434-0.087c0.215-0.044,0.412-0.088,0.605-0.153c-0.215-0.021-0.412-0.043-0.605-0.108
		c-0.953-0.237-1.627-0.845-1.69-1.994c0.391,0.542,0.932,0.759,1.452,1.104c0.064,0.064,0.15,0.131,0.238,0.218
		c0.324,0.282,0.736,0.716,1.041,0.694c0.389-0.043,0.801-0.261,1.148-0.393c-0.998,0-1.799-0.365-2.189-1.126
		c-0.106-0.216-0.195-0.478-0.217-0.759c0.064,0.088,0.152,0.15,0.217,0.236c0.562,0.479,1.236,0.676,1.842,1.106
		c0.218,0.152,0.541,0.412,0.804,0.39c0.28-0.041,0.584-0.235,0.846-0.367c0.043-0.021,0.107-0.043,0.15-0.064
		c0.262-0.13,0.108-0.064-0.043-0.064c-1.216,0.151-2.189-0.478-2.492-1.625c0.606,0.627,1.519,0.715,2.231,1.084
		c0.217,0.106,0.586,0.369,0.824,0.347c0.238-0.043,0.521-0.304,0.736-0.435c0.064-0.021,0.105-0.064,0.174-0.086
		c0.238-0.151,0.195-0.133,0.043-0.089c-1.17,0.282-2.254-0.259-2.645-1.343c0.672,0.499,1.58,0.521,2.318,0.845
		c0.215,0.089,0.563,0.281,0.803,0.261c0.217-0.021,0.498-0.367,0.717-0.521c0.062-0.042,0.129-0.086,0.191-0.149
		c0.35-0.262,0.151-0.131-0.021-0.065c-1.127,0.435-2.254,0.021-2.795-1.041c0.562,0.39,1.213,0.305,1.887,0.435
		c0.365,0.086,0.69,0.194,1.039,0.281c0.478,0.086,1.713-1.105,1.039-0.736c-1.021,0.562-2.123,0.064-2.752-0.781
		c0.758,0.347,1.994,0.283,2.84,0.369c0.349,0.043,0.369,0.064,0.606-0.15c0.236-0.194,0.453-0.479,0.673-0.716
		c0.063-0.085,0.106-0.13,0-0.065c-1.084,0.629-2.188,0.587-3.035-0.41c0.847,0.282,1.931,0.088,2.883,0.088
		c0.586,0.021,0.978-0.586,1.193-1.063c0.062-0.129-0.043,0.021-0.089,0.044c-0.977,0.779-2.104,0.865-3.057,0.021
		c0.865,0.129,1.58-0.195,2.471-0.262c0.349-0.021,0.736,0,0.935-0.238c0.043-0.043,0.91-1.365,0.435-0.91
		c-0.847,0.846-1.994,0.955-2.947,0.238c0.844,0.131,1.625-0.348,2.428-0.498c0.303-0.043,0.715-0.064,0.865-0.305
		c0.088-0.087,0.652-1.365,0.369-0.977c-0.715,0.912-1.93,1.149-2.926,0.541c0.909,0,1.539-0.541,2.362-0.758
		c0.281-0.064,0.692-0.129,0.822-0.347c0.106-0.151,0.647-1.669,0.235-1.041c-0.629,0.953-1.713,1.409-2.813,0.888
		c0.867-0.129,1.494-0.692,2.254-1.019c0.238-0.106,0.69-0.237,0.802-0.455c0.131-0.237,0.131-0.629,0.174-0.89
		c0-0.063,0.021-0.129,0.021-0.194c0.045-0.304,0-0.131-0.043,0c-0.541,1.083-1.562,1.495-2.754,1.17
		c0.823-0.217,1.407-0.866,2.146-1.235c0.215-0.107,0.627-0.283,0.736-0.5c0.129-0.236,0.064-0.627,0.086-0.91
		c0-0.063,0-0.15,0-0.215c0.021-0.349-0.021-0.151-0.086,0.021c-0.434,1.083-1.322,1.711-2.58,1.453
		c0.803-0.282,1.322-0.977,1.994-1.475c0.195-0.131,0.586-0.349,0.693-0.563C34.538,18.62,34.408,18.207,34.387,17.969z"/>
</g>
<g>
</g>
<g>
</g>
<g>
</g>
<g>
</g>
<g>
</g>
<g>
</g>
<g>
</g>
<g>
</g>
<g>
</g>
<g>
</g>
<g>
</g>
<g>
</g>
<g>
</g>
<g>
</g>
<g>
</g>
</svg>
