<?xml version="1.0" encoding="iso-8859-1"?>
<!-- Generator: Adobe Illustrator 16.0.0, SVG Export Plug-In . SVG Version: 6.00 Build 0)  -->
<!DOCTYPE svg PUBLIC "-//W3C//DTD SVG 1.1//EN" "http://www.w3.org/Graphics/SVG/1.1/DTD/svg11.dtd">
<svg version="1.1" id="Capa_1" xmlns="http://www.w3.org/2000/svg" xmlns:xlink="http://www.w3.org/1999/xlink" x="0px" y="0px"
	 width="32.828px" height="32.828px" viewBox="0 0 32.828 32.828" style="enable-background:new 0 0 32.828 32.828;"
	 xml:space="preserve">
<g>
	<path d="M13.95,20.229h1.865v-1.811h1.06c0.047,0,0.092-0.002,0.139-0.002v1.812h1.864v-1.971c0.313-0.061,0.588-0.137,0.823-0.229
		c0.645-0.258,1.143-0.633,1.492-1.125c0.353-0.491,0.529-1.028,0.529-1.613c0-0.489-0.117-0.935-0.349-1.33
		c-0.231-0.396-0.545-0.706-0.938-0.928c-0.273-0.158-0.668-0.304-1.184-0.435c0.48-0.164,0.867-0.369,1.159-0.621
		c0.293-0.25,0.519-0.539,0.673-0.861c0.155-0.327,0.232-0.674,0.232-1.035c0-0.499-0.146-0.958-0.44-1.377
		c-0.295-0.418-0.716-0.739-1.262-0.962c-0.212-0.088-0.466-0.153-0.738-0.205V5.595h-1.862v1.812h-1.199V5.595H13.95v1.812h-2.844
		V8.93h0.434c0.29,0,0.485,0.026,0.588,0.078c0.103,0.053,0.175,0.124,0.217,0.215c0.043,0.088,0.063,0.297,0.063,0.622v6.143
		c0,0.319-0.021,0.526-0.063,0.618c-0.042,0.093-0.114,0.162-0.217,0.213c-0.103,0.052-0.298,0.074-0.588,0.074h-0.434v1.525h2.844
		V20.229z M15.132,9.185h1.208c0.705,0,1.194,0.043,1.467,0.131c0.273,0.086,0.483,0.231,0.629,0.438
		c0.146,0.206,0.217,0.452,0.217,0.742c0,0.276-0.075,0.524-0.229,0.737c-0.152,0.212-0.38,0.371-0.683,0.479
		c-0.304,0.104-0.77,0.157-1.4,0.157h-1.208V9.185H15.132z M15.132,13.485h1.425c0.625,0,1.089,0.06,1.395,0.175
		c0.304,0.114,0.532,0.287,0.685,0.513c0.152,0.228,0.229,0.502,0.229,0.829c0,0.385-0.108,0.712-0.323,0.986
		c-0.216,0.271-0.477,0.455-0.783,0.539c-0.309,0.088-0.695,0.134-1.163,0.134h-0.804c-0.267,0-0.431-0.017-0.492-0.046
		c-0.061-0.028-0.104-0.079-0.13-0.153c-0.022-0.058-0.034-0.255-0.04-0.593L15.132,13.485L15.132,13.485z M0.164,2.438v20.876h32.5
		V2.438H0.164z M30.664,21.312h-28.5V4.438h28.5V21.312z M6.414,23.75h20v2h-4.477l3.47,6.088l-1.737,0.99l-4.035-7.078h-6.443
		l-4.035,7.078l-1.737-0.99l3.47-6.088H6.413L6.414,23.75L6.414,23.75z M19.914,2h-7V0h7V2z"/>
</g>
<g>
</g>
<g>
</g>
<g>
</g>
<g>
</g>
<g>
</g>
<g>
</g>
<g>
</g>
<g>
</g>
<g>
</g>
<g>
</g>
<g>
</g>
<g>
</g>
<g>
</g>
<g>
</g>
<g>
</g>
</svg>
