<?xml version="1.0" encoding="iso-8859-1"?>
<!-- Generator: Adobe Illustrator 16.0.0, SVG Export Plug-In . SVG Version: 6.00 Build 0)  -->
<!DOCTYPE svg PUBLIC "-//W3C//DTD SVG 1.1//EN" "http://www.w3.org/Graphics/SVG/1.1/DTD/svg11.dtd">
<svg version="1.1" id="Capa_1" xmlns="http://www.w3.org/2000/svg" xmlns:xlink="http://www.w3.org/1999/xlink" x="0px" y="0px"
	 width="38.768px" height="38.768px" viewBox="0 0 38.768 38.768" style="enable-background:new 0 0 38.768 38.768;"
	 xml:space="preserve">
<g>
	<path d="M31.124,26.149c0-5.062-3.121-9.404-7.537-11.218v-3.284c0-0.601-0.487-1.087-1.086-1.087H1.085
		C0.485,10.56,0,11.046,0,11.647v3.795c0,0.598,0.485,1.082,1.085,1.082h10.569c-0.535,0.411-1.037,0.864-1.498,1.356h-9.07
		c-0.601,0-1.085,0.485-1.085,1.083v3.796c0,0.601,0.484,1.084,1.085,1.084h6.016c-0.086,0.443-0.143,0.896-0.178,1.355H1.086
		c-0.601,0-1.085,0.484-1.085,1.084v3.797c0,0.598,0.484,1.082,1.085,1.082h6.889c0.216,0.471,0.459,0.922,0.729,1.355H1.087
		c-0.6,0-1.085,0.486-1.085,1.086v3.795c0,0.6,0.485,1.084,1.085,1.084h21.416c0.599,0,1.086-0.484,1.086-1.084v-0.033
		C28.003,35.553,31.124,31.211,31.124,26.149z M18.999,37.385c-6.195,0-11.236-5.039-11.236-11.235
		c0-6.195,5.041-11.236,11.236-11.236c6.194,0,11.235,5.041,11.235,11.236C30.236,32.346,25.195,37.385,18.999,37.385z
		 M10.446,30.278c0.102,0.209,0.015,0.461-0.194,0.562c-0.06,0.027-0.121,0.043-0.183,0.043c-0.156,0-0.307-0.088-0.379-0.238
		c-0.68-1.401-1.025-2.909-1.029-4.479c0-0.232,0.187-0.421,0.418-0.423c0.002,0,0.002,0,0.003,0c0.229,0,0.419,0.188,0.42,0.42
		C9.503,27.604,9.822,28.988,10.446,30.278z M9.673,21.676c0.666-1.389,1.654-2.634,2.859-3.602
		c0.182-0.145,0.444-0.116,0.591,0.063c0.146,0.183,0.116,0.446-0.065,0.591c-1.107,0.889-2.016,2.034-2.628,3.311
		c-0.071,0.15-0.222,0.238-0.379,0.238c-0.062,0-0.122-0.014-0.181-0.041C9.661,22.137,9.572,21.885,9.673,21.676z M24.896,18.696
		c-0.183-0.146-0.214-0.408-0.068-0.59c0.146-0.182,0.41-0.214,0.591-0.068c1.211,0.959,2.207,2.199,2.882,3.582
		c0.102,0.212,0.016,0.462-0.193,0.562c-0.06,0.031-0.121,0.043-0.184,0.043c-0.155,0-0.307-0.086-0.378-0.233
		C26.924,20.717,26.008,19.576,24.896,18.696z M16.355,16.571c-0.053-0.226,0.09-0.451,0.314-0.504c1.5-0.345,3.1-0.35,4.599-0.013
		c0.229,0.052,0.368,0.274,0.317,0.501c-0.052,0.227-0.272,0.371-0.502,0.318c-1.377-0.312-2.85-0.305-4.225,0.013
		c-0.033,0.007-0.064,0.011-0.097,0.011C16.572,16.897,16.4,16.765,16.355,16.571z M29.337,26.102v0.041
		c0,1.57-0.345,3.078-1.021,4.484c-0.072,0.148-0.223,0.236-0.377,0.236c-0.062,0-0.123-0.014-0.185-0.043
		c-0.209-0.102-0.296-0.352-0.195-0.562c0.621-1.289,0.938-2.674,0.938-4.117c0-0.232,0.188-0.439,0.42-0.439
		S29.337,25.869,29.337,26.102z M17.212,35.908c-0.044,0.193-0.217,0.326-0.41,0.326c-0.029,0-0.061-0.002-0.092-0.01
		c-1.502-0.342-2.936-1.027-4.146-1.992c-0.181-0.145-0.212-0.408-0.066-0.592c0.145-0.18,0.408-0.209,0.591-0.064
		c1.11,0.887,2.428,1.518,3.808,1.83C17.12,35.457,17.263,35.684,17.212,35.908z M25.515,33.631c0.146,0.183,0.115,0.445-0.065,0.59
		c-1.207,0.967-2.641,1.658-4.142,2c-0.03,0.008-0.062,0.013-0.094,0.013c-0.19,0-0.365-0.134-0.409-0.328
		c-0.052-0.226,0.09-0.451,0.314-0.502c1.38-0.313,2.693-0.951,3.806-1.838C25.107,33.42,25.369,33.449,25.515,33.631z
		 M19.116,25.375h-0.869v-1.931h0.869c0.506,0,0.857,0.03,1.055,0.094c0.196,0.063,0.348,0.171,0.452,0.315
		c0.104,0.148,0.154,0.324,0.154,0.533c0,0.201-0.056,0.379-0.164,0.531c-0.109,0.15-0.272,0.268-0.492,0.344
		C19.905,25.338,19.57,25.375,19.116,25.375z M20.768,27.031c0.109,0.164,0.164,0.359,0.164,0.598c0,0.275-0.076,0.512-0.23,0.709
		s-0.342,0.326-0.563,0.389c-0.221,0.062-0.499,0.097-0.835,0.097h-0.579c-0.191,0-0.311-0.013-0.354-0.032
		c-0.043-0.021-0.074-0.058-0.094-0.111c-0.016-0.039-0.023-0.183-0.027-0.426v-1.713h1.025c0.448,0,0.782,0.043,1.001,0.125
		C20.492,26.746,20.656,26.869,20.768,27.031z M18.999,18.098c-4.442,0-8.043,3.602-8.043,8.044c0,4.441,3.601,8.043,8.043,8.043
		c4.44,0,8.043-3.602,8.043-8.043C27.042,21.697,23.441,18.098,18.999,18.098z M22.607,28.998c-0.252,0.354-0.611,0.625-1.074,0.811
		c-0.168,0.068-0.364,0.123-0.592,0.166v1.416h-1.341v-1.305c-0.033,0-0.064,0.002-0.1,0.002h-0.764v1.303h-1.34v-1.303h-2.046
		V28.99h0.312c0.209,0,0.35-0.02,0.424-0.055c0.074-0.035,0.126-0.088,0.156-0.152c0.029-0.066,0.045-0.215,0.045-0.445v-4.416
		c0-0.233-0.016-0.385-0.045-0.449c-0.03-0.062-0.082-0.114-0.156-0.151c-0.074-0.037-0.215-0.058-0.424-0.058h-0.312v-1.096h2.046
		v-1.305h1.34v1.305h0.862v-1.305h1.341v1.396c0.196,0.037,0.379,0.086,0.531,0.147c0.393,0.16,0.693,0.392,0.907,0.69
		c0.211,0.302,0.315,0.631,0.315,0.99c0,0.262-0.056,0.51-0.168,0.744c-0.111,0.234-0.271,0.441-0.482,0.621
		c-0.21,0.182-0.489,0.328-0.833,0.445c0.368,0.094,0.653,0.197,0.85,0.312c0.283,0.157,0.509,0.381,0.677,0.668
		c0.166,0.284,0.25,0.604,0.25,0.955C22.988,28.26,22.861,28.647,22.607,28.998z M35.275,6.162l-3.233,5.007
		c-0.147,0.229-0.382,0.387-0.649,0.438c-0.062,0.012-0.127,0.019-0.189,0.019c-0.204,0-0.406-0.063-0.576-0.183l-2.833-2
		c-0.451-0.32-0.56-0.943-0.24-1.396c0.317-0.45,0.938-0.558,1.396-0.24l1.98,1.399l2.668-4.133
		c0.301-0.463,0.917-0.598,1.385-0.297C35.441,5.078,35.572,5.697,35.275,6.162z M31.393,0.285c-4.064,0-7.375,3.31-7.375,7.375
		c0,4.066,3.311,7.375,7.375,7.375c4.066,0,7.375-3.309,7.375-7.375C38.768,3.595,35.459,0.285,31.393,0.285z M31.393,13.035
		c-2.964,0-5.375-2.41-5.375-5.375c0-2.963,2.411-5.375,5.375-5.375c2.965,0,5.375,2.412,5.375,5.375
		C36.768,10.625,34.357,13.035,31.393,13.035z"/>
</g>
<g>
</g>
<g>
</g>
<g>
</g>
<g>
</g>
<g>
</g>
<g>
</g>
<g>
</g>
<g>
</g>
<g>
</g>
<g>
</g>
<g>
</g>
<g>
</g>
<g>
</g>
<g>
</g>
<g>
</g>
</svg>
