<?xml version="1.0" encoding="iso-8859-1"?>
<!-- Generator: Adobe Illustrator 16.0.0, SVG Export Plug-In . SVG Version: 6.00 Build 0)  -->
<!DOCTYPE svg PUBLIC "-//W3C//DTD SVG 1.1//EN" "http://www.w3.org/Graphics/SVG/1.1/DTD/svg11.dtd">
<svg version="1.1" id="Capa_1" xmlns="http://www.w3.org/2000/svg" xmlns:xlink="http://www.w3.org/1999/xlink" x="0px" y="0px"
	 width="34.878px" height="34.879px" viewBox="0 0 34.878 34.879" style="enable-background:new 0 0 34.878 34.879;"
	 xml:space="preserve">
<g>
	<path d="M29.263,19.941c-0.551-0.945-1.297-1.685-2.238-2.21c-0.649-0.375-1.592-0.722-2.819-1.033
		c1.146-0.39,2.065-0.882,2.767-1.478c0.696-0.596,1.231-1.282,1.604-2.062c0.37-0.777,0.557-1.6,0.557-2.465
		c0-1.191-0.351-2.285-1.051-3.283c-0.703-0.998-1.705-1.762-3.009-2.295c-0.756-0.309-1.694-0.518-2.778-0.648V0h-3.674v4.316
		h-2.362V0h-3.674v4.316H4.787v3.632H5.82c0.688,0,1.156,0.063,1.402,0.188c0.243,0.125,0.416,0.295,0.516,0.508
		c0.103,0.213,0.15,0.708,0.15,1.486v14.638c0,0.764-0.05,1.258-0.15,1.477c-0.1,0.221-0.271,0.389-0.516,0.508
		c-0.246,0.119-0.714,0.18-1.402,0.18H4.787v3.633h7.799v4.314h3.672v-4.314h2.282c0.026,0,0.053-0.002,0.08-0.002v4.316h3.674
		V30.35c1.187-0.154,2.183-0.39,2.979-0.709c1.533-0.615,2.722-1.509,3.56-2.683c0.84-1.172,1.26-2.455,1.26-3.849
		C30.091,21.945,29.814,20.889,29.263,19.941z M14.382,8.55h2.877c1.682,0,2.848,0.104,3.5,0.311s1.15,0.557,1.496,1.044
		c0.344,0.49,0.518,1.079,0.518,1.771c0,0.664-0.182,1.25-0.547,1.758c-0.363,0.509-0.906,0.889-1.627,1.139
		c-0.721,0.251-1.834,0.377-3.34,0.377h-2.877V8.55z M22.511,24.768c-0.514,0.651-1.137,1.082-1.869,1.289
		c-0.731,0.207-1.654,0.312-2.768,0.312h-1.915c-0.64,0-1.029-0.035-1.174-0.104c-0.144-0.07-0.246-0.191-0.31-0.367
		c-0.052-0.139-0.082-0.606-0.095-1.412v-5.682h3.396c1.491,0,2.598,0.139,3.325,0.414c0.725,0.275,1.27,0.684,1.633,1.223
		c0.363,0.541,0.545,1.199,0.545,1.978C23.281,23.332,23.023,24.115,22.511,24.768z"/>
</g>
<g>
</g>
<g>
</g>
<g>
</g>
<g>
</g>
<g>
</g>
<g>
</g>
<g>
</g>
<g>
</g>
<g>
</g>
<g>
</g>
<g>
</g>
<g>
</g>
<g>
</g>
<g>
</g>
<g>
</g>
</svg>
