<?xml version="1.0" encoding="iso-8859-1"?>
<!-- Generator: Adobe Illustrator 16.0.0, SVG Export Plug-In . SVG Version: 6.00 Build 0)  -->
<!DOCTYPE svg PUBLIC "-//W3C//DTD SVG 1.1//EN" "http://www.w3.org/Graphics/SVG/1.1/DTD/svg11.dtd">
<svg version="1.1" id="Capa_1" xmlns="http://www.w3.org/2000/svg" xmlns:xlink="http://www.w3.org/1999/xlink" x="0px" y="0px"
	 width="35.086px" height="35.086px" viewBox="0 0 35.086 35.086" style="enable-background:new 0 0 35.086 35.086;"
	 xml:space="preserve">
<g>
	<path d="M20.982,19.21h0.408v-0.397h0.23c0.011,0,0.021,0,0.031,0v0.397h0.404v-0.433c0.069-0.014,0.129-0.028,0.182-0.051
		c0.142-0.057,0.25-0.139,0.326-0.246c0.078-0.106,0.115-0.225,0.115-0.354c0-0.105-0.023-0.204-0.076-0.291
		c-0.051-0.087-0.117-0.154-0.203-0.202c-0.062-0.034-0.146-0.065-0.262-0.096c0.106-0.035,0.19-0.08,0.254-0.134
		c0.064-0.058,0.113-0.119,0.147-0.19s0.052-0.146,0.052-0.228c0-0.107-0.031-0.209-0.097-0.301
		c-0.065-0.092-0.157-0.16-0.276-0.209c-0.045-0.021-0.102-0.035-0.162-0.047v-0.424h-0.404v0.396h-0.264v-0.396h-0.406v0.396
		h-0.623v0.332h0.096c0.062,0,0.107,0.006,0.129,0.018c0.021,0.012,0.038,0.027,0.049,0.047c0.01,0.02,0.014,0.064,0.014,0.137
		v1.342c0,0.07-0.004,0.115-0.014,0.138c-0.011,0.021-0.025,0.032-0.049,0.047c-0.021,0.01-0.064,0.017-0.129,0.017h-0.096v0.332
		h0.623V19.21L20.982,19.21z M21.242,16.794h0.264c0.154,0,0.262,0.009,0.321,0.028s0.104,0.051,0.137,0.097
		c0.032,0.045,0.048,0.099,0.048,0.162c0,0.062-0.018,0.112-0.05,0.161c-0.034,0.047-0.083,0.08-0.149,0.104
		c-0.064,0.024-0.168,0.036-0.307,0.036h-0.264V16.794L21.242,16.794z M21.242,17.734h0.312c0.137,0,0.236,0.013,0.305,0.037
		c0.065,0.024,0.117,0.062,0.149,0.112c0.031,0.05,0.05,0.107,0.05,0.181c0,0.084-0.022,0.154-0.07,0.215
		c-0.047,0.062-0.104,0.103-0.172,0.119c-0.067,0.019-0.151,0.027-0.254,0.027h-0.177c-0.059,0-0.095-0.002-0.106-0.01
		c-0.014-0.004-0.021-0.018-0.028-0.031c-0.004-0.014-0.007-0.057-0.008-0.131L21.242,17.734L21.242,17.734z M19.704,13.928
		c0.094,0.159,0.261,0.247,0.433,0.247c0.086,0,0.172-0.021,0.252-0.068l1.668-0.977c0.237-0.141,0.317-0.445,0.178-0.686
		c-0.141-0.236-0.443-0.314-0.685-0.178l-0.589,0.346c0.579-1.443,1.915-2.485,3.514-2.633c0.172-0.017,0.344-0.021,0.514-0.015
		c-0.01,0.035-0.024,0.067-0.033,0.104c-0.194,0.824-0.059,1.675,0.39,2.396c0.445,0.72,1.146,1.224,1.97,1.417
		c0.24,0.057,0.483,0.085,0.729,0.085c1.479,0,2.747-1.005,3.083-2.442c0.194-0.824,0.058-1.676-0.39-2.396
		c-0.444-0.722-1.146-1.226-1.971-1.418c-0.238-0.058-0.481-0.085-0.728-0.085c-1.074,0-2.033,0.536-2.608,1.379
		c-0.344-0.038-0.691-0.051-1.045-0.021c-2.037,0.188-3.736,1.545-4.416,3.414l-0.377-0.642c-0.141-0.237-0.447-0.315-0.686-0.179
		c-0.237,0.14-0.317,0.445-0.178,0.685L19.704,13.928z M28.037,8.627c0.167,0,0.335,0.02,0.499,0.059
		c0.563,0.133,1.043,0.478,1.349,0.971c0.305,0.492,0.398,1.074,0.266,1.64c-0.27,1.147-1.444,1.884-2.608,1.615
		c-0.562-0.134-1.042-0.478-1.349-0.972c-0.305-0.492-0.398-1.074-0.268-1.64C26.158,9.316,27.025,8.627,28.037,8.627z
		 M20.863,20.667c0.24,0.058,0.486,0.086,0.729,0.086c1.082,0,2.05-0.545,2.623-1.399c0.211,0.024,0.423,0.049,0.638,0.049
		c0.16,0,0.318-0.008,0.479-0.021c2.051-0.188,3.762-1.561,4.433-3.447l0.403,0.647c0.097,0.151,0.258,0.233,0.424,0.233
		c0.093,0,0.185-0.023,0.267-0.076c0.233-0.146,0.306-0.454,0.158-0.688l-1.023-1.638c-0.146-0.234-0.456-0.305-0.688-0.158
		l-1.64,1.023c-0.233,0.146-0.306,0.455-0.158,0.688c0.146,0.236,0.457,0.307,0.688,0.159l0.547-0.343
		c-0.586,1.429-1.912,2.458-3.499,2.603c-0.201,0.019-0.399,0.019-0.597,0.009c0.008-0.029,0.021-0.056,0.026-0.082
		c0.194-0.824,0.058-1.677-0.391-2.396c-0.445-0.721-1.146-1.225-1.97-1.417c-0.238-0.058-0.483-0.085-0.729-0.085
		c-1.477,0-2.743,1.005-3.083,2.443c-0.192,0.824-0.056,1.674,0.392,2.396C19.34,19.97,20.04,20.475,20.863,20.667z M19.479,17.085
		c0.231-0.985,1.102-1.673,2.109-1.673c0.167,0,0.335,0.02,0.5,0.058c0.562,0.134,1.042,0.478,1.348,0.97
		c0.307,0.494,0.399,1.076,0.269,1.642c-0.271,1.146-1.447,1.889-2.609,1.613c-0.563-0.133-1.043-0.478-1.349-0.971
		C19.439,18.232,19.346,17.65,19.479,17.085z M28.311,11.415c0-0.156-0.133-0.255-0.438-0.358c-0.441-0.148-0.743-0.355-0.743-0.755
		c0-0.362,0.257-0.647,0.697-0.733V9.174h0.403v0.363c0.275,0.013,0.463,0.069,0.6,0.136l-0.12,0.467
		C28.604,10.094,28.413,10,28.115,10c-0.268,0-0.354,0.114-0.354,0.229c0,0.137,0.144,0.224,0.494,0.354
		c0.49,0.174,0.688,0.399,0.688,0.771c0,0.367-0.262,0.682-0.734,0.765v0.421h-0.402v-0.393c-0.277-0.013-0.548-0.086-0.703-0.178
		l0.125-0.482c0.174,0.095,0.416,0.182,0.686,0.182C28.15,11.67,28.311,11.58,28.311,11.415z M10.958,6.9
		c-0.028,0-0.054,0.008-0.081,0.008C10.795,6.906,10.715,6.9,10.632,6.9H10.958z M10.758,19.417c0.012,0,0.021-0.002,0.031-0.002
		c0.016,0,0.027,0.002,0.043,0.002H10.758z M15.362,14.805c-0.709,2.605-2.839,4.532-4.573,4.61c-1.902-0.041-3.775-2.001-4.5-4.621
		c-0.014,0.004-0.021,0.016-0.032,0.018c-0.339,0.058-0.688-0.35-0.782-0.906c-0.096-0.559,0.103-1.057,0.439-1.114
		c0.023-0.004,0.049,0.012,0.074,0.013c-0.15-4.035,2.23-5.885,4.889-5.896c2.578,0.066,4.626,1.586,4.725,5.896
		c0.021,0,0.041-0.014,0.063-0.011c0.338,0.059,0.534,0.557,0.44,1.115C16.016,14.441,15.688,14.826,15.362,14.805z M35.086,24.441
		V3.568h-32.5v18.125C0.975,22.762,0,24.415,0,26.898h13.301l-3.459,6.068l1.738,0.99l4.021-7.059h5.979
		c0-0.008-0.001-0.015-0.001-0.021h0.478l4.035,7.08l1.738-0.99l-3.471-6.09h4.477v-2h-7.518c-0.043-0.15-0.09-0.295-0.142-0.438
		h13.908L35.086,24.441L35.086,24.441z M11.957,24.88l-0.381-3.065l0.597-0.488h-1.444H9.408l0.598,0.488L9.624,24.88H9.617
		l-2.406-4.717c-0.942,0.127-1.819,0.319-2.623,0.588V5.566h28.5v16.875H19.914c-1.287-1.279-3.232-1.967-5.541-2.277l-2.408,4.717
		L11.957,24.88L11.957,24.88z M22.336,3.129h-7v-2h7V3.129z"/>
</g>
<g>
</g>
<g>
</g>
<g>
</g>
<g>
</g>
<g>
</g>
<g>
</g>
<g>
</g>
<g>
</g>
<g>
</g>
<g>
</g>
<g>
</g>
<g>
</g>
<g>
</g>
<g>
</g>
<g>
</g>
</svg>
