<?xml version="1.0" encoding="iso-8859-1"?>
<!-- Generator: Adobe Illustrator 16.0.0, SVG Export Plug-In . SVG Version: 6.00 Build 0)  -->
<!DOCTYPE svg PUBLIC "-//W3C//DTD SVG 1.1//EN" "http://www.w3.org/Graphics/SVG/1.1/DTD/svg11.dtd">
<svg version="1.1" id="Capa_1" xmlns="http://www.w3.org/2000/svg" xmlns:xlink="http://www.w3.org/1999/xlink" x="0px" y="0px"
	 width="35.086px" height="35.085px" viewBox="0 0 35.086 35.085" style="enable-background:new 0 0 35.086 35.085;"
	 xml:space="preserve">
<g>
	<path d="M26.398,14.248c-0.102-0.062-0.25-0.115-0.441-0.164c0.179-0.062,0.324-0.139,0.436-0.231
		c0.109-0.093,0.193-0.203,0.254-0.325c0.057-0.122,0.086-0.252,0.086-0.389c0-0.188-0.056-0.358-0.164-0.516
		c-0.11-0.156-0.27-0.277-0.476-0.361c-0.079-0.032-0.174-0.057-0.276-0.077v-0.728h-0.699v0.678h-0.448v-0.678H23.97v0.678h-1.067
		v0.572h0.164c0.107,0,0.183,0.01,0.222,0.028c0.037,0.021,0.063,0.047,0.08,0.08c0.017,0.034,0.022,0.113,0.022,0.233v2.305
		c0,0.12-0.008,0.197-0.022,0.23c-0.017,0.037-0.043,0.063-0.08,0.082c-0.039,0.018-0.112,0.027-0.222,0.027h-0.164v0.571h1.067
		v0.679h0.699v-0.679h0.397c0.018,0,0.033,0,0.051,0v0.679h0.699v-0.736c0.117-0.023,0.221-0.053,0.311-0.088
		c0.24-0.097,0.428-0.236,0.559-0.422c0.135-0.184,0.199-0.387,0.199-0.605c0-0.183-0.044-0.35-0.131-0.498
		C26.665,14.444,26.547,14.33,26.398,14.248z M24.409,12.8h0.452c0.266,0,0.447,0.017,0.552,0.049
		c0.103,0.031,0.182,0.088,0.235,0.164c0.054,0.078,0.08,0.17,0.08,0.279c0,0.104-0.028,0.195-0.086,0.276
		c-0.058,0.078-0.143,0.14-0.257,0.179s-0.288,0.06-0.524,0.06h-0.452V12.8z M25.689,15.354c-0.08,0.104-0.18,0.17-0.295,0.203
		c-0.113,0.031-0.261,0.049-0.436,0.049h-0.303c-0.102,0-0.161-0.007-0.186-0.018c-0.021-0.01-0.039-0.029-0.048-0.058
		c-0.009-0.021-0.015-0.096-0.017-0.223v-0.896h0.535c0.233,0,0.408,0.022,0.522,0.066c0.113,0.044,0.199,0.107,0.256,0.191
		c0.06,0.086,0.087,0.188,0.087,0.312C25.811,15.126,25.77,15.251,25.689,15.354z M30.29,16.089v-0.584h0.584v0.584H30.29z
		 M23.271,19.599h0.584v0.584h-0.584V19.599z M29.12,19.013h1.754v0.586H30.29v0.584h-0.586v-0.584H29.12V19.013z M30.874,7.903
		h-4.095v1.219c-0.37-0.139-0.762-0.238-1.168-0.293V8.488h-0.586v0.294c-0.047-0.001-0.09-0.007-0.137-0.007
		c-0.15,0-0.3,0.011-0.447,0.022V8.486h0.584V7.901h-1.754v1.119c-0.201,0.063-0.396,0.142-0.586,0.226V7.901h-4.093v4.093h1.345
		c-0.302,0.674-0.473,1.42-0.473,2.203c0,0.047,0.006,0.09,0.008,0.137h-0.295v-1.754h-0.585v2.34h0.927
		c0.056,0.406,0.153,0.797,0.293,1.168h-1.22v4.095h4.093V19.15c0.674,0.303,1.418,0.475,2.203,0.475
		c0.451,0,0.887-0.062,1.307-0.166v0.727h0.584v-0.906c0.201-0.075,0.396-0.159,0.584-0.258v0.578h0.587v-0.924
		c0.11-0.076,0.221-0.16,0.325-0.244h2.015v-0.586h-1.396c0.168-0.186,0.328-0.379,0.469-0.586h0.341V16.69
		c0.192-0.371,0.342-0.769,0.444-1.185h0.142v-0.823c0.01-0.114,0.015-0.229,0.019-0.347h0.565v-0.584h-0.582
		c-0.019-0.197-0.042-0.395-0.079-0.586h0.661v-0.584h-0.808c-0.062-0.201-0.141-0.395-0.226-0.584h1.032L30.874,7.903L30.874,7.903
		z M24.891,18.605c-2.435,0-4.404-1.974-4.404-4.404c0-2.434,1.973-4.406,4.404-4.406s4.407,1.973,4.407,4.406
		C29.298,16.632,27.322,18.605,24.891,18.605z M19.18,11.414V8.488h2.926v1.066c-0.205,0.123-0.4,0.257-0.586,0.403V9.071h-1.754
		v1.755h0.887c-0.147,0.186-0.281,0.381-0.404,0.584h-1.066v0.003H19.18z M22.105,19.599H19.18v-2.926h0.893
		c0.104,0.203,0.217,0.398,0.346,0.586h-0.65v1.754h1.754v-0.572c0.187,0.146,0.381,0.28,0.584,0.402V19.599L22.105,19.599z
		 M30.29,11.414h-0.756c-0.123-0.205-0.257-0.399-0.403-0.586h0.573V9.074H27.95v0.651c-0.188-0.128-0.384-0.242-0.587-0.347V8.486
		h2.927V11.414L30.29,11.414z M30.874,17.844H30.29v-0.585h0.584V17.844z M27.95,20.183v-0.584h0.584v0.584H27.95z M10.958,6.899
		c-0.028,0-0.055,0.007-0.081,0.007c-0.082-0.002-0.162-0.008-0.245-0.007H10.958z M10.758,19.417c0.011,0,0.021-0.002,0.03-0.002
		c0.017,0,0.029,0.002,0.043,0.002H10.758z M15.362,14.806c-0.709,2.604-2.838,4.53-4.572,4.608c-1.902-0.041-3.776-2-4.5-4.619
		c-0.014,0.004-0.021,0.016-0.032,0.018c-0.339,0.057-0.688-0.35-0.782-0.906c-0.096-0.559,0.102-1.057,0.439-1.115
		c0.023-0.004,0.049,0.013,0.074,0.014C5.839,8.77,8.218,6.92,10.878,6.91c2.578,0.065,4.626,1.586,4.724,5.896
		c0.021,0,0.042-0.015,0.064-0.011c0.338,0.059,0.534,0.557,0.44,1.115C16.016,14.44,15.689,14.826,15.362,14.806z M35.086,24.441
		V3.566h-32.5v18.126C0.976,22.761,0,24.416,0,26.9h13.3l-3.458,6.067l1.737,0.99l4.022-7.06h5.978c0-0.008,0-0.016,0-0.021h0.478
		l4.035,7.078l1.737-0.99l-3.472-6.088h4.479v-2h-7.52c-0.041-0.15-0.09-0.297-0.141-0.438h13.909L35.086,24.441L35.086,24.441z
		 M11.956,24.878l-0.381-3.064l0.598-0.487h-1.445h-1.32l0.598,0.487l-0.383,3.064H9.617l-2.406-4.715
		c-0.942,0.127-1.82,0.318-2.623,0.586V5.565h28.5v16.875H19.913c-1.286-1.279-3.231-1.969-5.541-2.277l-2.407,4.715H11.956z
		 M22.336,3.128h-7v-2h7V3.128z"/>
</g>
<g>
</g>
<g>
</g>
<g>
</g>
<g>
</g>
<g>
</g>
<g>
</g>
<g>
</g>
<g>
</g>
<g>
</g>
<g>
</g>
<g>
</g>
<g>
</g>
<g>
</g>
<g>
</g>
<g>
</g>
</svg>
