<?xml version="1.0" encoding="iso-8859-1"?>
<!-- Generator: Adobe Illustrator 16.0.0, SVG Export Plug-In . SVG Version: 6.00 Build 0)  -->
<!DOCTYPE svg PUBLIC "-//W3C//DTD SVG 1.1//EN" "http://www.w3.org/Graphics/SVG/1.1/DTD/svg11.dtd">
<svg version="1.1" id="Capa_1" xmlns="http://www.w3.org/2000/svg" xmlns:xlink="http://www.w3.org/1999/xlink" x="0px" y="0px"
	 width="29.715px" height="29.715px" viewBox="0 0 29.715 29.715" style="enable-background:new 0 0 29.715 29.715;"
	 xml:space="preserve">
<g>
	<path d="M17.988,18.497c-0.405-0.697-0.955-1.238-1.645-1.627c-0.479-0.277-1.17-0.529-2.072-0.759
		c0.841-0.289,1.52-0.646,2.031-1.088c0.514-0.438,0.906-0.943,1.18-1.514c0.271-0.57,0.41-1.174,0.41-1.812
		c0-0.877-0.258-1.684-0.772-2.416c-0.519-0.729-1.255-1.293-2.211-1.687c-0.373-0.151-0.814-0.266-1.294-0.358V3.835h-3.266v3.174
		h-2.1V3.835H4.983v3.174H0v2.668h0.761c0.507,0,0.85,0.047,1.03,0.139c0.18,0.094,0.306,0.217,0.38,0.373
		c0.074,0.158,0.111,0.523,0.111,1.094V22.04c0,0.563-0.037,0.926-0.111,1.088c-0.074,0.16-0.2,0.287-0.38,0.373
		c-0.18,0.088-0.522,0.131-1.03,0.131H0V26.3h4.983v3.176h3.266V26.3h1.857c0.083,0,0.161,0,0.243,0v3.176h3.266v-3.448
		c0.549-0.104,1.031-0.235,1.442-0.401c1.127-0.451,2-1.109,2.615-1.974c0.617-0.856,0.926-1.805,0.926-2.823
		C18.597,19.968,18.395,19.193,17.988,18.497z M11.739,10.352c0.478,0.148,0.846,0.408,1.1,0.766
		c0.252,0.359,0.379,0.793,0.379,1.301c0,0.488-0.133,0.92-0.4,1.295c-0.269,0.371-0.666,0.65-1.197,0.833
		c-0.531,0.187-1.349,0.278-2.454,0.278H7.051V10.12h2.116C10.402,10.118,11.259,10.198,11.739,10.352z M9.618,23.216H8.21
		c-0.468,0-0.756-0.026-0.862-0.075c-0.106-0.05-0.181-0.14-0.227-0.269c-0.038-0.104-0.06-0.449-0.069-1.039v-4.18h2.497
		c1.094,0,1.909,0.105,2.443,0.307c0.533,0.203,0.933,0.506,1.2,0.898c0.267,0.398,0.4,0.879,0.4,1.453
		c0,0.67-0.189,1.246-0.565,1.727c-0.378,0.479-0.835,0.801-1.375,0.947C11.114,23.141,10.436,23.216,9.618,23.216z M26.499,6.583
		v15.985h-6.241V6.583h-3.225l6.34-6.344l6.342,6.344H26.499z"/>
</g>
<g>
</g>
<g>
</g>
<g>
</g>
<g>
</g>
<g>
</g>
<g>
</g>
<g>
</g>
<g>
</g>
<g>
</g>
<g>
</g>
<g>
</g>
<g>
</g>
<g>
</g>
<g>
</g>
<g>
</g>
</svg>
