<?xml version="1.0" encoding="iso-8859-1"?>
<!-- Generator: Adobe Illustrator 16.0.0, SVG Export Plug-In . SVG Version: 6.00 Build 0)  -->
<!DOCTYPE svg PUBLIC "-//W3C//DTD SVG 1.1//EN" "http://www.w3.org/Graphics/SVG/1.1/DTD/svg11.dtd">
<svg version="1.1" id="Capa_1" xmlns="http://www.w3.org/2000/svg" xmlns:xlink="http://www.w3.org/1999/xlink" x="0px" y="0px"
	 width="38.027px" height="38.027px" viewBox="0 0 38.027 38.027" style="enable-background:new 0 0 38.027 38.027;"
	 xml:space="preserve">
<g>
	<path d="M35.63,7.074C26.181,4.043,19.018,0,19.018,0h-0.011c0,0-7.058,4.098-16.609,7.074c0,0-3.351,21.314,16.56,30.953h0.11
		C38.981,28.389,35.63,7.074,35.63,7.074z M19.245,35.898l-0.231,0.121l-0.233-0.123C4.078,28.158,3.8,13.189,4.064,8.787
		l0.02-0.338l0.322-0.106c6.917-2.291,12.364-5.057,14.384-6.14l0.234-0.125l0.235,0.123c2.041,1.071,7.525,3.814,14.376,6.135
		l0.315,0.107l0.022,0.331C34.279,13.162,34.113,28.088,19.245,35.898z M32.997,9.174c-6.524-2.235-11.779-4.826-13.969-5.965
		c-2.172,1.152-7.397,3.766-13.985,5.976C4.829,13.79,5.418,27.582,19.014,34.891C32.765,27.514,33.253,13.758,32.997,9.174z
		 M18.878,28.451c-5.586,0-10.114-4.527-10.114-10.113S13.292,8.224,18.878,8.224s10.114,4.528,10.114,10.114
		S24.465,28.451,18.878,28.451z M19.014,27.576c-0.529,0-1.061-0.047-1.579-0.137c-0.272-0.047-0.454-0.307-0.407-0.578
		c0.048-0.271,0.302-0.455,0.579-0.408c0.928,0.162,1.903,0.162,2.829-0.002c0.271-0.051,0.531,0.133,0.579,0.404
		c0.048,0.273-0.133,0.531-0.404,0.58C20.087,27.529,19.55,27.576,19.014,27.576z M14.699,26.426c-0.085,0-0.17-0.021-0.25-0.068
		c-0.925-0.533-1.744-1.219-2.434-2.037c-0.178-0.211-0.151-0.527,0.06-0.705c0.211-0.18,0.527-0.148,0.705,0.061
		c0.614,0.729,1.344,1.34,2.169,1.814c0.239,0.141,0.321,0.445,0.183,0.686C15.039,26.334,14.871,26.426,14.699,26.426z
		 M23.342,26.416c-0.172,0-0.341-0.088-0.434-0.25c-0.14-0.238-0.058-0.545,0.183-0.682c0.822-0.479,1.551-1.09,2.165-1.82
		c0.177-0.213,0.493-0.238,0.703-0.062c0.213,0.178,0.239,0.494,0.062,0.705c-0.688,0.818-1.506,1.506-2.43,2.041
		C23.514,26.396,23.427,26.416,23.342,26.416z M10.892,21.902c-0.204,0-0.396-0.125-0.47-0.328c-0.366-1-0.553-2.051-0.555-3.124
		c0-0.276,0.223-0.5,0.499-0.501c0,0,0,0,0.001,0c0.276,0,0.5,0.223,0.5,0.499c0.002,0.957,0.168,1.894,0.494,2.784
		c0.095,0.258-0.039,0.545-0.298,0.641C11.008,21.893,10.95,21.902,10.892,21.902z M27.141,21.889c-0.058,0-0.113-0.01-0.171-0.031
		c-0.26-0.094-0.395-0.381-0.299-0.641c0.323-0.891,0.487-1.828,0.487-2.786c0-0.275,0.225-0.518,0.5-0.518s0.5,0.206,0.5,0.481
		v0.035c0,1.074-0.186,2.127-0.549,3.127C27.536,21.762,27.346,21.889,27.141,21.889z M10.881,15.991c-0.057,0-0.114-0.01-0.17-0.03
		c-0.26-0.094-0.394-0.381-0.3-0.64c0.363-1.005,0.896-1.931,1.583-2.752c0.177-0.212,0.492-0.241,0.705-0.063
		c0.212,0.177,0.24,0.493,0.063,0.705c-0.613,0.732-1.087,1.557-1.41,2.45C11.278,15.865,11.086,15.991,10.881,15.991z
		 M27.129,15.941c-0.204,0-0.396-0.125-0.47-0.326c-0.328-0.892-0.808-1.712-1.424-2.441c-0.179-0.211-0.152-0.526,0.06-0.705
		c0.211-0.179,0.526-0.152,0.704,0.06c0.691,0.817,1.229,1.74,1.6,2.74c0.096,0.26-0.037,0.546-0.296,0.643
		C27.244,15.932,27.187,15.941,27.129,15.941z M14.672,11.454c-0.172,0-0.34-0.089-0.433-0.249
		c-0.139-0.239-0.058-0.544,0.181-0.685c0.925-0.539,1.928-0.906,2.979-1.094c0.278-0.049,0.532,0.133,0.58,0.404
		c0.048,0.271-0.133,0.532-0.404,0.58c-0.937,0.167-1.83,0.495-2.653,0.974C14.844,11.432,14.757,11.454,14.672,11.454z
		 M23.312,11.428c-0.084,0-0.17-0.021-0.249-0.065c-0.826-0.476-1.721-0.798-2.658-0.958c-0.271-0.047-0.455-0.306-0.408-0.577
		c0.046-0.271,0.307-0.452,0.577-0.408c1.054,0.181,2.06,0.543,2.987,1.076c0.239,0.138,0.322,0.442,0.186,0.683
		C23.654,11.338,23.485,11.428,23.312,11.428z M22.842,19.242c-0.18-0.308-0.421-0.545-0.726-0.716
		c-0.211-0.122-0.517-0.234-0.913-0.336c0.37-0.126,0.668-0.284,0.896-0.479c0.226-0.193,0.397-0.415,0.52-0.666
		c0.12-0.252,0.181-0.519,0.181-0.799c0-0.385-0.113-0.739-0.34-1.063c-0.229-0.321-0.552-0.569-0.974-0.742
		c-0.164-0.067-0.359-0.117-0.569-0.157v-1.499h-1.439v1.396h-0.925v-1.396h-1.439v1.396h-2.194v1.175h0.335
		c0.223,0,0.374,0.021,0.453,0.062c0.08,0.04,0.135,0.095,0.167,0.164c0.033,0.069,0.049,0.229,0.049,0.479v4.738
		c0,0.248-0.016,0.406-0.049,0.479c-0.032,0.072-0.088,0.125-0.167,0.164s-0.23,0.061-0.453,0.061h-0.335v1.174h2.194v1.396h1.439
		v-1.396h0.818c0.037,0,0.07,0,0.106,0v1.396h1.438v-1.518c0.241-0.047,0.453-0.105,0.635-0.178
		c0.497-0.199,0.881-0.488,1.151-0.869c0.271-0.379,0.408-0.793,0.408-1.244C23.11,19.891,23.02,19.549,22.842,19.242z
		 M20.089,15.655c0.211,0.066,0.373,0.179,0.484,0.338c0.11,0.158,0.166,0.348,0.166,0.571c0,0.217-0.059,0.406-0.177,0.57
		c-0.117,0.164-0.292,0.286-0.526,0.368c-0.233,0.082-0.593,0.122-1.081,0.122h-0.932v-2.07h0.932
		C19.499,15.554,19.878,15.587,20.089,15.655z M19.155,21.32h-0.62c-0.207,0-0.333-0.012-0.379-0.033
		c-0.047-0.021-0.081-0.061-0.101-0.117c-0.017-0.047-0.026-0.195-0.03-0.457v-1.84h1.099c0.482,0,0.842,0.045,1.076,0.135
		c0.234,0.09,0.411,0.223,0.528,0.396c0.117,0.176,0.177,0.387,0.177,0.638c0,0.299-0.083,0.553-0.249,0.764
		s-0.368,0.352-0.604,0.416C19.814,21.287,19.515,21.32,19.155,21.32z"/>
</g>
<g>
</g>
<g>
</g>
<g>
</g>
<g>
</g>
<g>
</g>
<g>
</g>
<g>
</g>
<g>
</g>
<g>
</g>
<g>
</g>
<g>
</g>
<g>
</g>
<g>
</g>
<g>
</g>
<g>
</g>
</svg>
