<?xml version="1.0" encoding="iso-8859-1"?>
<!-- Generator: Adobe Illustrator 16.0.0, SVG Export Plug-In . SVG Version: 6.00 Build 0)  -->
<!DOCTYPE svg PUBLIC "-//W3C//DTD SVG 1.1//EN" "http://www.w3.org/Graphics/SVG/1.1/DTD/svg11.dtd">
<svg version="1.1" id="Capa_1" xmlns="http://www.w3.org/2000/svg" xmlns:xlink="http://www.w3.org/1999/xlink" x="0px" y="0px"
	 width="33.558px" height="33.559px" viewBox="0 0 33.558 33.559" style="enable-background:new 0 0 33.558 33.559;"
	 xml:space="preserve">
<g>
	<path d="M7.564,8.201C7.349,8.029,7.313,7.715,7.486,7.498c1.105-1.384,2.534-2.522,4.134-3.294
		c0.245-0.117,0.548-0.017,0.667,0.233c0.12,0.249,0.016,0.548-0.232,0.667c-1.465,0.707-2.773,1.75-3.787,3.018
		C8.17,8.246,8.025,8.311,7.877,8.311C7.767,8.312,7.657,8.276,7.564,8.201z M5.795,11.887c-0.279-0.064-0.539,0.107-0.6,0.376
		c-0.199,0.873-0.3,1.765-0.3,2.654c0.001,0.885,0.102,1.771,0.298,2.632c0.053,0.23,0.259,0.391,0.486,0.391
		c0.037,0,0.074-0.004,0.111-0.016c0.271-0.061,0.438-0.328,0.377-0.6c-0.181-0.789-0.271-1.599-0.272-2.408
		c0-0.814,0.093-1.633,0.274-2.433C6.231,12.217,6.062,11.947,5.795,11.887z M17.802,13.979c0.232-0.081,0.41-0.204,0.525-0.368
		c0.119-0.164,0.18-0.354,0.18-0.569c0-0.225-0.059-0.415-0.168-0.573c-0.111-0.159-0.273-0.271-0.484-0.338
		c-0.21-0.067-0.59-0.102-1.135-0.102h-0.933v2.073h0.933C17.209,14.1,17.568,14.06,17.802,13.979z M27.386,12.47
		c0.053,0.23,0.258,0.388,0.484,0.388c0.037,0,0.074-0.004,0.113-0.013c0.271-0.062,0.438-0.331,0.375-0.601
		c-0.396-1.725-1.193-3.369-2.303-4.757c-0.172-0.215-0.486-0.251-0.701-0.079c-0.217,0.172-0.252,0.487-0.08,0.703
		C26.292,9.383,27.021,10.89,27.386,12.47z M7.181,28.17c-0.314,0-0.605,0.238-0.682,0.576c-0.018,0.068-0.025,0.139-0.025,0.215
		v0.553c0,0.076,0.009,0.146,0.025,0.207c0.075,0.314,0.344,0.555,0.682,0.555c0.5,0,0.808-0.385,0.808-1.061
		C7.989,28.629,7.728,28.17,7.181,28.17z M16.77,4.024c0.821,0,1.646,0.094,2.448,0.28c0.789,0.181,1.553,0.448,2.271,0.793
		c0.068,0.034,0.145,0.049,0.215,0.049c0.188,0,0.365-0.104,0.451-0.284c0.119-0.249,0.016-0.548-0.232-0.667
		c-0.787-0.377-1.621-0.669-2.48-0.867c-0.877-0.202-1.775-0.306-2.673-0.306c-0.276,0-0.5,0.224-0.5,0.5S16.494,4.024,16.77,4.024z
		 M27.984,16.952c-0.268-0.061-0.541,0.126-0.602,0.396c-0.371,1.611-1.08,3.078-2.105,4.359c-0.172,0.215-0.139,0.529,0.078,0.701
		c0.092,0.074,0.201,0.111,0.312,0.111c0.145,0,0.291-0.064,0.391-0.188c1.121-1.396,1.895-3,2.301-4.764l0.008-0.041
		C28.425,17.26,28.253,17.014,27.984,16.952z M18.423,17.28c0.166-0.209,0.25-0.464,0.25-0.761c0-0.252-0.061-0.464-0.178-0.641
		c-0.117-0.174-0.295-0.307-0.529-0.396c-0.234-0.089-0.595-0.134-1.078-0.134h-1.1v1.841c0.004,0.26,0.014,0.413,0.03,0.458
		c0.021,0.057,0.054,0.096,0.103,0.117c0.045,0.021,0.172,0.035,0.379,0.035h0.621c0.359,0,0.656-0.035,0.896-0.103
		C18.054,17.633,18.257,17.493,18.423,17.28z M31.802,28.41l1.756,4.119H0l2.631-4.008L0,24.414h6.691
		c-2.346-2.486-3.793-5.826-3.793-9.506c0-7.652,6.227-13.879,13.88-13.879c7.653,0,13.88,6.227,13.88,13.879
		c0,3.68-1.447,7.02-3.793,9.506h6.691L31.802,28.41z M9.179,29.168c0.009-1.152-0.652-1.896-1.553-1.896
		c-0.521,0-0.912,0.207-1.137,0.529H6.473v-2.143H5.305v4.332c0,0.422-0.016,0.875-0.03,1.123h0.991l0.046-0.523h0.017
		c0.268,0.445,0.69,0.607,1.129,0.607C8.319,31.195,9.179,30.52,9.179,29.168z M11.072,27.355H9.904v3.756h1.168V27.355z
		 M11.111,26.311c-0.008-0.34-0.247-0.594-0.622-0.594c-0.377,0-0.623,0.252-0.614,0.594c-0.009,0.32,0.237,0.58,0.605,0.58
		C10.864,26.895,11.111,26.633,11.111,26.311z M11.511,24.414h1.69c-3.847-1.449-6.589-5.152-6.589-9.506
		c0-5.613,4.553-10.165,10.165-10.165c5.613,0,10.166,4.552,10.166,10.165c0,4.354-2.742,8.057-6.59,9.506h5.084
		c2.584-2.357,4.219-5.74,4.219-9.506c0-7.102-5.775-12.879-12.879-12.879c-7.103,0-12.88,5.778-12.88,12.879
		c0,3.766,1.635,7.148,4.22,9.506h1.556c-0.812-0.609-1.558-1.309-2.188-2.102c-0.172-0.219-0.136-0.531,0.08-0.703
		c0.215-0.172,0.53-0.139,0.703,0.08C9.154,22.801,10.272,23.725,11.511,24.414z M17.242,19.16v1.4h1.441v-1.521
		c0.24-0.047,0.453-0.105,0.635-0.178c0.496-0.199,0.881-0.488,1.152-0.869c0.27-0.38,0.408-0.795,0.408-1.247
		c0-0.378-0.092-0.721-0.27-1.026c-0.18-0.309-0.422-0.546-0.727-0.716c-0.211-0.123-0.518-0.235-0.914-0.336
		c0.371-0.126,0.67-0.285,0.896-0.479c0.225-0.193,0.398-0.415,0.52-0.667c0.123-0.252,0.182-0.519,0.182-0.799
		c0-0.386-0.115-0.74-0.344-1.063c-0.227-0.322-0.551-0.569-0.975-0.742c-0.164-0.068-0.359-0.118-0.568-0.159v-1.5H17.24v1.398
		h-0.925V9.257h-1.441v1.398h-2.195v1.176h0.336c0.224,0,0.375,0.021,0.453,0.062c0.08,0.041,0.137,0.095,0.168,0.165
		c0.033,0.068,0.049,0.229,0.049,0.48v4.742c0,0.248-0.016,0.408-0.049,0.479c-0.031,0.072-0.088,0.127-0.168,0.166
		c-0.078,0.039-0.229,0.059-0.453,0.059h-0.336v1.178h2.195v1.398h1.441v-1.398h0.818C17.174,19.16,17.207,19.16,17.242,19.16z
		 M14.155,27.355h-0.839v-1.076l-1.145,0.26v0.814h-0.5v0.859h0.5v1.537c0,0.527,0.106,0.891,0.321,1.113
		c0.187,0.191,0.5,0.322,0.876,0.322c0.33,0,0.605-0.039,0.762-0.102l-0.009-0.883c-0.085,0.016-0.2,0.031-0.345,0.031
		c-0.354,0-0.462-0.207-0.462-0.66v-1.359h0.839L14.155,27.355L14.155,27.355z M15.776,29.221c-0.008-0.613,0.392-1.053,1.007-1.053
		c0.307,0,0.514,0.053,0.653,0.115l0.184-0.867c-0.244-0.094-0.584-0.146-0.89-0.146c-1.399,0-2.152,0.896-2.152,1.996
		c0,1.184,0.777,1.922,1.99,1.922c0.446,0,0.837-0.078,1.044-0.17l-0.14-0.861c-0.176,0.068-0.392,0.115-0.668,0.115
		C16.238,30.273,15.776,29.912,15.776,29.221z M21.884,29.191c0-1.129-0.77-1.92-1.92-1.92c-1.205,0-2.006,0.773-2.006,1.986
		s0.846,1.938,1.941,1.938C20.91,31.195,21.884,30.566,21.884,29.191z M23.777,27.355h-1.168v3.756h1.168V27.355z M23.816,26.311
		c-0.008-0.34-0.246-0.594-0.621-0.594c-0.377,0-0.623,0.252-0.617,0.594c-0.006,0.32,0.24,0.58,0.607,0.58
		C23.57,26.895,23.816,26.633,23.816,26.311z M28.281,28.883c0-1.105-0.576-1.611-1.346-1.611c-0.621,0-1.006,0.357-1.158,0.598
		h-0.023l-0.055-0.514h-1.014c0.016,0.33,0.029,0.729,0.029,1.197v2.561h1.17v-2.168c0-0.107,0.014-0.225,0.045-0.293
		c0.076-0.215,0.27-0.439,0.59-0.439c0.424,0,0.594,0.332,0.594,0.814v2.082h1.168V28.883z M19.933,28.098
		c-0.562,0-0.77,0.576-0.77,1.131c0,0.645,0.271,1.129,0.77,1.129c0.453,0,0.746-0.453,0.746-1.129
		C20.679,28.668,20.464,28.098,19.933,28.098z"/>
</g>
<g>
</g>
<g>
</g>
<g>
</g>
<g>
</g>
<g>
</g>
<g>
</g>
<g>
</g>
<g>
</g>
<g>
</g>
<g>
</g>
<g>
</g>
<g>
</g>
<g>
</g>
<g>
</g>
<g>
</g>
</svg>
