<?xml version="1.0" encoding="iso-8859-1"?>
<!-- Generator: Adobe Illustrator 16.0.0, SVG Export Plug-In . SVG Version: 6.00 Build 0)  -->
<!DOCTYPE svg PUBLIC "-//W3C//DTD SVG 1.1//EN" "http://www.w3.org/Graphics/SVG/1.1/DTD/svg11.dtd">
<svg version="1.1" id="Capa_1" xmlns="http://www.w3.org/2000/svg" xmlns:xlink="http://www.w3.org/1999/xlink" x="0px" y="0px"
	 width="29.732px" height="29.732px" viewBox="0 0 29.732 29.732" style="enable-background:new 0 0 29.732 29.732;"
	 xml:space="preserve">
<g>
	<path d="M20.694,19.47c-0.271-0.467-0.642-0.83-1.103-1.09c-0.324-0.185-0.785-0.354-1.394-0.509
		c0.565-0.192,1.021-0.435,1.364-0.729c0.346-0.293,0.607-0.631,0.789-1.016c0.184-0.384,0.277-0.787,0.277-1.215
		c0-0.587-0.176-1.126-0.521-1.618c-0.348-0.492-0.844-0.869-1.482-1.131c-0.25-0.102-0.546-0.179-0.867-0.241V9.639h-2.188v2.129
		h-1.408V9.639h-2.19v2.129H8.627v1.79h0.51c0.34,0,0.571,0.031,0.691,0.093c0.122,0.062,0.205,0.145,0.256,0.25
		c0.049,0.105,0.073,0.348,0.073,0.732v7.215c0,0.377-0.024,0.621-0.073,0.729c-0.051,0.107-0.134,0.191-0.256,0.25
		c-0.12,0.059-0.354,0.088-0.691,0.088h-0.51v1.79h3.344v2.128h2.19v-2.128h1.245c0.057,0,0.107-0.001,0.163-0.001v2.13h2.188
		v-2.312c0.366-0.068,0.69-0.159,0.969-0.271c0.755-0.303,1.338-0.742,1.754-1.322c0.412-0.578,0.621-1.209,0.621-1.896
		C21.102,20.456,20.969,19.937,20.694,19.47z M16.504,14.007c0.321,0.103,0.566,0.274,0.737,0.515
		c0.171,0.241,0.253,0.531,0.253,0.871c0,0.328-0.089,0.617-0.27,0.869c-0.18,0.25-0.446,0.437-0.803,0.561
		c-0.354,0.123-0.904,0.186-1.646,0.186h-1.417v-3.152h1.417C15.604,13.854,16.18,13.905,16.504,14.007z M15.079,22.636h-0.943
		c-0.312,0-0.506-0.017-0.578-0.052c-0.068-0.034-0.121-0.094-0.152-0.18c-0.023-0.069-0.039-0.3-0.044-0.696v-2.8h1.674
		c0.731,0,1.281,0.067,1.64,0.205c0.355,0.135,0.625,0.336,0.803,0.603c0.183,0.268,0.271,0.59,0.271,0.975
		c0,0.451-0.125,0.838-0.379,1.158c-0.253,0.322-0.562,0.533-0.922,0.636C16.086,22.584,15.631,22.636,15.079,22.636z M7.386,26.866
		H0V16.663h7.386V26.866z M29.732,26.866h-7.387v-24h7.387V26.866z"/>
</g>
<g>
</g>
<g>
</g>
<g>
</g>
<g>
</g>
<g>
</g>
<g>
</g>
<g>
</g>
<g>
</g>
<g>
</g>
<g>
</g>
<g>
</g>
<g>
</g>
<g>
</g>
<g>
</g>
<g>
</g>
</svg>
