<?xml version="1.0" encoding="iso-8859-1"?>
<!-- Generator: Adobe Illustrator 16.0.0, SVG Export Plug-In . SVG Version: 6.00 Build 0)  -->
<!DOCTYPE svg PUBLIC "-//W3C//DTD SVG 1.1//EN" "http://www.w3.org/Graphics/SVG/1.1/DTD/svg11.dtd">
<svg version="1.1" id="Capa_1" xmlns="http://www.w3.org/2000/svg" xmlns:xlink="http://www.w3.org/1999/xlink" x="0px" y="0px"
	 width="30.977px" height="30.977px" viewBox="0 0 30.977 30.977" style="enable-background:new 0 0 30.977 30.977;"
	 xml:space="preserve">
<g>
	<path d="M21.617,23.236c-0.278-0.482-0.662-0.859-1.141-1.127c-0.336-0.191-0.812-0.369-1.441-0.527
		c0.586-0.199,1.058-0.451,1.412-0.754c0.357-0.305,0.631-0.656,0.818-1.053c0.189-0.396,0.285-0.816,0.285-1.26
		c0-0.605-0.18-1.166-0.537-1.674c-0.357-0.51-0.873-0.899-1.535-1.171c-0.258-0.105-0.564-0.187-0.898-0.25v-2.362h-2.268v2.204
		h-1.457v-2.204h-2.27v2.204H9.124v1.854h0.527c0.353,0,0.592,0.031,0.716,0.096c0.126,0.064,0.213,0.15,0.266,0.258
		c0.049,0.109,0.076,0.361,0.076,0.76v7.471c0,0.391-0.027,0.643-0.076,0.754c-0.053,0.111-0.14,0.197-0.266,0.26
		c-0.124,0.062-0.363,0.09-0.716,0.09H9.124v1.855h3.462v2.203h2.27v-2.205h1.289c0.057,0,0.111,0,0.168-0.002v2.207h2.268v-2.396
		c0.382-0.07,0.718-0.166,1.003-0.277c0.782-0.314,1.387-0.771,1.815-1.369c0.428-0.6,0.644-1.254,0.644-1.965
		C22.042,24.258,21.9,23.719,21.617,23.236z M17.279,17.58c0.334,0.107,0.586,0.285,0.765,0.535c0.176,0.25,0.262,0.549,0.262,0.9
		c0,0.34-0.092,0.639-0.274,0.896c-0.188,0.26-0.465,0.453-0.832,0.582c-0.367,0.127-0.938,0.191-1.706,0.191h-1.468V17.42h1.468
		C16.348,17.422,16.945,17.473,17.279,17.58z M15.804,26.514h-0.977c-0.324,0-0.525-0.018-0.599-0.053
		c-0.072-0.035-0.126-0.098-0.159-0.188c-0.023-0.07-0.04-0.311-0.046-0.721v-2.9h1.733c0.757,0,1.326,0.07,1.695,0.213
		c0.371,0.141,0.647,0.35,0.834,0.623c0.186,0.275,0.277,0.611,0.277,1.008c0,0.469-0.13,0.867-0.394,1.201
		c-0.263,0.332-0.582,0.553-0.955,0.656C16.844,26.463,16.373,26.514,15.804,26.514z M7.839,30.896H0.192V20.332h7.647V30.896z
		 M30.977,30.896H23.33V6.045h7.646V30.896z M23.223,2.813L1.343,18.555L0,16.686L21.881,0.943L21.262,0.08l3.088,0.507
		l-0.508,3.088L23.223,2.813z"/>
</g>
<g>
</g>
<g>
</g>
<g>
</g>
<g>
</g>
<g>
</g>
<g>
</g>
<g>
</g>
<g>
</g>
<g>
</g>
<g>
</g>
<g>
</g>
<g>
</g>
<g>
</g>
<g>
</g>
<g>
</g>
</svg>
