<?xml version="1.0" encoding="iso-8859-1"?>
<!-- Generator: Adobe Illustrator 16.0.0, SVG Export Plug-In . SVG Version: 6.00 Build 0)  -->
<!DOCTYPE svg PUBLIC "-//W3C//DTD SVG 1.1//EN" "http://www.w3.org/Graphics/SVG/1.1/DTD/svg11.dtd">
<svg version="1.1" id="Capa_1" xmlns="http://www.w3.org/2000/svg" xmlns:xlink="http://www.w3.org/1999/xlink" x="0px" y="0px"
	 width="35.086px" height="35.086px" viewBox="0 0 35.086 35.086" style="enable-background:new 0 0 35.086 35.086;"
	 xml:space="preserve">
<g>
	<path d="M30.461,14.264c0-1.618-0.791-3.049-2.004-3.936c0.318-0.021,0.572-0.285,0.572-0.61c0-0.338-0.275-0.611-0.613-0.611
		h-0.139l1.059-2.067h-7.504l1.061,2.067h-0.139c-0.34,0-0.613,0.273-0.613,0.611c0,0.325,0.254,0.59,0.572,0.61
		c-1.213,0.887-2.006,2.315-2.006,3.936v7.073h9.752v-7.073H30.461z M25.586,19.404c-1.898,0-3.438-1.538-3.438-3.437
		c0-1.898,1.539-3.438,3.438-3.438c1.896,0,3.438,1.539,3.438,3.438C29.023,17.867,27.482,19.404,25.586,19.404z M26.75,16.004
		c-0.08-0.047-0.193-0.088-0.342-0.125c0.139-0.05,0.25-0.108,0.334-0.181c0.086-0.073,0.15-0.155,0.195-0.25
		c0.045-0.096,0.065-0.194,0.065-0.301c0-0.145-0.041-0.276-0.127-0.398c-0.084-0.12-0.207-0.213-0.365-0.277
		c-0.062-0.025-0.135-0.045-0.213-0.061V13.85h-0.541v0.522h-0.346V13.85H24.87v0.522h-0.822v0.44h0.125
		c0.082,0,0.14,0.008,0.168,0.022c0.031,0.017,0.052,0.036,0.063,0.062c0.013,0.026,0.019,0.088,0.019,0.181v1.778
		c0,0.094-0.006,0.152-0.019,0.181c-0.014,0.026-0.032,0.047-0.063,0.062c-0.028,0.016-0.086,0.021-0.168,0.021h-0.125v0.441h0.822
		v0.523h0.541v-0.523h0.307c0.015,0,0.027-0.002,0.041-0.002v0.525h0.539v-0.57c0.091-0.018,0.17-0.039,0.238-0.066
		c0.187-0.073,0.332-0.184,0.432-0.325c0.103-0.141,0.154-0.297,0.154-0.467c0-0.142-0.035-0.27-0.103-0.385
		C26.953,16.155,26.863,16.068,26.75,16.004z M25.215,14.889h0.35c0.205,0,0.347,0.013,0.424,0.038
		c0.08,0.023,0.142,0.066,0.185,0.126c0.041,0.062,0.062,0.132,0.062,0.216c0,0.08-0.021,0.151-0.064,0.215
		c-0.045,0.061-0.109,0.105-0.197,0.138c-0.088,0.028-0.223,0.045-0.404,0.045h-0.352v-0.778H25.215z M26.201,16.859
		c-0.062,0.078-0.139,0.131-0.227,0.156c-0.089,0.026-0.201,0.039-0.336,0.039h-0.232c-0.078,0-0.125-0.007-0.143-0.013
		c-0.019-0.011-0.031-0.024-0.039-0.046c-0.007-0.016-0.011-0.073-0.011-0.17v-0.691h0.412c0.181,0,0.313,0.018,0.403,0.051
		c0.089,0.033,0.154,0.082,0.197,0.148c0.045,0.064,0.066,0.145,0.066,0.238C26.295,16.683,26.266,16.779,26.201,16.859z
		 M10.959,6.9c-0.028,0-0.054,0.008-0.081,0.008C10.796,6.906,10.716,6.9,10.633,6.9H10.959z M10.758,19.417
		c0.01,0,0.021-0.002,0.031-0.002c0.015,0,0.028,0.002,0.042,0.002H10.758z M5.475,13.906c-0.095-0.56,0.103-1.058,0.44-1.115
		c0.024-0.004,0.048,0.012,0.074,0.013c-0.15-4.036,2.23-5.885,4.889-5.896c2.579,0.063,4.626,1.584,4.724,5.895
		c0.021,0,0.042-0.014,0.064-0.011c0.338,0.06,0.535,0.558,0.44,1.114c-0.09,0.535-0.417,0.921-0.743,0.899
		c-0.709,2.605-2.838,4.532-4.573,4.61c-1.903-0.041-3.777-2.001-4.501-4.621c-0.012,0.004-0.021,0.016-0.032,0.018
		C5.918,14.869,5.567,14.462,5.475,13.906z M22.336,3.129h-7v-2h7V3.129z M35.086,3.568h-32.5v18.125
		C0.975,22.762,0,24.415,0,26.898h13.301l-3.458,6.068l1.737,0.99l4.023-7.059h5.978c0-0.008,0-0.015,0-0.021h0.478l4.034,7.08
		l1.738-0.99l-3.472-6.09h4.478v-2H21.32c-0.043-0.15-0.09-0.295-0.143-0.438h13.908V3.568L35.086,3.568z M33.086,22.441H19.914
		c-1.289-1.278-3.233-1.969-5.542-2.276l-2.409,4.715h-0.007l-0.381-3.063l0.597-0.488h-1.445H9.406l0.597,0.488L9.622,24.88H9.615
		l-2.407-4.715c-0.943,0.127-1.821,0.317-2.624,0.586V5.568h28.5v16.875h0.002V22.441z"/>
</g>
<g>
</g>
<g>
</g>
<g>
</g>
<g>
</g>
<g>
</g>
<g>
</g>
<g>
</g>
<g>
</g>
<g>
</g>
<g>
</g>
<g>
</g>
<g>
</g>
<g>
</g>
<g>
</g>
<g>
</g>
</svg>
