<?xml version="1.0" encoding="iso-8859-1"?>
<!-- Generator: Adobe Illustrator 16.0.0, SVG Export Plug-In . SVG Version: 6.00 Build 0)  -->
<!DOCTYPE svg PUBLIC "-//W3C//DTD SVG 1.1//EN" "http://www.w3.org/Graphics/SVG/1.1/DTD/svg11.dtd">
<svg version="1.1" id="Capa_1" xmlns="http://www.w3.org/2000/svg" xmlns:xlink="http://www.w3.org/1999/xlink" x="0px" y="0px"
	 width="35.36px" height="35.36px" viewBox="0 0 35.36 35.36" style="enable-background:new 0 0 35.36 35.36;" xml:space="preserve"
	>
<g>
	<path d="M13.737,16.374c0.075,0.114,0.113,0.251,0.113,0.416c0,0.191-0.054,0.357-0.162,0.494
		c-0.107,0.137-0.238,0.229-0.393,0.271c-0.155,0.043-0.348,0.064-0.582,0.064h-0.402c-0.134,0-0.217-0.008-0.246-0.021
		c-0.031-0.016-0.052-0.041-0.064-0.078c-0.012-0.027-0.018-0.127-0.021-0.295v-1.194h0.714c0.313,0,0.547,0.029,0.698,0.087
		C13.545,16.176,13.659,16.262,13.737,16.374z M19.217,15.743c0,3.643-2.953,6.596-6.596,6.596s-6.594-2.953-6.594-6.596
		c0-3.643,2.951-6.595,6.594-6.595C16.264,9.148,19.217,12.101,19.217,15.743z M15.282,16.936c0-0.247-0.058-0.468-0.174-0.667
		c-0.115-0.2-0.271-0.354-0.471-0.466c-0.137-0.079-0.334-0.151-0.593-0.217c0.241-0.082,0.435-0.188,0.581-0.312
		s0.259-0.27,0.338-0.433c0.076-0.163,0.115-0.336,0.115-0.519c0-0.25-0.072-0.48-0.221-0.69c-0.146-0.209-0.357-0.371-0.632-0.482
		c-0.106-0.043-0.233-0.076-0.37-0.102v-0.974H12.92v0.908h-0.601v-0.908h-0.935v0.908H9.957v0.763h0.223
		c0.146,0,0.243,0.014,0.295,0.04c0.053,0.026,0.087,0.063,0.107,0.106c0.021,0.045,0.033,0.149,0.033,0.313v3.077
		c0,0.161-0.012,0.264-0.033,0.311s-0.057,0.082-0.107,0.106c-0.052,0.024-0.148,0.038-0.295,0.038H9.962V18.5h1.426v0.908h0.935
		V18.5h0.53c0.024,0,0.048,0,0.069,0v0.909h0.935v-0.987c0.156-0.029,0.294-0.068,0.412-0.115c0.322-0.127,0.571-0.314,0.748-0.562
		C15.194,17.497,15.282,17.227,15.282,16.936z M13.285,15.14c0.151-0.053,0.267-0.133,0.343-0.239
		c0.077-0.104,0.114-0.229,0.114-0.369c0-0.146-0.035-0.269-0.107-0.372c-0.073-0.104-0.178-0.176-0.314-0.219
		c-0.138-0.043-0.383-0.066-0.736-0.066H11.98v1.345h0.604C12.903,15.22,13.135,15.193,13.285,15.14z M35.36,22.455
		c0,3.858-3.14,6.997-6.996,6.997H6.996C3.139,29.452,0,26.313,0,22.455c0-2.219,1.078-4.317,2.854-5.629
		c-0.043-0.37-0.064-0.729-0.064-1.083c0-5.422,4.41-9.834,9.832-9.834c4.132,0,7.752,2.55,9.185,6.333
		c0.785-0.297,1.617-0.451,2.459-0.451c2.711,0,5.197,1.604,6.338,4.041C33.428,16.785,35.36,19.438,35.36,22.455z M33.36,22.455
		c0-2.274-1.539-4.261-3.744-4.831c-0.312-0.081-0.567-0.309-0.685-0.611c-0.735-1.926-2.61-3.222-4.668-3.222
		c-0.896,0-1.778,0.246-2.559,0.71c-0.271,0.163-0.604,0.186-0.896,0.064c-0.293-0.123-0.512-0.377-0.586-0.685
		c-0.858-3.516-3.983-5.972-7.602-5.972c-4.318,0-7.832,3.514-7.832,7.834c0,0.44,0.043,0.894,0.131,1.388
		c0.072,0.41-0.115,0.822-0.473,1.035C2.914,19.078,2,20.68,2,22.454c0,2.755,2.24,4.997,4.996,4.997h21.367
		C31.118,27.452,33.36,25.211,33.36,22.455z M32.36,21.955c-0.275,0-0.5,0.224-0.5,0.5c0,1.929-1.568,3.497-3.496,3.497h-3.017
		c-0.276,0-0.5,0.225-0.5,0.5s0.224,0.5,0.5,0.5h3.017c2.479,0,4.496-2.018,4.496-4.497C32.86,22.178,32.637,21.955,32.36,21.955z
		 M27.532,17.549l0.367,0.963c0.059,0.151,0.186,0.267,0.342,0.308l1,0.259c0.519,0.135,1.004,0.389,1.405,0.734
		c0.095,0.08,0.211,0.121,0.326,0.121c0.142,0,0.281-0.06,0.379-0.174c0.181-0.209,0.156-0.523-0.053-0.705
		c-0.52-0.447-1.145-0.773-1.811-0.947l-0.748-0.193l-0.275-0.725c-0.662-1.733-2.352-2.898-4.201-2.898
		c-0.807,0-1.602,0.221-2.301,0.64c-0.236,0.142-0.314,0.448-0.174,0.686s0.447,0.312,0.688,0.173
		c0.545-0.326,1.162-0.498,1.787-0.498C25.701,15.292,27.016,16.2,27.532,17.549z"/>
</g>
<g>
</g>
<g>
</g>
<g>
</g>
<g>
</g>
<g>
</g>
<g>
</g>
<g>
</g>
<g>
</g>
<g>
</g>
<g>
</g>
<g>
</g>
<g>
</g>
<g>
</g>
<g>
</g>
<g>
</g>
</svg>
