<?xml version="1.0" encoding="iso-8859-1"?>
<!-- Generator: Adobe Illustrator 16.0.0, SVG Export Plug-In . SVG Version: 6.00 Build 0)  -->
<!DOCTYPE svg PUBLIC "-//W3C//DTD SVG 1.1//EN" "http://www.w3.org/Graphics/SVG/1.1/DTD/svg11.dtd">
<svg version="1.1" id="Capa_1" xmlns="http://www.w3.org/2000/svg" xmlns:xlink="http://www.w3.org/1999/xlink" x="0px" y="0px"
	 width="47.377px" height="47.377px" viewBox="0 0 47.377 47.377" style="enable-background:new 0 0 47.377 47.377;"
	 xml:space="preserve">
<g>
	<path d="M27.088,33.795v-2.719c0.435-0.083,0.813-0.188,1.139-0.318c0.889-0.355,1.577-0.874,2.062-1.553
		c0.486-0.681,0.729-1.424,0.729-2.229c0-0.677-0.16-1.288-0.479-1.837c-0.318-0.549-0.752-0.977-1.297-1.282
		c-0.377-0.218-0.922-0.418-1.634-0.6c0.664-0.227,1.198-0.51,1.603-0.856c0.404-0.345,0.715-0.743,0.932-1.193
		c0.215-0.451,0.32-0.927,0.32-1.429c0-0.69-0.202-1.325-0.608-1.903c-0.407-0.578-0.988-1.021-1.743-1.33
		c-0.292-0.12-0.641-0.209-1.021-0.283V13.58h-2.574v2.501h-1.656V13.58h-2.576v2.501h-3.929v2.105h0.6
		c0.399,0,0.67,0.036,0.812,0.109c0.142,0.073,0.242,0.171,0.3,0.294c0.058,0.124,0.087,0.411,0.087,0.861v8.483
		c0,0.442-0.029,0.729-0.087,0.855c-0.059,0.127-0.158,0.227-0.3,0.294c-0.142,0.068-0.413,0.104-0.812,0.104h-0.6v2.104h3.929
		v2.502h2.576v-2.502h1.465c0.066,0,0.126-0.002,0.19-0.002v2.504h2.573L27.088,33.795L27.088,33.795z M21.916,18.538h1.667
		c0.976,0,1.65,0.06,2.028,0.18c0.378,0.12,0.667,0.322,0.867,0.605c0.2,0.284,0.3,0.625,0.3,1.025c0,0.385-0.105,0.725-0.316,1.02
		c-0.211,0.295-0.523,0.515-0.941,0.659c-0.417,0.146-1.063,0.219-1.937,0.219h-1.667V18.538z M23.938,28.863h-1.11
		c-0.37,0-0.597-0.021-0.681-0.062c-0.083-0.039-0.143-0.109-0.179-0.212c-0.029-0.08-0.047-0.354-0.054-0.817v-3.293h1.969
		c0.863,0,1.505,0.081,1.926,0.239c0.42,0.16,0.734,0.396,0.944,0.709c0.211,0.312,0.316,0.694,0.316,1.146
		c0,0.531-0.148,0.985-0.446,1.363c-0.297,0.378-0.657,0.627-1.082,0.747C25.119,28.802,24.584,28.863,23.938,28.863z
		 M11.913,21.626L6.68,26.622c-0.186,0.178-0.434,0.275-0.69,0.275c-0.008,0-0.016,0-0.022,0c-0.265-0.006-0.517-0.117-0.7-0.31
		l-4.992-5.234c-0.381-0.4-0.366-1.033,0.033-1.414c0.4-0.381,1.033-0.366,1.414,0.033l3.269,3.427
		c0.113-7.865,5.172-14.89,12.735-17.417c8.068-2.695,16.936,0.413,21.563,7.558c0.3,0.463,0.168,1.083-0.296,1.383
		c-0.464,0.301-1.083,0.167-1.383-0.296c-4.132-6.38-12.05-9.156-19.252-6.749c-6.792,2.27-11.317,8.604-11.365,15.677l3.54-3.378
		c0.4-0.38,1.032-0.367,1.414,0.033C12.327,20.61,12.312,21.245,11.913,21.626z M47.086,27.238
		c-0.389,0.393-1.021,0.396-1.414,0.008l-3.387-3.354c-0.076,7.901-5.141,14.969-12.729,17.505
		c-1.944,0.649-3.938,0.962-5.905,0.962c-6.194,0-12.147-3.098-15.661-8.521c-0.3-0.463-0.168-1.083,0.296-1.383
		c0.464-0.301,1.083-0.168,1.383,0.296c4.132,6.379,12.049,9.154,19.251,6.749c6.791-2.271,11.315-8.604,11.364-15.677l-3.431,3.463
		c-0.196,0.196-0.453,0.296-0.71,0.296c-0.254,0-0.51-0.098-0.704-0.29c-0.394-0.39-0.396-1.021-0.006-1.415l5.092-5.139
		c0.389-0.393,1.021-0.396,1.414-0.006l5.141,5.09C47.474,26.211,47.477,26.844,47.086,27.238z"/>
</g>
<g>
</g>
<g>
</g>
<g>
</g>
<g>
</g>
<g>
</g>
<g>
</g>
<g>
</g>
<g>
</g>
<g>
</g>
<g>
</g>
<g>
</g>
<g>
</g>
<g>
</g>
<g>
</g>
<g>
</g>
</svg>
