<?xml version="1.0" encoding="iso-8859-1"?>
<!-- Generator: Adobe Illustrator 16.0.0, SVG Export Plug-In . SVG Version: 6.00 Build 0)  -->
<!DOCTYPE svg PUBLIC "-//W3C//DTD SVG 1.1//EN" "http://www.w3.org/Graphics/SVG/1.1/DTD/svg11.dtd">
<svg version="1.1" id="Capa_1" xmlns="http://www.w3.org/2000/svg" xmlns:xlink="http://www.w3.org/1999/xlink" x="0px" y="0px"
	 width="36.468px" height="36.469px" viewBox="0 0 36.468 36.469" style="enable-background:new 0 0 36.468 36.469;"
	 xml:space="preserve">
<g>
	<path d="M33.781,4.84C27.314,2.766,22.414,0,22.414,0h-0.01c0,0-4.83,2.805-11.368,4.841c0,0-2.294,14.589,11.335,21.187h0.073
		C36.075,19.429,33.781,4.84,33.781,4.84z M22.567,24.568l-0.159,0.084l-0.158-0.084C12.187,19.27,11.997,9.027,12.176,6.012
		l0.014-0.23l0.22-0.073c4.734-1.568,8.463-3.461,9.846-4.203l0.16-0.086l0.16,0.084c1.396,0.734,5.149,2.611,9.841,4.199
		l0.216,0.073l0.016,0.227C32.856,9.007,32.744,19.222,22.567,24.568z M31.98,6.278c-4.466-1.53-8.062-3.304-9.561-4.083
		c-1.487,0.789-5.063,2.577-9.572,4.09c-0.147,3.151,0.257,12.592,9.561,17.593C31.82,18.831,32.154,9.415,31.98,6.278z
		 M22.315,19.471c-3.824,0-6.922-3.099-6.922-6.922c0-3.824,3.099-6.923,6.922-6.923s6.923,3.099,6.923,6.923
		C29.238,16.373,26.139,19.471,22.315,19.471z M22.408,18.873c-0.36,0-0.726-0.031-1.078-0.093
		c-0.188-0.032-0.312-0.209-0.279-0.396c0.033-0.186,0.207-0.311,0.396-0.278c0.637,0.111,1.305,0.11,1.938-0.002
		c0.185-0.034,0.363,0.092,0.396,0.278c0.033,0.187-0.091,0.363-0.275,0.396C23.143,18.841,22.775,18.873,22.408,18.873z
		 M19.457,18.085c-0.06,0-0.117-0.015-0.173-0.046c-0.633-0.365-1.193-0.834-1.666-1.396c-0.121-0.145-0.103-0.36,0.041-0.481
		c0.146-0.123,0.361-0.104,0.482,0.041c0.42,0.5,0.919,0.917,1.484,1.243c0.164,0.094,0.22,0.304,0.125,0.467
		C19.689,18.023,19.573,18.085,19.457,18.085z M25.373,18.08c-0.118,0-0.233-0.062-0.298-0.17c-0.095-0.164-0.037-0.373,0.125-0.468
		c0.563-0.327,1.062-0.746,1.482-1.246c0.122-0.146,0.338-0.164,0.482-0.042c0.144,0.122,0.164,0.337,0.042,0.481
		c-0.473,0.562-1.03,1.032-1.663,1.398C25.488,18.064,25.429,18.08,25.373,18.08z M16.85,14.991c-0.14,0-0.271-0.086-0.322-0.226
		c-0.25-0.685-0.378-1.403-0.379-2.139c0-0.189,0.153-0.343,0.341-0.343c0,0,0,0,0.001,0c0.188,0,0.343,0.151,0.343,0.341
		c0.001,0.655,0.114,1.296,0.338,1.905c0.064,0.177-0.026,0.374-0.204,0.438C16.929,14.984,16.889,14.991,16.85,14.991z
		 M27.971,14.979c-0.039,0-0.078-0.007-0.117-0.021c-0.177-0.065-0.269-0.261-0.205-0.438c0.224-0.609,0.334-1.252,0.334-1.906
		c0-0.189,0.153-0.354,0.342-0.354c0.189,0,0.344,0.142,0.344,0.331v0.024c0,0.734-0.126,1.456-0.376,2.141
		C28.242,14.892,28.111,14.979,27.971,14.979z M16.842,10.944c-0.039,0-0.078-0.007-0.116-0.021
		c-0.178-0.063-0.27-0.261-0.206-0.438c0.249-0.688,0.613-1.321,1.083-1.885c0.121-0.145,0.337-0.165,0.482-0.043
		c0.145,0.121,0.164,0.337,0.043,0.482c-0.419,0.501-0.744,1.064-0.965,1.677C17.113,10.856,16.982,10.944,16.842,10.944z
		 M27.963,10.91c-0.142,0-0.271-0.086-0.321-0.225c-0.225-0.608-0.552-1.172-0.975-1.671c-0.122-0.146-0.104-0.359,0.041-0.481
		c0.145-0.122,0.358-0.104,0.48,0.041c0.475,0.56,0.842,1.19,1.094,1.876c0.065,0.178-0.023,0.374-0.201,0.438
		C28.043,10.904,28.003,10.91,27.963,10.91z M19.437,7.838c-0.118,0-0.231-0.061-0.296-0.17c-0.095-0.163-0.04-0.373,0.124-0.468
		c0.633-0.369,1.32-0.621,2.04-0.749c0.19-0.034,0.364,0.091,0.396,0.276c0.032,0.187-0.092,0.364-0.275,0.397
		c-0.644,0.114-1.253,0.339-1.816,0.667C19.554,7.824,19.497,7.838,19.437,7.838z M25.35,7.821c-0.058,0-0.116-0.016-0.17-0.045
		c-0.565-0.325-1.178-0.547-1.819-0.656c-0.187-0.032-0.312-0.209-0.278-0.396c0.03-0.186,0.21-0.309,0.395-0.279
		c0.722,0.124,1.41,0.372,2.045,0.736c0.164,0.095,0.221,0.304,0.126,0.467C25.585,7.759,25.469,7.821,25.35,7.821z M25.028,13.169
		c-0.123-0.21-0.288-0.374-0.496-0.49c-0.145-0.084-0.353-0.16-0.625-0.229c0.254-0.086,0.458-0.195,0.612-0.328
		c0.154-0.132,0.273-0.284,0.355-0.456c0.082-0.173,0.123-0.355,0.123-0.547c0-0.265-0.078-0.506-0.232-0.728
		C24.609,10.17,24.387,10,24.098,9.883c-0.112-0.046-0.246-0.081-0.39-0.107V8.75h-0.985v0.957H22.09V8.75h-0.985v0.957h-1.502
		v0.804h0.229c0.151,0,0.256,0.016,0.311,0.042c0.054,0.027,0.092,0.065,0.114,0.112c0.021,0.047,0.034,0.157,0.034,0.329v3.243
		c0,0.17-0.013,0.278-0.034,0.327c-0.022,0.049-0.062,0.086-0.114,0.112c-0.054,0.027-0.158,0.04-0.311,0.04h-0.229v0.804h1.502
		v0.957h0.985V15.52h0.56c0.025,0,0.048-0.001,0.073-0.001v0.958h0.985v-1.039c0.165-0.031,0.31-0.071,0.434-0.121
		c0.34-0.137,0.604-0.334,0.788-0.595c0.186-0.26,0.279-0.543,0.279-0.852C25.212,13.613,25.15,13.379,25.028,13.169z
		 M23.144,10.713c0.146,0.046,0.255,0.123,0.332,0.231c0.076,0.107,0.114,0.237,0.114,0.391c0,0.148-0.04,0.278-0.12,0.391
		c-0.081,0.112-0.2,0.196-0.361,0.251c-0.16,0.057-0.404,0.083-0.737,0.083h-0.64v-1.417h0.64
		C22.741,10.643,23.001,10.668,23.144,10.713z M22.505,14.591h-0.424c-0.144,0-0.229-0.008-0.262-0.022
		c-0.03-0.017-0.055-0.043-0.067-0.082c-0.013-0.031-0.02-0.135-0.021-0.313v-1.259h0.752c0.331,0,0.576,0.03,0.737,0.091
		c0.161,0.062,0.281,0.152,0.362,0.271c0.08,0.12,0.121,0.266,0.121,0.438c0,0.203-0.059,0.376-0.172,0.521
		c-0.112,0.145-0.252,0.239-0.413,0.285C22.958,14.569,22.753,14.591,22.505,14.591z M34.613,27.127H12.958L7.859,11.783
		c-0.101-0.305-0.341-0.541-0.646-0.639L2.159,9.537c-0.524-0.166-1.088,0.124-1.256,0.649c-0.167,0.526,0.124,1.09,0.65,1.257
		l4.568,1.452l5.164,15.546c0.137,0.408,0.52,0.686,0.949,0.686h5.727c-1.763,0.283-3.116,1.801-3.116,3.643
		c0,2.041,1.66,3.699,3.7,3.699c2.042,0,3.701-1.66,3.701-3.699c0-1.841-1.354-3.359-3.116-3.643h8.896
		c-1.762,0.283-3.116,1.801-3.116,3.643c0,2.041,1.66,3.699,3.7,3.699s3.7-1.66,3.7-3.699c0-1.841-1.354-3.359-3.116-3.643h5.419
		c0.554,0,1-0.448,1-1C35.613,27.574,35.167,27.127,34.613,27.127z M20.247,32.768c0,0.938-0.765,1.699-1.701,1.699
		c-0.938,0-1.7-0.764-1.7-1.699c0-0.938,0.763-1.701,1.7-1.701C19.482,31.068,20.247,31.83,20.247,32.768z M30.31,32.768
		c0,0.938-0.763,1.699-1.7,1.699c-0.937,0-1.699-0.764-1.699-1.699c0-0.938,0.764-1.701,1.699-1.701
		C29.547,31.066,30.31,31.83,30.31,32.768z"/>
</g>
<g>
</g>
<g>
</g>
<g>
</g>
<g>
</g>
<g>
</g>
<g>
</g>
<g>
</g>
<g>
</g>
<g>
</g>
<g>
</g>
<g>
</g>
<g>
</g>
<g>
</g>
<g>
</g>
<g>
</g>
</svg>
