<?xml version="1.0" encoding="iso-8859-1"?>
<!-- Generator: Adobe Illustrator 16.0.0, SVG Export Plug-In . SVG Version: 6.00 Build 0)  -->
<!DOCTYPE svg PUBLIC "-//W3C//DTD SVG 1.1//EN" "http://www.w3.org/Graphics/SVG/1.1/DTD/svg11.dtd">
<svg version="1.1" id="Capa_1" xmlns="http://www.w3.org/2000/svg" xmlns:xlink="http://www.w3.org/1999/xlink" x="0px" y="0px"
	 width="35.57px" height="35.57px" viewBox="0 0 35.57 35.57" style="enable-background:new 0 0 35.57 35.57;" xml:space="preserve"
	>
<g>
	<path d="M1.916,10.745V8.038c0-0.428,0.348-0.775,0.773-0.775h15.283c0.429,0,0.771,0.348,0.771,0.775v2.707
		c0,0.429-0.345,0.775-0.771,0.775H2.69C2.264,11.52,1.916,11.174,1.916,10.745z M2.69,6.124h15.283
		c0.429,0,0.771-0.347,0.771-0.775V2.642c0-0.428-0.344-0.775-0.771-0.775H2.69c-0.428,0-0.773,0.348-0.773,0.775v2.707
		C1.916,5.777,2.264,6.124,2.69,6.124z M17.563,12.994c0.264-0.131,0.527-0.261,0.792-0.392c-0.114-0.066-0.24-0.115-0.382-0.115
		H2.69c-0.428,0-0.773,0.347-0.773,0.774v1.513c1.664,1.104,3.417,1.658,5.312,1.658C10.629,16.432,14.154,14.684,17.563,12.994z
		 M35.57,13.651v15.92c-2.223-1.913-4.598-2.849-7.23-2.849c-3.635,0-7.268,1.803-10.779,3.543
		c-3.407,1.69-6.933,3.438-10.334,3.438l0,0c-2.635,0-5-1.048-7.227-3.2V14.585c0.625,0.538,1.264,0.99,1.915,1.374
		c0.522,0.309,1.054,0.573,1.597,0.784c1.185,0.459,2.418,0.688,3.717,0.688c1.39,0,2.779-0.267,4.16-0.688
		c2.233-0.683,4.448-1.778,6.617-2.854c0.245-0.121,0.492-0.242,0.738-0.364c3.178-1.567,6.439-3.074,9.598-3.074
		C30.977,10.451,33.344,11.498,35.57,13.651z M24.615,19.163c0-3.495-2.555-5.516-5.869-4.332c-0.316,0.112-0.635,0.243-0.962,0.415
		c-0.789,0.415-1.544,0.924-2.25,1.498c-0.375,0.305-0.736,0.627-1.078,0.967c-1.261,1.258-2.271,2.729-2.878,4.258
		c-0.127,0.319-0.24,0.644-0.33,0.967c-0.19,0.688-0.295,1.381-0.295,2.062c0,0.822,0.147,1.558,0.408,2.194
		c0.946,2.328,3.46,3.277,6.423,1.723C21.555,26.931,24.615,22.884,24.615,19.163z M20.584,21.314
		c0.131,0.164,0.195,0.386,0.195,0.66c0,0.328-0.102,0.681-0.299,1.047c-0.199,0.371-0.479,0.716-0.842,1.033
		c-0.133,0.116-0.285,0.234-0.465,0.354c0,0.371,0,0.739,0,1.108c-0.144,0.069-0.285,0.143-0.431,0.213
		c-0.207,0.103-0.414,0.203-0.622,0.308c0-0.342,0-0.683,0-1.022c-0.025,0.014-0.051,0.024-0.078,0.039
		c-0.2,0.101-0.399,0.197-0.6,0.297c0,0.343,0,0.683,0,1.021c-0.351,0.174-0.701,0.348-1.052,0.518c0-0.34,0-0.682,0-1.021
		c-0.535,0.261-1.069,0.519-1.606,0.761c0-0.285,0-0.57,0-0.857c0.082-0.037,0.165-0.073,0.248-0.111
		c0.159-0.076,0.272-0.145,0.33-0.198c0.058-0.053,0.103-0.114,0.123-0.178c0.024-0.063,0.036-0.185,0.036-0.367
		c0-0.659,0-1.321,0-1.981c0-0.321,0-0.646,0-0.969c0-0.172,0-0.343,0-0.514c0-0.186-0.012-0.296-0.036-0.336
		c-0.021-0.039-0.065-0.061-0.123-0.062c-0.058,0-0.171,0.035-0.33,0.11c-0.083,0.037-0.166,0.074-0.248,0.111
		c0-0.285,0-0.571,0-0.858c0.537-0.244,1.071-0.5,1.606-0.761c0-0.341,0-0.683,0-1.022c0.351-0.17,0.701-0.345,1.052-0.518
		c0,0.341,0,0.682,0,1.021c0.225-0.11,0.448-0.225,0.678-0.334c0-0.343,0-0.684,0-1.022c0.021-0.01,0.04-0.021,0.061-0.03
		c0.33-0.164,0.66-0.326,0.992-0.488c0,0.365,0,0.731,0,1.097c0.155-0.046,0.297-0.078,0.413-0.086
		c0.312-0.023,0.55,0.046,0.716,0.202c0.164,0.162,0.25,0.384,0.25,0.662c0,0.205-0.045,0.422-0.131,0.646
		c-0.089,0.225-0.218,0.445-0.382,0.666c-0.168,0.219-0.387,0.439-0.653,0.664c0.289-0.066,0.512-0.092,0.668-0.075
		C20.277,21.056,20.453,21.152,20.584,21.314z M17.063,21.847c0.225-0.111,0.451-0.226,0.68-0.336
		c0.354-0.179,0.619-0.336,0.791-0.479c0.08-0.068,0.147-0.14,0.213-0.212c0.065-0.08,0.127-0.163,0.175-0.248
		c0.084-0.162,0.125-0.321,0.125-0.479c0-0.164-0.037-0.285-0.121-0.358c-0.048-0.044-0.107-0.065-0.179-0.075
		c-0.053-0.007-0.108-0.01-0.174,0.002c-0.154,0.025-0.431,0.139-0.83,0.336c-0.229,0.113-0.455,0.225-0.68,0.337
		C17.063,20.836,17.063,21.341,17.063,21.847z M19.168,22.574c0-0.186-0.043-0.316-0.129-0.405
		c-0.088-0.082-0.213-0.116-0.389-0.099c-0.17,0.021-0.434,0.115-0.786,0.291c-0.269,0.133-0.536,0.267-0.802,0.398
		c0,0.059,0,0.115,0,0.174c0,0.391,0,0.779,0,1.17c0,0.189,0.008,0.299,0.021,0.322c0.015,0.035,0.035,0.053,0.071,0.053
		c0.035-0.004,0.126-0.039,0.275-0.113c0.154-0.074,0.305-0.146,0.455-0.225c0.264-0.131,0.482-0.265,0.658-0.399
		c0.062-0.048,0.117-0.106,0.175-0.167c0.098-0.104,0.188-0.219,0.266-0.354C19.105,23.007,19.168,22.791,19.168,22.574z"/>
</g>
<g>
</g>
<g>
</g>
<g>
</g>
<g>
</g>
<g>
</g>
<g>
</g>
<g>
</g>
<g>
</g>
<g>
</g>
<g>
</g>
<g>
</g>
<g>
</g>
<g>
</g>
<g>
</g>
<g>
</g>
</svg>
