<?xml version="1.0" encoding="iso-8859-1"?>
<!-- Generator: Adobe Illustrator 16.0.0, SVG Export Plug-In . SVG Version: 6.00 Build 0)  -->
<!DOCTYPE svg PUBLIC "-//W3C//DTD SVG 1.1//EN" "http://www.w3.org/Graphics/SVG/1.1/DTD/svg11.dtd">
<svg version="1.1" id="Capa_1" xmlns="http://www.w3.org/2000/svg" xmlns:xlink="http://www.w3.org/1999/xlink" x="0px" y="0px"
	 width="33.125px" height="33.125px" viewBox="0 0 33.125 33.125" style="enable-background:new 0 0 33.125 33.125;"
	 xml:space="preserve">
<g>
	<path d="M13.986,16.377c0.014,0,0.027-0.004,0.041-0.004c0.019,0,0.036,0.004,0.055,0.004H13.986z M13.822,0.104
		c0.107-0.001,0.212,0.006,0.318,0.009c0.035,0,0.069-0.009,0.105-0.009H13.822z M8.135,10.389c0.015-0.002,0.025-0.018,0.041-0.021
		c0.941,3.404,3.377,5.952,5.852,6.006c2.255-0.103,5.021-2.604,5.945-5.993c0.424,0.027,0.85-0.473,0.967-1.17
		c0.123-0.726-0.133-1.373-0.572-1.448c-0.029-0.005-0.057,0.014-0.084,0.014c-0.127-5.603-2.789-7.578-6.142-7.663
		c-3.456,0.016-6.551,2.42-6.355,7.665C7.754,7.779,7.723,7.759,7.691,7.764C7.252,7.839,6.996,8.488,7.119,9.212
		C7.238,9.935,7.693,10.463,8.135,10.389z M33.125,23.099c0,5.472-4.451,9.923-9.924,9.923c-4.422,0-8.178-2.911-9.454-6.918H0
		c0-5.686,3.916-8.022,9.372-8.758l3.137,6.145l0.497-3.997l-0.776-0.636h1.717h0.3c1.594-3.354,5.003-5.682,8.957-5.682
		C28.674,13.176,33.125,17.627,33.125,23.099z M32.125,23.099c0-4.92-4.002-8.923-8.924-8.923c-4.918,0-8.922,4.003-8.922,8.923
		s4.002,8.923,8.922,8.923C28.124,32.022,32.125,28.019,32.125,23.099z M25.483,15.935c1.496,0.477,2.834,1.438,3.771,2.704
		c0.098,0.133,0.25,0.203,0.402,0.203c0.104,0,0.207-0.032,0.297-0.098c0.221-0.164,0.27-0.479,0.105-0.699
		c-1.062-1.438-2.578-2.524-4.273-3.063c-0.262-0.081-0.543,0.063-0.627,0.325C25.075,15.57,25.221,15.851,25.483,15.935z
		 M16.696,18.917c0.155,0,0.309-0.071,0.406-0.207c0.922-1.278,2.25-2.256,3.741-2.749c0.262-0.088,0.404-0.369,0.316-0.633
		c-0.086-0.262-0.369-0.406-0.631-0.316c-1.689,0.559-3.194,1.664-4.238,3.113c-0.161,0.224-0.11,0.535,0.113,0.695
		C16.492,18.887,16.596,18.917,16.696,18.917z M15.688,23.129c-0.001-0.275-0.225-0.498-0.5-0.498c0,0-0.001,0-0.002,0
		c-0.276,0-0.499,0.226-0.498,0.502c0.007,1.811,0.575,3.537,1.641,4.992c0.098,0.135,0.25,0.205,0.404,0.205
		c0.103,0,0.206-0.031,0.294-0.098c0.224-0.163,0.271-0.476,0.109-0.697C16.195,26.251,15.695,24.727,15.688,23.129z M31.219,22.568
		c-0.277,0-0.5,0.255-0.5,0.531c0,1.599-0.496,3.125-1.432,4.412c-0.164,0.224-0.113,0.536,0.109,0.698
		c0.09,0.062,0.189,0.096,0.293,0.096c0.156,0,0.307-0.071,0.406-0.206c1.061-1.459,1.619-3.188,1.619-5v-0.062
		C31.719,22.761,31.497,22.568,31.219,22.568z M25.538,30.248c-1.494,0.487-3.145,0.488-4.641,0.01
		c-0.262-0.084-0.545,0.061-0.629,0.322c-0.084,0.264,0.061,0.545,0.322,0.629c0.842,0.271,1.721,0.407,2.611,0.407
		c0.904,0,1.793-0.141,2.646-0.419c0.262-0.086,0.404-0.367,0.318-0.631C26.083,30.304,25.805,30.162,25.538,30.248z M24.042,23.504
		c-0.166-0.063-0.42-0.094-0.76-0.094h-0.775v1.295c0.006,0.186,0.012,0.293,0.021,0.321c0.014,0.04,0.037,0.068,0.07,0.083
		c0.033,0.018,0.123,0.024,0.268,0.024h0.439c0.254,0,0.465-0.024,0.633-0.07c0.166-0.047,0.309-0.146,0.426-0.294
		s0.176-0.329,0.176-0.537c0-0.177-0.041-0.327-0.125-0.45C24.331,23.664,24.208,23.567,24.042,23.504z M30.026,23.099
		c0,3.77-3.055,6.821-6.822,6.821c-3.766,0-6.821-3.053-6.821-6.821c0-3.768,3.055-6.822,6.821-6.822
		C26.971,16.277,30.026,19.332,30.026,23.099z M26.09,24.393c0-0.266-0.062-0.507-0.188-0.723c-0.127-0.217-0.297-0.385-0.512-0.504
		c-0.148-0.088-0.363-0.166-0.645-0.237c0.262-0.089,0.471-0.2,0.631-0.337c0.158-0.137,0.281-0.293,0.365-0.471
		c0.084-0.179,0.127-0.365,0.127-0.562c0-0.271-0.08-0.521-0.24-0.751c-0.158-0.227-0.391-0.399-0.688-0.521
		c-0.113-0.05-0.252-0.084-0.4-0.111V19.12h-1.016v0.983h-0.65V19.12H21.86v0.983h-1.547v0.828h0.236
		c0.156,0,0.264,0.015,0.318,0.043c0.059,0.027,0.096,0.066,0.119,0.115c0.021,0.049,0.033,0.162,0.033,0.341v3.34
		c0,0.175-0.012,0.286-0.033,0.336c-0.023,0.051-0.062,0.089-0.119,0.116c-0.055,0.027-0.162,0.041-0.318,0.041h-0.236v0.828h1.547
		v0.984h1.016v-0.984h0.576c0.025,0,0.051-0.002,0.074-0.002v0.986h1.016v-1.07c0.17-0.032,0.318-0.073,0.447-0.125
		c0.352-0.142,0.621-0.344,0.812-0.611C25.997,25.002,26.09,24.711,26.09,24.393z M23.924,22.445
		c0.164-0.059,0.287-0.146,0.371-0.261c0.082-0.114,0.125-0.249,0.125-0.399c0-0.158-0.039-0.291-0.117-0.402
		c-0.078-0.112-0.193-0.191-0.344-0.238c-0.146-0.048-0.414-0.071-0.797-0.071h-0.658v1.459h0.658
		C23.506,22.53,23.76,22.502,23.924,22.445z"/>
</g>
<g>
</g>
<g>
</g>
<g>
</g>
<g>
</g>
<g>
</g>
<g>
</g>
<g>
</g>
<g>
</g>
<g>
</g>
<g>
</g>
<g>
</g>
<g>
</g>
<g>
</g>
<g>
</g>
<g>
</g>
</svg>
