<?xml version="1.0" encoding="iso-8859-1"?>
<!-- Generator: Adobe Illustrator 16.0.0, SVG Export Plug-In . SVG Version: 6.00 Build 0)  -->
<!DOCTYPE svg PUBLIC "-//W3C//DTD SVG 1.1//EN" "http://www.w3.org/Graphics/SVG/1.1/DTD/svg11.dtd">
<svg version="1.1" id="Capa_1" xmlns="http://www.w3.org/2000/svg" xmlns:xlink="http://www.w3.org/1999/xlink" x="0px" y="0px"
	 width="37.496px" height="37.496px" viewBox="0 0 37.496 37.496" style="enable-background:new 0 0 37.496 37.496;"
	 xml:space="preserve">
<g>
	<path d="M34.163,18.747c0.139-1.259,3.151-2.938,2.87-4.172c-0.282-1.234-3.847-1.372-4.396-2.513
		c-0.551-1.142,1.563-4.016,0.774-5.004c-0.789-0.989-4.062,0.433-5.052-0.356c-0.989-0.789-0.332-4.296-1.472-4.846
		c-1.14-0.549-3.47,2.151-4.703,1.871C20.951,3.446,20.021,0,18.756,0s-2.194,3.446-3.429,3.728
		c-1.235,0.28-3.565-2.419-4.706-1.871C9.479,2.405,9.148,6.702,9.148,6.702S4.887,6.069,4.098,7.059
		c-0.79,0.989,1.325,3.863,0.775,5.004c-0.549,1.14-4.006,1.309-4.396,2.513c-0.39,1.205,2.87,2.907,2.87,4.172
		c0,1.267-3.152,2.938-2.87,4.173s3.847,1.373,4.396,2.514c0.549,1.141-1.565,4.016-0.775,5.004s4.062-0.434,5.051,0.355
		c0.99,0.789,0.332,4.295,1.473,4.846c1.141,0.549,3.472-2.15,4.706-1.871c1.233,0.281,2.163,3.729,3.429,3.729
		s2.195-3.447,3.429-3.729c1.233-0.279,3.563,2.42,4.705,1.871s0.573-3.953,1.472-4.846c0.897-0.895,4.263,0.633,5.052-0.355
		s-0.774-5.004-0.774-5.004s4.112-1.279,4.396-2.514C37.313,21.686,34.024,20.006,34.163,18.747z M18.748,31.414
		c-6.996,0-12.667-5.67-12.667-12.667c0-6.996,5.671-12.667,12.667-12.667s12.667,5.671,12.667,12.667
		C31.415,25.744,25.744,31.414,18.748,31.414z M17.265,29.656c-0.022,0-0.047-0.002-0.07-0.008
		c-1.041-0.145-2.053-0.439-3.008-0.877c-0.251-0.113-0.361-0.408-0.248-0.662c0.115-0.252,0.411-0.361,0.663-0.246
		c0.868,0.395,1.787,0.662,2.733,0.797c0.272,0.039,0.464,0.291,0.425,0.562C17.725,29.477,17.509,29.656,17.265,29.656z
		 M20.253,29.65c-0.245,0-0.459-0.18-0.495-0.428c-0.038-0.271,0.151-0.525,0.425-0.564c0.945-0.137,1.864-0.406,2.73-0.805
		c0.253-0.113,0.548-0.006,0.663,0.246c0.114,0.25,0.005,0.547-0.246,0.662c-0.954,0.439-1.965,0.736-3.006,0.885
		C20.302,29.648,20.276,29.65,20.253,29.65z M11.876,27.203c-0.116,0-0.232-0.041-0.327-0.123c-0.795-0.688-1.487-1.482-2.056-2.361
		c-0.15-0.232-0.083-0.543,0.147-0.691c0.231-0.15,0.542-0.084,0.691,0.146c0.518,0.803,1.146,1.525,1.87,2.15
		c0.209,0.18,0.231,0.496,0.051,0.705C12.156,27.143,12.017,27.203,11.876,27.203z M25.637,27.188c-0.141,0-0.279-0.059-0.378-0.172
		c-0.181-0.209-0.158-0.523,0.05-0.707c0.723-0.627,1.351-1.352,1.865-2.152c0.149-0.232,0.459-0.299,0.691-0.15
		c0.231,0.15,0.299,0.459,0.149,0.691c-0.566,0.883-1.258,1.678-2.052,2.367C25.87,27.146,25.753,27.188,25.637,27.188z
		 M8.665,22.227c-0.216,0-0.416-0.141-0.479-0.357c-0.295-1.002-0.446-2.045-0.449-3.1c0-0.276,0.224-0.5,0.499-0.501
		c0,0,0,0,0.001,0c0.275,0,0.5,0.223,0.5,0.499c0.003,0.959,0.141,1.908,0.408,2.818c0.078,0.266-0.072,0.543-0.338,0.621
		C8.758,22.223,8.71,22.227,8.665,22.227z M28.838,22.207c-0.046,0-0.094-0.006-0.141-0.021c-0.266-0.078-0.417-0.354-0.34-0.621
		c0.268-0.91,0.402-1.858,0.402-2.817c0-0.275,0.224-0.521,0.5-0.521c0.275,0,0.5,0.202,0.5,0.479v0.042
		c0,1.056-0.149,2.099-0.442,3.103C29.254,22.064,29.055,22.207,28.838,22.207z M8.651,16.309c-0.046,0-0.093-0.006-0.14-0.021
		c-0.265-0.077-0.417-0.354-0.34-0.62c0.292-1.006,0.728-1.966,1.296-2.853c0.148-0.233,0.457-0.302,0.69-0.151
		c0.231,0.148,0.3,0.458,0.15,0.69c-0.516,0.806-0.912,1.678-1.178,2.593C9.068,16.165,8.87,16.309,8.651,16.309z M28.826,16.246
		c-0.217,0-0.415-0.14-0.479-0.356c-0.271-0.914-0.675-1.783-1.194-2.585c-0.149-0.231-0.084-0.541,0.146-0.691
		c0.231-0.15,0.542-0.085,0.691,0.147c0.571,0.882,1.014,1.839,1.312,2.844c0.078,0.265-0.072,0.543-0.336,0.622
		C28.921,16.239,28.873,16.246,28.826,16.246z M11.845,11.32c-0.139,0-0.278-0.058-0.377-0.171c-0.181-0.208-0.16-0.524,0.048-0.706
		c0.792-0.691,1.677-1.264,2.629-1.703c0.253-0.115,0.548-0.005,0.664,0.245c0.116,0.251,0.006,0.548-0.245,0.664
		c-0.865,0.398-1.67,0.92-2.391,1.548C12.079,11.28,11.96,11.32,11.845,11.32z M25.603,11.278c-0.116,0-0.231-0.04-0.326-0.121
		c-0.726-0.625-1.532-1.14-2.399-1.533c-0.251-0.113-0.362-0.411-0.249-0.662c0.114-0.251,0.41-0.363,0.662-0.249
		c0.954,0.434,1.842,1,2.641,1.688c0.209,0.18,0.232,0.496,0.053,0.705C25.884,11.22,25.744,11.278,25.603,11.278z M17.221,8.846
		c-0.244,0-0.458-0.18-0.494-0.429c-0.04-0.272,0.149-0.526,0.422-0.566c0.527-0.077,1.052-0.126,1.601-0.115
		c0.51,0,1.025,0.036,1.532,0.105c0.272,0.038,0.464,0.291,0.426,0.564s-0.29,0.468-0.563,0.426
		c-0.46-0.063-0.929-0.096-1.395-0.096c-0.466-0.029-0.978,0.035-1.455,0.104C17.269,8.845,17.245,8.846,17.221,8.846z
		 M23.401,19.732c-0.217-0.373-0.512-0.664-0.881-0.87c-0.256-0.148-0.627-0.285-1.109-0.407c0.449-0.152,0.812-0.347,1.088-0.582
		c0.274-0.234,0.483-0.504,0.631-0.81c0.146-0.308,0.22-0.631,0.22-0.972c0-0.469-0.139-0.898-0.413-1.292
		c-0.276-0.392-0.671-0.692-1.186-0.901c-0.198-0.083-0.438-0.145-0.691-0.192v-1.823h-1.749v1.7h-1.125v-1.7h-1.749v1.7h-2.668
		v1.43h0.408c0.271,0,0.455,0.024,0.551,0.074c0.098,0.049,0.165,0.116,0.204,0.2c0.041,0.083,0.06,0.279,0.06,0.584v5.76
		c0,0.303-0.02,0.496-0.06,0.584c-0.039,0.086-0.106,0.152-0.204,0.199c-0.096,0.047-0.278,0.068-0.551,0.068h-0.408v1.43h2.668
		v1.697h1.749v-1.697h0.996c0.044,0,0.085,0,0.129,0v1.701h1.749v-1.846c0.293-0.059,0.551-0.129,0.771-0.217
		c0.604-0.242,1.07-0.594,1.399-1.057c0.33-0.459,0.496-0.965,0.496-1.514C23.727,20.52,23.619,20.104,23.401,19.732z
		 M20.056,15.372c0.257,0.081,0.453,0.217,0.589,0.411c0.136,0.192,0.202,0.423,0.202,0.695c0,0.262-0.07,0.494-0.214,0.692
		c-0.145,0.199-0.355,0.349-0.641,0.447c-0.284,0.101-0.722,0.148-1.313,0.148h-1.132v-2.518h1.132
		C19.339,15.248,19.798,15.289,20.056,15.372z M18.919,22.262h-0.753c-0.252,0-0.405-0.016-0.462-0.039
		c-0.058-0.029-0.099-0.078-0.122-0.146c-0.021-0.057-0.031-0.238-0.037-0.557v-2.235h1.336c0.585,0,1.021,0.055,1.309,0.163
		c0.286,0.109,0.499,0.271,0.644,0.48c0.143,0.213,0.214,0.471,0.214,0.777c0,0.359-0.103,0.668-0.303,0.926
		c-0.202,0.258-0.447,0.426-0.736,0.508C19.722,22.223,19.356,22.262,18.919,22.262z"/>
</g>
<g>
</g>
<g>
</g>
<g>
</g>
<g>
</g>
<g>
</g>
<g>
</g>
<g>
</g>
<g>
</g>
<g>
</g>
<g>
</g>
<g>
</g>
<g>
</g>
<g>
</g>
<g>
</g>
<g>
</g>
</svg>
