<?xml version="1.0" encoding="iso-8859-1"?>
<!-- Generator: Adobe Illustrator 16.0.0, SVG Export Plug-In . SVG Version: 6.00 Build 0)  -->
<!DOCTYPE svg PUBLIC "-//W3C//DTD SVG 1.1//EN" "http://www.w3.org/Graphics/SVG/1.1/DTD/svg11.dtd">
<svg version="1.1" id="Capa_1" xmlns="http://www.w3.org/2000/svg" xmlns:xlink="http://www.w3.org/1999/xlink" x="0px" y="0px"
	 width="37.65px" height="37.651px" viewBox="0 0 37.65 37.651" style="enable-background:new 0 0 37.65 37.651;"
	 xml:space="preserve">
<g>
	<path d="M16.949,13.773c-1.271,0-2.445-0.371-3.561-1.111v-1.014c0-0.287,0.232-0.519,0.519-0.519H24.15
		c0.095,0,0.179,0.033,0.256,0.077c-0.179,0.087-0.354,0.175-0.532,0.262C21.591,12.602,19.228,13.773,16.949,13.773z
		 M23.093,20.098c-0.358,0.176-0.718,0.346-1.077,0.51c0-0.191,0-0.383,0-0.574c0.056-0.024,0.109-0.051,0.166-0.076
		c0.106-0.051,0.184-0.096,0.222-0.133s0.067-0.076,0.083-0.119c0.017-0.041,0.023-0.123,0.023-0.246c0-0.44,0-0.885,0-1.328
		c0-0.216,0-0.433,0-0.649c0-0.115,0-0.229,0-0.344c0-0.124-0.009-0.198-0.023-0.225c-0.015-0.026-0.044-0.04-0.083-0.042
		c-0.039-0.001-0.114,0.024-0.222,0.075c-0.057,0.024-0.11,0.049-0.166,0.074c0-0.191,0-0.383,0-0.575
		c0.359-0.164,0.719-0.335,1.077-0.51c0-0.229,0-0.457,0-0.686c0.233-0.114,0.47-0.231,0.704-0.347c0,0.229,0,0.457,0,0.685
		c0.15-0.075,0.301-0.15,0.454-0.225c0-0.228,0-0.457,0-0.685c0.014-0.006,0.027-0.013,0.04-0.021
		c0.223-0.11,0.443-0.219,0.665-0.328c0,0.246,0,0.491,0,0.735c0.104-0.031,0.198-0.052,0.278-0.058
		c0.208-0.016,0.366,0.031,0.479,0.136c0.109,0.108,0.167,0.256,0.167,0.444c0,0.137-0.03,0.282-0.089,0.433
		c-0.059,0.15-0.146,0.299-0.255,0.446c-0.111,0.146-0.258,0.295-0.438,0.445c0.193-0.045,0.344-0.062,0.449-0.051
		c0.146,0.013,0.266,0.075,0.354,0.185c0.088,0.11,0.132,0.258,0.132,0.442c0,0.221-0.067,0.456-0.2,0.703
		c-0.134,0.249-0.319,0.479-0.563,0.692c-0.088,0.077-0.189,0.157-0.312,0.237c0,0.25,0,0.496,0,0.744
		c-0.096,0.047-0.19,0.094-0.288,0.141c-0.141,0.072-0.279,0.142-0.419,0.21c0-0.229,0-0.457,0-0.687
		c-0.018,0.01-0.033,0.018-0.052,0.027c-0.135,0.066-0.269,0.132-0.401,0.199c0,0.229,0,0.455,0,0.685
		c-0.235,0.116-0.471,0.231-0.705,0.347C23.093,20.555,23.093,20.327,23.093,20.098z M23.54,17.401
		c0.15-0.075,0.303-0.15,0.456-0.225c0.237-0.119,0.414-0.225,0.529-0.321c0.055-0.046,0.101-0.094,0.143-0.142
		c0.046-0.054,0.085-0.109,0.116-0.166c0.058-0.109,0.084-0.215,0.084-0.322c0-0.109-0.024-0.19-0.081-0.24
		c-0.03-0.03-0.072-0.044-0.12-0.051c-0.035-0.004-0.072-0.006-0.115,0.001c-0.104,0.018-0.289,0.092-0.557,0.225
		c-0.152,0.076-0.305,0.15-0.456,0.226C23.54,16.725,23.54,17.062,23.54,17.401z M23.54,18.915c0,0.127,0.005,0.199,0.015,0.217
		c0.009,0.023,0.023,0.035,0.048,0.035c0.023-0.002,0.084-0.025,0.187-0.076c0.104-0.051,0.204-0.1,0.306-0.15
		c0.175-0.088,0.321-0.177,0.439-0.269c0.042-0.032,0.08-0.072,0.117-0.112c0.064-0.068,0.126-0.145,0.177-0.236
		c0.083-0.144,0.124-0.287,0.124-0.434c0-0.124-0.028-0.213-0.087-0.271c-0.06-0.055-0.143-0.079-0.261-0.066
		c-0.113,0.013-0.289,0.078-0.526,0.195c-0.18,0.089-0.358,0.179-0.538,0.268c0,0.039,0,0.078,0,0.117
		C23.54,18.392,23.54,18.655,23.54,18.915z M13.908,6.864h10.244c0.286,0,0.517-0.232,0.517-0.52V4.53
		c0-0.287-0.229-0.52-0.517-0.52H13.908c-0.287,0-0.519,0.233-0.519,0.52v1.814C13.389,6.631,13.62,6.864,13.908,6.864z
		 M13.908,10.481h10.244c0.286,0,0.517-0.232,0.517-0.521V8.147c0-0.287-0.229-0.521-0.517-0.521H13.908
		c-0.287,0-0.519,0.233-0.519,0.521v1.813C13.389,10.249,13.62,10.481,13.908,10.481z M37.65,24.649c0,0.553-0.448,1-1,1H12.296
		c-0.431,0-0.813-0.275-0.949-0.686L5.712,8.002L0.697,6.407C0.171,6.24-0.12,5.677,0.047,5.151c0.167-0.526,0.729-0.815,1.256-0.65
		l5.5,1.75c0.305,0.097,0.545,0.334,0.646,0.638l4.656,14.014v-8.368c0.419,0.361,0.847,0.664,1.284,0.921
		c0.35,0.207,0.706,0.384,1.069,0.526c0.794,0.308,1.621,0.461,2.491,0.461c0.931,0,1.863-0.179,2.789-0.461
		c1.498-0.458,2.981-1.192,4.436-1.913c0.165-0.082,0.329-0.163,0.494-0.244c2.13-1.051,4.316-2.061,6.433-2.061
		c1.767,0,3.353,0.702,4.845,2.145v10.669c-1.49-1.281-3.081-1.908-4.846-1.908c-2.438,0-4.871,1.207-7.226,2.375
		c-0.408,0.203-0.821,0.406-1.234,0.604h14.012C37.203,23.649,37.65,24.097,37.65,24.649z M19.445,19.513
		c0,0.552,0.1,1.043,0.273,1.472c0.634,1.561,2.318,2.196,4.306,1.154c2.527-1.329,4.578-4.041,4.578-6.534
		c0-2.342-1.712-3.697-3.935-2.903c-0.211,0.075-0.426,0.163-0.646,0.278c-0.528,0.278-1.034,0.62-1.508,1.004
		c-0.251,0.204-0.494,0.42-0.724,0.648c-0.845,0.842-1.521,1.829-1.929,2.852c-0.085,0.215-0.161,0.432-0.221,0.649
		C19.515,18.593,19.445,19.056,19.445,19.513z M23.101,29.702c0,2.172-1.768,3.938-3.938,3.938c-2.17,0-3.938-1.769-3.938-3.938
		c0-2.172,1.767-3.938,3.938-3.938C21.334,25.763,23.101,27.53,23.101,29.702z M21.101,29.702c0-1.069-0.87-1.938-1.938-1.938
		s-1.938,0.869-1.938,1.938c0,1.068,0.87,1.938,1.938,1.938C20.23,31.639,21.101,30.77,21.101,29.702z M34.055,29.702
		c0,2.172-1.768,3.938-3.938,3.938s-3.938-1.767-3.938-3.938s1.768-3.938,3.938-3.938S34.055,27.53,34.055,29.702z M32.055,29.702
		c0-1.069-0.87-1.938-1.938-1.938s-1.938,0.869-1.938,1.938c0,1.068,0.87,1.938,1.938,1.938
		C31.185,31.639,32.055,30.77,32.055,29.702z"/>
</g>
<g>
</g>
<g>
</g>
<g>
</g>
<g>
</g>
<g>
</g>
<g>
</g>
<g>
</g>
<g>
</g>
<g>
</g>
<g>
</g>
<g>
</g>
<g>
</g>
<g>
</g>
<g>
</g>
<g>
</g>
</svg>
