<?xml version="1.0" encoding="UTF-8" standalone="no"?>
<!-- Creator: CorelDRAW -->

<svg
   xmlns:osb="http://www.openswatchbook.org/uri/2009/osb"
   xmlns:dc="http://purl.org/dc/elements/1.1/"
   xmlns:cc="http://creativecommons.org/ns#"
   xmlns:rdf="http://www.w3.org/1999/02/22-rdf-syntax-ns#"
   xmlns:svg="http://www.w3.org/2000/svg"
   xmlns="http://www.w3.org/2000/svg"
   xmlns:xlink="http://www.w3.org/1999/xlink"
   xmlns:sodipodi="http://sodipodi.sourceforge.net/DTD/sodipodi-0.dtd"
   xmlns:inkscape="http://www.inkscape.org/namespaces/inkscape"
   xml:space="preserve"
   width="85.527504mm"
   height="98.187805mm"
   style="clip-rule:evenodd;fill-rule:evenodd;image-rendering:optimizeQuality;shape-rendering:geometricPrecision;text-rendering:geometricPrecision"
   viewBox="0 0 85.527506 98.187801"
   id="svg5772"
   version="1.1"
   inkscape:version="0.91 r13725"
   sodipodi:docname="Graphic2-logo.svg"><metadata
     id="metadata5798"><rdf:RDF><cc:Work
         rdf:about=""><dc:format>image/svg+xml</dc:format><dc:type
           rdf:resource="http://purl.org/dc/dcmitype/StillImage" /><dc:title></dc:title></cc:Work></rdf:RDF></metadata><sodipodi:namedview
     pagecolor="#ffffff"
     bordercolor="#666666"
     borderopacity="1"
     objecttolerance="10"
     gridtolerance="10"
     guidetolerance="10"
     inkscape:pageopacity="0"
     inkscape:pageshadow="2"
     inkscape:window-width="1658"
     inkscape:window-height="1290"
     id="namedview5796"
     showgrid="false"
     inkscape:zoom="1"
     inkscape:cx="142.98936"
     inkscape:cy="161.93476"
     inkscape:window-x="561"
     inkscape:window-y="62"
     inkscape:window-maximized="0"
     inkscape:current-layer="svg5772"
     fit-margin-top="0"
     fit-margin-left="0"
     fit-margin-right="0"
     fit-margin-bottom="0" /><defs
     id="defs5774"><linearGradient
       inkscape:collect="always"
       id="linearGradient7788"><stop
         style="stop-color:#808080;stop-opacity:1;"
         offset="0"
         id="stop7790" /><stop
         style="stop-color:#808080;stop-opacity:0;"
         offset="1"
         id="stop7792" /></linearGradient><linearGradient
       inkscape:collect="always"
       id="linearGradient6342"
       osb:paint="gradient"><stop
         style="stop-color:#808080;stop-opacity:1;"
         offset="0"
         id="stop6344" /><stop
         style="stop-color:#808080;stop-opacity:0;"
         offset="1"
         id="stop6346" /></linearGradient><style
       type="text/css"
       id="style5776"><![CDATA[
    .fil2 {fill:#3193C8}
    .fil1 {fill:#55575F}
    .fil3 {fill:#3193C8;fill-rule:nonzero}
    .fil0 {fill:#55575F;fill-rule:nonzero}
   ]]></style><clipPath
       clipPathUnits="userSpaceOnUse"
       id="clipPath7796"><rect
         style="fill:url(#radialGradient7800);fill-opacity:1"
         id="rect7798"
         width="85.527504"
         height="98.481369"
         x="71.10582"
         y="-0.29356629" /></clipPath><radialGradient
       inkscape:collect="always"
       xlink:href="#linearGradient7788"
       id="radialGradient7800"
       gradientUnits="userSpaceOnUse"
       gradientTransform="matrix(0.98392939,0,0,1.1329539,2.5171933,-6.3946624)"
       cx="113.17111"
       cy="48.84734"
       fx="113.17111"
       fy="48.84734"
       r="43.462215" /></defs><g
     id="Layer_x0020_1"
     clip-path="url(#clipPath7796)"
     transform="translate(-71.10582,0)"><metadata
       id="CorelCorpID_0Corel-Layer" /><g
       id="_125119896"><g
         id="g5781"><polygon
           id="_125120808"
           class="fil0"
           points="8.7225,117.411 5.3102,150.293 14.0824,150.293 17.4948,117.411 26.3167,117.411 27.1132,109.736 0.7966,109.736 0,117.411 "
           style="fill:#55575f;fill-rule:nonzero" /><path
           id="_125120736"
           class="fil1"
           d="m 95.0854,109.744 -8.7723,0 -1.1921,11.4866 c -8.8822,0.0283 -15.8908,-0.7766 -17.8921,10.3175 -3.468,19.2364 4.0761,19.7462 21.9416,18.3685 l 1.9632,-0.3105 c 0.0452,-0.756 0.0773,-1.2934 0.1446,-2.2231 0.0673,-0.9306 0.1483,-1.9106 0.2388,-2.9406 0.0819,-1.0303 0.1805,-2.0603 0.2883,-3.0986 l 3.28,-31.5998 z m -11.9209,33.5914 c -1.3799,0 -3.7211,0.0846 -5.091,0.0519 -0.9052,-0.0216 -1.6652,-0.2824 -2.297,-0.839 -0.6317,-0.5566 -1.0783,-1.3791 -1.3547,-2.4755 -0.2764,-1.0962 -0.3181,-2.4499 -0.1678,-4.0622 0.6593,-7.0745 3.8951,-7.6636 10.2415,-6.8765 -0.8519,9.1075 -0.8792,9.3802 -1.331,14.2013 z"
           inkscape:connector-curvature="0"
           style="fill:#55575f" /><path
           id="_125120664"
           class="fil1"
           d="m 104.949,143.577 c -2.6103,-0.9432 -2.7622,-2.5839 -2.6892,-5.097 l 16.1726,-0.0991 c 0.274,-0.8825 0.3202,-1.9373 0.4153,-2.8533 0.2599,-2.6566 0.418,-5.4993 -0.324,-7.9984 -1.7125,-5.766 -7.79,-6.7703 -13.1105,-5.8562 -5.4088,0.9281 -7.9867,4.5598 -9.5439,9.4963 -2.2812,7.2281 -1.3847,16.121 4.3486,18.1591 4.9884,1.7736 11.6895,1.2475 17.0286,0.9555 l 0.6553,-6.1422 c -3.4188,-0.0151 -9.7263,0.6012 -12.9528,-0.5647 z m -1.7295,-10.7406 c 0.1813,-1.138 0.7798,-2.4112 1.4302,-3.348 0.3918,-0.5636 0.8716,-1.0305 1.4398,-1.3874 1.0908,-0.6847 3.5275,-0.9544 4.5996,-0.156 0.4604,0.3432 0.8055,0.7904 1.0316,1.3459 0.2929,0.7198 0.415,2.7141 0.3183,3.5455 l -8.8195,0 z"
           inkscape:connector-curvature="0"
           style="fill:#55575f" /><path
           id="_125120592"
           class="fil1"
           d="m 23.3875,129.987 c -0.8706,2.9198 -1.2948,6.3175 -1.501,9.7728 l -1.0918,10.6833 0.827,0 0,0.0143 7.8217,0 0.0054,0 1.5966,-15.5493 c 0.0522,-0.5069 0.1313,-0.9884 0.234,-1.4536 0.1005,-0.4561 0.2534,-0.846 0.3891,-1.1881 1.2942,-3.2629 5.2937,-3.7817 9.0724,-3.2696 l 0.7871,-7.5883 c -0.3926,-0.0745 -0.782,-0.0372 -1.1802,-0.0372 -7.7139,-0.1487 -14.2619,-0.4329 -16.9603,8.6157 z"
           inkscape:connector-curvature="0"
           style="fill:#55575f" /><path
           id="_125120520"
           class="fil1"
           d="m 122.189,130.457 c -0.8705,2.9198 -1.2948,6.3175 -1.5009,9.7728 l -1.0222,9.8468 0.8271,0 0,0.0143 7.8217,0 0.005,0 1.5269,-14.7128 c 0.0526,-0.5069 0.1313,-0.9881 0.2339,-1.4536 0.1008,-0.4561 0.2535,-0.846 0.3891,-1.1881 1.2943,-3.2629 5.2937,-3.7817 9.0724,-3.2696 l 0.7871,-7.5883 c -0.3926,-0.0745 -0.7819,-0.0372 -1.1802,-0.0372 -7.7139,-0.1487 -14.2618,-0.4329 -16.9603,8.6157 z"
           inkscape:connector-curvature="0"
           style="fill:#55575f" /><path
           id="_125120448"
           class="fil1"
           d="m 45.8225,149.856 c 5.2305,1.3545 12.8889,0.0279 17.575,0.0279 -0.1378,-1.3853 0.1045,-2.7925 0.1994,-4.1784 0.0545,-0.797 0.1264,-1.6198 0.2126,-2.4507 l 1.0243,-9.8686 c 0.1386,-1.2543 0.1573,-2.4756 0.0638,-3.655 -0.0543,-0.7522 -0.1762,-1.4707 -0.3637,-2.1575 -0.1062,-0.3902 -0.2337,-0.7703 -0.3821,-1.1405 -0.4007,-1.0216 -1.0051,-1.919 -1.8057,-2.6914 -0.8003,-0.7725 -1.843,-1.3708 -3.1272,-1.8025 -1.0319,-0.3564 -2.2532,-0.5658 -3.6631,-0.6372 l -4.528,0 c -2.1002,0.0406 -4.4085,0.0146 -5.589,0.3073 -0.2337,0.1656 -0.7836,6.3882 -0.8057,7.3166 1.6455,-0.3596 11.1532,-1.3723 12.4123,0.4113 0.3404,0.482 0.0205,1.8319 -0.063,2.5547 -0.0818,2e-4 -0.1634,2e-4 -0.2448,0 l -5.4971,-0.1046 c -2.4391,0 -4.6407,0.4585 -6.3896,1.4029 -5.9336,3.5439 -6.949,14.6152 0.9716,16.6657 z m 6.0578,-11.8589 c -0.8254,0 -1.5704,0.1551 -2.1624,0.4747 -2.0081,1.1991 -2.3515,4.946 0.3288,5.6401 1.7231,0.4461 4.2243,0.0327 5.819,0.0103 l 0.3783,-3.3051 5e-4,-0.005 0.2359,-2.2745 c 0.0224,-0.2013 0.0354,-0.4001 0.0397,-0.5963 -1.6463,0 -3.0019,0.0862 -4.6398,0.0554 z"
           inkscape:connector-curvature="0"
           style="fill:#55575f" /><path
           id="_125120376"
           class="fil1"
           d="m 161.015,122.433 -0.9825,6.271 -0.0686,-0.0119 c -2.1343,-0.3701 -8.5925,-0.6752 -10.4404,0.2846 -1.0592,0.5501 -1.1621,2.398 -0.5971,3.3218 0.3901,0.6382 1.4625,0.8224 2.1399,0.9194 1.1705,0.1678 2.3548,0.2135 3.5282,0.3943 1.106,0.1705 2.2646,0.4571 3.2151,1.0702 2.0365,1.314 2.6061,4.9003 2.3748,7.1346 -0.1886,1.8224 -0.7844,3.5201 -1.9219,4.9697 -2.428,3.0932 -4.8987,3.1597 -8.5123,3.532 -1.1975,0.1232 -10.1094,0.1665 -10.6217,-0.1629 l -0.0365,-0.0235 0.8171,-6.6515 0.0683,0.009 c 2.6501,0.3315 9.6834,0.5577 12.1213,-0.1762 1.6615,-0.4998 1.8025,-3.0908 0.2924,-3.5739 -1.3642,-0.4366 -3.1229,-0.4258 -4.5599,-0.5606 -4.2818,-0.4018 -6.3763,-2.0465 -6.5555,-6.6631 -0.1891,-4.8754 2.3086,-8.4572 6.9149,-10.0167 1.5104,-0.5115 3.9914,-0.709 5.6017,-0.7096 1.3829,-3e-4 6.1114,0.0757 7.1786,0.6209 l 0.0441,0.0227 z"
           inkscape:connector-curvature="0"
           style="fill:#55575f" /><path
           id="_125120304"
           class="fil1"
           d="m 203.955,110.338 c -0.6258,-0.374 -1.387,-0.565 -2.2748,-0.5734 -0.873,0.008 -1.6655,0.1994 -2.3772,0.5734 -0.7042,0.382 -1.2902,0.9054 -1.742,1.5782 -0.4512,0.6644 -0.7317,1.4453 -0.8322,2.3342 -0.0805,0.8558 0.0322,1.6115 0.337,2.2762 0.3131,0.6644 0.7819,1.1878 1.4152,1.5701 0.625,0.3821 1.3851,0.5815 2.2732,0.5896 0.8563,-0.008 1.6396,-0.1911 2.3513,-0.5647 0.7106,-0.3656 1.2966,-0.889 1.7552,-1.5453 0.4596,-0.6644 0.739,-1.4369 0.8397,-2.3259 0.0838,-0.8889 -0.0262,-1.6698 -0.331,-2.3342 -0.3123,-0.6728 -0.7814,-1.1962 -1.4144,-1.5782 z"
           inkscape:connector-curvature="0"
           style="fill:#55575f" /><path
           id="_125120232"
           class="fil2"
           d="m 184.89,110.196 c 1.5429,0.2099 2.866,0.8163 4.0021,1.661 1.1361,0.8446 2.023,1.9614 2.6778,3.369 0.6554,1.3984 0.8766,2.9749 0.6652,4.7112 -0.2293,1.8861 -0.9474,3.6224 -2.1526,5.1989 -1.2148,1.5767 -2.738,2.759 -4.5704,3.5474 2.3629,0.7133 4.1099,1.9331 5.2149,3.6507 1.1134,1.7268 1.5235,3.7537 1.2402,6.081 -0.2226,1.8301 -0.8617,3.6132 -1.927,5.3493 -1.0641,1.7268 -2.3967,3.1156 -3.9956,4.1481 -1.5989,1.0323 -3.4973,1.6703 -5.695,1.9144 -6.1672,0.6344 -12.6959,0.2721 -18.8769,0.2721 l 4.9038,-40.3068 c 5.6054,0.1492 12.811,-0.3732 18.5135,0.4037 z m -5.9973,32.8646 c 1.2366,-0.2158 2.2884,-0.7601 3.1513,-1.6047 0.8639,-0.8539 1.388,-1.9989 1.5616,-3.4253 0.1472,-1.2106 -0.0286,-2.2336 -0.5079,-3.0782 -0.4882,-0.8447 -1.2576,-1.4639 -2.3181,-1.8489 -2.4913,-0.9037 -6.3111,-0.5722 -9.0239,-0.5722 l -1.3105,10.7735 c 2.621,0 5.9225,0.283 8.4475,-0.2442 z m 0.2469,-17.3803 c 1.4082,-0.1592 2.5645,-0.638 3.459,-1.4356 0.895,-0.7979 1.4171,-1.8489 1.5759,-3.1532 0.1517,-1.2483 -0.0628,-2.2618 -0.6532,-3.0407 -0.5997,-0.7788 -1.5655,-1.2483 -2.8976,-1.4076 -2.2391,-0.2649 -4.6619,-0.1408 -6.9178,-0.1408 l -1.1339,9.3188 c 2.142,0 4.4382,0.1159 6.5676,-0.1409 z"
           inkscape:connector-curvature="0"
           style="fill:#3193c8" /><path
           id="_125120160"
           class="fil3"
           d="m 204.278,124.66 -8.5113,-2.5139 -2.9124,28.0611 8.7722,0 2.3831,-22.9619 c -1.2194,-0.2986 -2.4306,-0.6809 -3.626,-1.1495 -0.7792,-0.305 -1.5515,-0.6471 -2.3148,-1.0262 -0.8514,-0.4228 -1.6728,-0.8824 -2.4626,-1.3761 l 0.0952,-0.9165 c 0.7606,0.4712 1.5501,0.9111 2.3674,1.317 0.7633,0.379 1.5356,0.7211 2.3148,1.0262 1.2278,0.4812 2.472,0.8714 3.7249,1.1734 l 0.1695,-1.6336 z"
           inkscape:connector-curvature="0"
           style="fill:#3193c8;fill-rule:nonzero" /><path
           id="_125120088"
           class="fil3"
           d="m 206.914,139.572 c -0.056,0.5407 -0.1134,1.1714 -0.1466,1.8941 -0.0327,0.7142 -0.0103,1.4702 0.0729,2.2594 0.084,0.7975 0.2689,1.5704 0.5558,2.3263 0.2867,0.7555 0.7142,1.4455 1.2984,2.0598 0.5763,0.6063 1.3477,1.0981 2.3067,1.4621 0.9666,0.3669 2.1603,0.5649 3.5885,0.5649 1.2075,0 4.3639,0.2435 5.4151,-0.0901 l 0.6888,-7.3364 c -1.866,0.1221 -4.5086,0.2142 -4.9167,-1.6116 -0.1477,-0.66 -0.1948,-1.5374 -0.0764,-2.625 l 1.2101,-11.0803 c -1.0016,0.2254 -2.0166,0.3969 -3.0404,0.5128 -1.463,0.1655 -2.9437,0.2183 -4.4298,0.1527 -0.4311,-0.019 -0.8628,-0.0478 -1.2944,-0.0869 -0.3198,3.0114 -0.6948,6.4846 -1.232,11.5982 z m 10.0983,-13.0627 0.009,-0.1191 c 0.1342,-0.03 0.2679,-0.0611 0.4014,-0.0928 1.4239,-0.3407 2.8203,-0.7895 4.1756,-1.3425 l 0.617,1.388 1.839,-2.5281 0.0247,-0.0131 0.007,-0.0299 0.8609,-1.1838 2.7314,-3.7544 -4.6172,-0.4879 -4.6177,-0.4883 0.8269,1.8596 c -0.7238,0.4289 -1.4751,0.8201 -2.2505,1.1724 -0.5227,0.2377 -1.0556,0.4577 -1.599,0.6598 -1.5283,0.5692 -3.1351,0.9986 -4.7971,1.2821 -3.0046,0.5125 -6.1888,0.5484 -9.4144,0.0756 -2.9954,-0.4389 -6.0262,-1.3173 -8.9809,-2.6616 1.7439,1.4856 3.6961,2.7842 5.8403,3.8491 0.7634,0.379 1.5355,0.721 2.3148,1.0263 2.5747,1.0091 5.2224,1.6181 7.8696,1.8527 l -0.004,0.0377 c 0.3909,0.0334 0.7816,0.0588 1.1721,0.0759 1.486,0.0656 2.9668,0.0128 4.4298,-0.1527 1.0683,-0.1209 2.1268,-0.3025 3.1705,-0.5423 l -0.009,0.1173 z m 0.4909,-4.4277 1.1431,-12.3453 -8.5877,-0.0182 c -0.5704,5.5913 -1.0973,10.6884 -1.4398,13.9021 0.4248,-0.0526 0.9055,0.0327 1.3237,-0.0386 1.6621,-0.2835 3.269,-0.7129 4.7971,-1.2821 0.5435,-0.2021 1.0041,-0.142 1.5265,-0.3798 0.4458,-0.2025 0.8839,-0.4179 1.313,-0.646 l -0.0759,0.8079 z"
           inkscape:connector-curvature="0"
           style="fill:#3193c8;fill-rule:nonzero" /></g><path
         id="_125119992"
         class="fil1"
         d="m 100.421,50.3505 -12.6047,0 c 0,7.162 -0.0101,14.3141 -0.0101,21.4705 l 0.5311,-0.3104 19.9921,-11.6451 c 2.0155,3.4642 4.0404,6.9236 6.0468,10.393 8.7391,-5.0927 17.4805,-10.1826 26.2204,-15.274 l 1.4033,2.5762 5.7021,-9.3327 -10.9328,-0.2722 1.4291,2.6253 c -1.1553,0.6728 -2.3003,1.3 -3.3928,1.9387 l 0,-27.3317 0,-0.0227 -12.6051,0 0,34.7235 c -1.5385,0.8995 -3.0826,1.8063 -4.6284,2.7065 l 0,-24.826 -12.605,6e-4 0,18.2471 -0.2939,0.1719 -4.2521,2.4812 0,-8.3197 z"
         inkscape:connector-curvature="0"
         style="fill:#55575f" /><path
         id="_125119920"
         class="fil2"
         d="M 134.987,12.2097 113.8391,0 l -21.148,12.2097 -21.1479,12.21 0,24.4194 0,24.4194 21.1479,12.21 21.148,12.2096 21.1479,-12.2096 21.148,-12.21 0,-24.4194 0,-24.4194 -21.148,-12.21 z M 76.6642,27.3761 113.8391,5.9136 151.014,27.3761 c 0,14.3087 -0.0188,28.6038 -0.0188,42.9152 L 113.8391,91.7434 C 101.4508,84.5915 89.0526,77.4541 76.6642,70.3021 l 0,-42.926 z"
         inkscape:connector-curvature="0"
         style="fill:#3193c8" /></g></g></svg>