<?xml version="1.0" encoding="UTF-8" standalone="no"?>
<!-- Creator: CorelDRAW -->

<svg
   xmlns:dc="http://purl.org/dc/elements/1.1/"
   xmlns:cc="http://creativecommons.org/ns#"
   xmlns:rdf="http://www.w3.org/1999/02/22-rdf-syntax-ns#"
   xmlns:svg="http://www.w3.org/2000/svg"
   xmlns="http://www.w3.org/2000/svg"
   xmlns:xlink="http://www.w3.org/1999/xlink"
   xmlns:sodipodi="http://sodipodi.sourceforge.net/DTD/sodipodi-0.dtd"
   xmlns:inkscape="http://www.inkscape.org/namespaces/inkscape"
   xml:space="preserve"
   width="252.55479mm"
   height="46.914227mm"
   style="clip-rule:evenodd;fill-rule:evenodd;image-rendering:optimizeQuality;shape-rendering:geometricPrecision;text-rendering:geometricPrecision"
   viewBox="0 0 252.5548 46.914227"
   id="svg12293"
   version="1.1"
   inkscape:version="0.91 r13725"
   sodipodi:docname="text-light.svg"><metadata
     id="metadata12317"><rdf:RDF><cc:Work
         rdf:about=""><dc:format>image/svg+xml</dc:format><dc:type
           rdf:resource="http://purl.org/dc/dcmitype/StillImage" /><dc:title></dc:title></cc:Work></rdf:RDF></metadata><sodipodi:namedview
     pagecolor="#ffffff"
     bordercolor="#666666"
     borderopacity="1"
     objecttolerance="10"
     gridtolerance="10"
     guidetolerance="10"
     inkscape:pageopacity="0"
     inkscape:pageshadow="2"
     inkscape:window-width="1596"
     inkscape:window-height="1125"
     id="namedview12315"
     showgrid="false"
     inkscape:zoom="1"
     inkscape:cx="447.43959"
     inkscape:cy="294.55926"
     inkscape:window-x="550"
     inkscape:window-y="144"
     inkscape:window-maximized="0"
     inkscape:current-layer="svg12293"
     fit-margin-top="0"
     fit-margin-left="0"
     fit-margin-right="0"
     fit-margin-bottom="0" /><defs
     id="defs12295"><linearGradient
       inkscape:collect="always"
       id="linearGradient12861"><stop
         style="stop-color:#808080;stop-opacity:1;"
         offset="0"
         id="stop12863" /><stop
         style="stop-color:#808080;stop-opacity:0;"
         offset="1"
         id="stop12865" /></linearGradient><style
       type="text/css"
       id="style12297"><![CDATA[
    .fil1 {fill:#55575F}
    .fil2 {fill:white}
    .fil0 {fill:#55575F;fill-rule:nonzero}
    .fil3 {fill:white;fill-rule:nonzero}
   ]]></style><clipPath
       clipPathUnits="userSpaceOnUse"
       id="clipPath12869"><rect
         style="fill:url(#radialGradient12873);fill-opacity:1"
         id="rect12871"
         width="253.43555"
         height="47.977776"
         x="-0.28222221"
         y="120.12943" /></clipPath><radialGradient
       inkscape:collect="always"
       xlink:href="#linearGradient12861"
       id="radialGradient12873"
       gradientUnits="userSpaceOnUse"
       gradientTransform="matrix(1,0,0,0.18930957,0,116.83534)"
       cx="126.43555"
       cy="144.11832"
       fx="126.43555"
       fy="144.11832"
       r="126.71777" /></defs><g
     id="Layer_x0020_1"
     clip-path="url(#clipPath12869)"
     transform="translate(-1e-4,-120.12943)"><metadata
       id="CorelCorpID_0Corel-Layer" /><g
       id="_138555720"><polygon
         id="_135979656"
         class="fil0"
         points="9.6756,130.24 5.8904,166.714 15.6211,166.714 19.4063,130.24 29.1921,130.24 30.0757,121.726 0.8836,121.726 0.0001,130.24 "
         style="fill:#55575f;fill-rule:nonzero" /><path
         id="_135980352"
         class="fil1"
         d="m 105.474,121.735 -9.7307,0 -1.3223,12.7416 c -9.8527,0.0315 -17.6271,-0.8614 -19.8471,11.4448 -3.8469,21.3382 4.5216,21.9037 24.339,20.3755 l 2.1777,-0.3444 c 0.0501,-0.8386 0.0857,-1.4348 0.1604,-2.4661 0.0746,-1.0322 0.1645,-2.1193 0.2649,-3.2618 0.0908,-1.1429 0.2002,-2.2854 0.3198,-3.4372 l 3.6383,-35.0524 z m -13.2233,37.2616 c -1.5306,0 -4.1277,0.0938 -5.6473,0.0576 -1.004,-0.024 -1.8471,-0.3132 -2.5479,-0.9307 -0.7007,-0.6174 -1.1962,-1.5297 -1.5028,-2.746 -0.3066,-1.2159 -0.3527,-2.7175 -0.1861,-4.506 0.7313,-7.8475 4.3207,-8.5009 11.3605,-7.6278 -0.945,10.1026 -0.9752,10.405 -1.4764,15.7529 z"
         inkscape:connector-curvature="0"
         style="fill:#55575f" /><path
         id="_135980904"
         class="fil1"
         d="m 116.416,159.265 c -2.8956,-1.0464 -3.0641,-2.8662 -2.9831,-5.6539 l 17.9396,-0.11 c 0.3039,-0.9789 0.3552,-2.149 0.4607,-3.1651 0.2883,-2.9468 0.4637,-6.1001 -0.3594,-8.8722 -1.8996,-6.396 -8.6412,-7.5101 -14.5429,-6.4961 -5.9998,1.0295 -8.8594,5.058 -10.5867,10.5339 -2.5305,8.0178 -1.5361,17.8824 4.8237,20.1432 5.5334,1.9673 12.9667,1.3838 18.8892,1.0598 l 0.7268,-6.8132 c -3.7924,-0.0168 -10.789,0.6669 -14.3679,-0.6264 z m -1.9185,-11.9142 c 0.2011,-1.2624 0.8649,-2.6746 1.5864,-3.7138 0.4346,-0.6252 0.9669,-1.1431 1.5972,-1.539 1.2099,-0.7595 3.9128,-1.0586 5.1021,-0.173 0.5107,0.3807 0.8934,0.8767 1.1443,1.4929 0.3249,0.7985 0.4604,3.0107 0.3531,3.9329 l -9.7831,0 z"
         inkscape:connector-curvature="0"
         style="fill:#55575f" /><path
         id="_135978936"
         class="fil1"
         d="m 135.539,144.711 c -0.9657,3.2388 -1.4362,7.0077 -1.6649,10.8406 l -1.1339,10.9226 0.9175,0 0,0.0159 8.6762,0 0.006,0 1.6937,-16.3203 c 0.0585,-0.5623 0.1457,-1.0961 0.2596,-1.6125 0.1118,-0.5059 0.2811,-0.9384 0.4316,-1.3179 1.4356,-3.6194 5.8721,-4.1948 10.0637,-3.6268 l 0.873,-8.4174 c -0.4355,-0.0827 -0.8674,-0.0413 -1.3091,-0.0413 -8.5567,-0.1649 -15.8201,-0.4802 -18.8134,9.5571 z"
         inkscape:connector-curvature="0"
         style="fill:#55575f" /><path
         id="_135981072"
         class="fil1"
         d="m 50.8291,166.229 c 5.8019,1.5025 14.2972,0.0309 19.4952,0.0309 -0.1529,-1.5367 0.116,-3.0976 0.2212,-4.6348 0.0605,-0.8842 0.1403,-1.7969 0.2359,-2.7185 l 1.1362,-10.9469 c 0.1538,-1.3913 0.1744,-2.7461 0.0707,-4.0543 -0.0602,-0.8344 -0.1954,-1.6314 -0.4034,-2.3933 -0.1178,-0.4328 -0.2592,-0.8545 -0.4238,-1.2651 -0.4445,-1.1332 -1.1149,-2.1286 -2.003,-2.9855 -0.8878,-0.8569 -2.0444,-1.5205 -3.469,-1.9994 -1.1446,-0.3953 -2.4993,-0.6276 -4.0632,-0.7068 l -5.0227,0 c -2.3297,0.045 -4.8902,0.0162 -6.1997,0.3408 -0.2593,0.1838 -0.8692,7.0863 -0.8938,8.1161 1.8253,-0.3989 12.3718,-1.5223 13.7685,0.4562 0.3776,0.5347 0.0228,2.0321 -0.0698,2.8338 -0.0908,3e-4 -0.1814,3e-4 -0.2716,0 l -6.0978,-0.116 c -2.7055,0 -5.1476,0.5087 -7.0877,1.5562 -6.5818,3.9311 -7.7082,16.2121 1.0778,18.4866 z m 6.7197,-13.1546 c -0.9157,0 -1.742,0.172 -2.3987,0.5266 -2.2275,1.3301 -2.6084,5.4863 0.3648,6.2563 1.9113,0.4948 4.6858,0.0363 6.4547,0.0114 l 0.4196,-3.6662 6e-4,-0.005 0.2617,-2.523 c 0.0249,-0.2233 0.0393,-0.4439 0.044,-0.6615 -1.8261,0 -3.3298,0.0956 -5.1467,0.0615 z"
         inkscape:connector-curvature="0"
         style="fill:#55575f" /><path
         id="_135980736"
         class="fil1"
         d="m 178.608,135.81 -1.0898,6.9561 -0.0761,-0.0131 c -2.3675,-0.4107 -9.5314,-0.749 -11.5811,0.3156 -1.1749,0.6102 -1.2891,2.66 -0.6624,3.6847 0.4328,0.7079 1.6224,0.9123 2.3738,1.0199 1.2983,0.1862 2.612,0.2368 3.9137,0.4373 1.2267,0.1892 2.5119,0.5072 3.5663,1.1872 2.259,1.4576 2.8908,5.4357 2.6343,7.9141 -0.2092,2.0216 -0.8701,3.9047 -2.1319,5.5127 -2.6933,3.4312 -5.4339,3.5049 -9.4424,3.918 -1.3283,0.1366 -11.2139,0.1846 -11.7822,-0.1808 l -0.0405,-0.0261 0.9064,-7.3781 0.0758,0.01 c 2.9396,0.3677 10.7413,0.6186 13.4457,-0.1955 1.843,-0.5544 1.9994,-3.4284 0.3243,-3.9643 -1.5133,-0.4844 -3.4642,-0.4724 -5.0581,-0.622 -4.7496,-0.4456 -7.073,-2.27 -7.2717,-7.391 -0.2099,-5.4081 2.5607,-9.3812 7.6704,-11.1112 1.6754,-0.5674 4.4274,-0.7865 6.2137,-0.7871 1.534,-3e-4 6.7791,0.084 7.963,0.6888 l 0.0488,0.0252 z"
         inkscape:connector-curvature="0"
         style="fill:#55575f" /><path
         id="_135980712"
         class="fil1"
         d="m 226.239,122.393 c -0.6941,-0.4149 -1.5384,-0.6268 -2.5233,-0.636 -0.9684,0.009 -1.8475,0.2211 -2.6369,0.636 -0.7811,0.4238 -1.4312,1.0043 -1.9323,1.7506 -0.5006,0.737 -0.8117,1.6032 -0.9232,2.5893 -0.0893,0.9492 0.0357,1.7875 0.3738,2.5248 0.3474,0.737 0.8674,1.3176 1.5699,1.7417 0.6933,0.4238 1.5364,0.645 2.5216,0.654 0.9498,-0.009 1.8186,-0.2119 2.6081,-0.6264 0.7883,-0.4056 1.4384,-0.9861 1.947,-1.7141 0.5098,-0.737 0.8197,-1.5939 0.9315,-2.58 0.0929,-0.9861 -0.0291,-1.8523 -0.3671,-2.5893 -0.3465,-0.7463 -0.8668,-1.3268 -1.5691,-1.7506 z"
         inkscape:connector-curvature="0"
         style="fill:#55575f" /><path
         id="_135980880"
         class="fil2"
         d="m 111.393,55.8518 -13.9818,0 c 0,7.9445 -0.0112,15.878 -0.0112,23.8163 l 0.5891,-0.3442 22.1765,-12.9175 c 2.2357,3.8427 4.4818,7.68 6.7074,11.5285 9.694,-5.6491 19.3904,-11.2951 29.0852,-16.9429 l 1.5566,2.8578 6.3252,-10.3524 -12.1273,-0.302 1.5852,2.9122 c -1.2815,0.7463 -2.5517,1.442 -3.7635,2.1505 l 0,-30.318 0,-0.0252 -13.9823,0 0,38.5174 c -1.7067,0.9978 -3.4195,2.0037 -5.1341,3.0023 l 0,-27.5386 -13.9822,7e-4 0,20.2409 -0.3261,0.1906 -4.7167,2.7523 0,-9.2287 z"
         inkscape:connector-curvature="0"
         style="fill:#ffffff" /><path
         id="_135980160"
         class="fil1"
         d="m 25.9428,144.19 c -0.9657,3.2388 -1.4362,7.0077 -1.6649,10.8405 l -1.2112,11.8506 0.9175,0 0,0.0159 8.6762,0 0.006,0 1.7711,-17.2482 c 0.0578,-0.5623 0.1456,-1.0964 0.2595,-1.6125 0.1115,-0.5059 0.2812,-0.9384 0.4316,-1.3179 1.4357,-3.6194 5.8721,-4.1948 10.0637,-3.6269 l 0.8731,-8.4173 c -0.4355,-0.0827 -0.8674,-0.0413 -1.3092,-0.0413 -8.5567,-0.1649 -15.8201,-0.4802 -18.8134,9.5571 z"
         inkscape:connector-curvature="0"
         style="fill:#55575f" /><path
         id="_135980520"
         class="fil2"
         d="m 205.091,122.236 c 1.7114,0.2329 3.1791,0.9056 4.4393,1.8425 1.2602,0.9369 2.244,2.1757 2.9704,3.7372 0.727,1.5512 0.9723,3.2999 0.7379,5.2259 -0.2544,2.0922 -1.0509,4.0182 -2.3879,5.7669 -1.3474,1.749 -3.0371,3.0605 -5.0697,3.935 2.6211,0.7913 4.5589,2.1443 5.7846,4.0496 1.2351,1.9154 1.69,4.1638 1.3758,6.7454 -0.2469,2.0301 -0.9559,4.008 -2.1376,5.9337 -1.1804,1.9155 -2.6586,3.4561 -4.4321,4.6014 -1.7736,1.145 -3.8794,1.8528 -6.3172,2.1236 -6.8411,0.7037 -14.0832,0.3018 -20.9395,0.3018 l 5.4396,-44.7108 c 6.2178,0.1655 14.2108,-0.414 20.5364,0.4478 z m -6.6526,36.4555 c 1.3717,-0.2394 2.5384,-0.8432 3.4955,-1.7801 0.9584,-0.9472 1.5397,-2.2173 1.7323,-3.7996 0.1633,-1.3428 -0.0317,-2.4775 -0.5634,-3.4145 -0.5416,-0.9369 -1.395,-1.6238 -2.5713,-2.0508 -2.7636,-1.0025 -7.0008,-0.6348 -10.01,-0.6348 l -1.4537,11.9506 c 2.9074,0 6.5697,0.314 9.3706,-0.2708 z m 0.2739,-19.2793 c 1.562,-0.1767 2.8446,-0.7077 3.8368,-1.5925 0.9928,-0.885 1.572,-2.0508 1.7481,-3.4977 0.1683,-1.3847 -0.0696,-2.5089 -0.7245,-3.3729 -0.6652,-0.8639 -1.7366,-1.3847 -3.2142,-1.5614 -2.4838,-0.2938 -5.1713,-0.1562 -7.6737,-0.1562 l -1.2577,10.3369 c 2.376,0 4.9231,0.1286 7.2852,-0.1562 z"
         inkscape:connector-curvature="0"
         style="fill:#ffffff" /><path
         id="_135980544"
         class="fil3"
         d="m 226.597,138.28 -9.4412,-2.7886 -3.2306,31.127 9.7306,0 2.6436,-25.4707 c -1.3527,-0.3312 -2.6963,-0.7553 -4.0223,-1.275 -0.8643,-0.3384 -1.7209,-0.7179 -2.5677,-1.1384 -0.9444,-0.469 -1.8555,-0.9789 -2.7316,-1.5264 l 0.1055,-1.0167 c 0.8437,0.5227 1.7195,1.0107 2.6261,1.4608 0.8468,0.4205 1.7034,0.8 2.5677,1.1384 1.362,0.5338 2.7422,0.9666 4.132,1.3017 l 0.1879,-1.8121 z"
         inkscape:connector-curvature="0"
         style="fill:#ffffff;fill-rule:nonzero" /><path
         id="_135981168"
         class="fil3"
         d="m 229.522,154.821 c -0.0621,0.5998 -0.1258,1.2995 -0.1625,2.1011 -0.0363,0.7923 -0.0114,1.6309 0.0809,2.5063 0.093,0.8846 0.2982,1.742 0.6165,2.5804 0.318,0.8382 0.7922,1.6035 1.4402,2.2849 0.6393,0.6726 1.4949,1.2181 2.5588,1.6218 1.0722,0.407 2.3962,0.6266 3.9805,0.6266 1.3395,0 4.8407,0.2701 6.0067,-0.0999 l 0.7641,-8.138 c -2.0699,0.1354 -5.0012,0.2376 -5.4539,-1.7876 -0.1638,-0.7321 -0.2161,-1.7054 -0.0847,-2.9118 l 1.3423,-12.291 c -1.111,0.2501 -2.237,0.4403 -3.3726,0.5689 -1.6228,0.1836 -3.2653,0.2421 -4.9137,0.1694 -0.4783,-0.0211 -0.9571,-0.053 -1.4359,-0.0964 -0.3548,3.3404 -0.7707,7.1931 -1.3667,12.8653 z m 11.2018,-14.4899 0.0101,-0.1321 c 0.1489,-0.0332 0.2972,-0.0677 0.4453,-0.1029 1.5794,-0.3779 3.1284,-0.8757 4.6318,-1.4892 l 0.6844,1.5396 2.04,-2.8043 0.0274,-0.0144 0.007,-0.0333 0.9551,-1.3131 3.0297,-4.1646 -5.1217,-0.5412 -5.1222,-0.5417 0.9173,2.0628 c -0.8029,0.4758 -1.6362,0.9097 -2.4964,1.3005 -0.5797,0.2637 -1.1709,0.5077 -1.7737,0.7318 -1.6953,0.6315 -3.4776,1.1078 -5.3213,1.4222 -3.3328,0.5686 -6.8649,0.6084 -10.4429,0.084 -3.3227,-0.4869 -6.6847,-1.4613 -9.9622,-2.9524 1.9345,1.6479 4.1,3.0883 6.4785,4.2696 0.8467,0.4204 1.7031,0.7998 2.5677,1.1384 2.856,1.1194 5.7929,1.795 8.7294,2.0551 l -0.005,0.0419 c 0.4337,0.037 0.8671,0.0652 1.3002,0.0842 1.6484,0.0728 3.291,0.0142 4.9137,-0.1694 1.1851,-0.1342 2.3593,-0.3355 3.517,-0.6016 l -0.01,0.1301 z m 0.5444,-4.9114 1.268,-13.6941 -9.5259,-0.0203 c -0.6327,6.2023 -1.2173,11.8563 -1.5972,15.4211 0.4712,-0.0583 1.0045,0.0363 1.4684,-0.0429 1.8436,-0.3144 3.6262,-0.7907 5.3212,-1.4221 0.6028,-0.2242 1.1138,-0.1575 1.6933,-0.4213 0.4945,-0.2247 0.9804,-0.4635 1.4564,-0.7166 l -0.0842,0.8962 z"
         inkscape:connector-curvature="0"
         style="fill:#ffffff;fill-rule:nonzero" /><path
         id="_135980784"
         class="fil2"
         d="M 149.736,13.5437 126.2775,0 l -23.4586,13.5437 -23.4585,13.544 0,27.0875 0,27.0875 23.4585,13.5441 23.4586,13.5436 23.4585,-13.5436 23.4586,-13.5441 0,-27.0875 0,-27.0875 -23.4586,-13.544 z M 85.0409,30.3672 126.2775,6.5597 167.5141,30.3672 c 0,15.872 -0.0208,31.729 -0.0208,47.6041 l -41.2158,23.7959 C 112.5356,93.834 98.7829,85.9167 85.0409,77.9833 l 0,-47.6161 z"
         inkscape:connector-curvature="0"
         style="fill:#ffffff" /></g></g></svg>